<?xml version="1.0" encoding="UTF-8"?>
<svg version="1.1" xmlns="http://www.w3.org/2000/svg" width="512" height="512">
<path d="M0 0 C4.84675856 4.84675856 7.36218066 10.43162188 7.3886652 17.28733444 C7.39413964 18.08602943 7.39961409 18.88472442 7.40525442 19.70762229 C7.40623253 20.57921619 7.40721064 21.45081008 7.40821838 22.34881592 C7.41315636 23.2792 7.41809434 24.20958409 7.42318195 25.16816163 C7.43856775 28.29277 7.44692054 31.4173578 7.45532227 34.54199219 C7.46489993 36.7790088 7.47490995 39.01602361 7.48532104 41.2530365 C7.5123882 47.33317265 7.53338799 53.41331657 7.55332303 59.49347973 C7.57517139 65.84497182 7.60256571 72.19643988 7.62937927 78.5479126 C7.67364375 89.21080524 7.71447638 99.87370549 7.75268555 110.53662109 C7.79205021 121.51937828 7.83347877 132.50212448 7.87768555 143.48486328 C7.88040982 144.16186038 7.88313409 144.83885749 7.88594092 145.53636965 C7.89962056 148.93267143 7.9133408 152.32897303 7.92708123 155.72527456 C8.04101594 183.90016016 8.1477589 212.07506973 8.25 240.25 C9.12394913 239.36716843 9.99789825 238.48433685 10.89833069 237.57475281 C19.14137782 229.25056998 27.39500386 220.93700644 35.6590662 212.63368511 C39.90722387 208.36466543 44.15158552 204.0920103 48.38745117 199.81079102 C52.47649354 195.6782432 56.57526932 191.55558314 60.68093681 187.43955421 C62.24450707 185.86860117 63.80455619 184.2941353 65.36097908 182.71610069 C67.54397606 180.50400909 69.73923351 178.30481328 71.93774414 176.1081543 C72.57647964 175.45503769 73.21521515 174.80192108 73.87330627 174.12901306 C79.27934588 168.77194316 84.33414114 165.82304142 92.1875 165.8125 C98.75575819 166.01750182 103.32553231 167.29942099 108 172.015625 C112.72089359 177.78056236 114.59495714 183.32664031 114.1875 190.75 C112.53827606 200.73887063 104.56339992 207.37361503 97.69580078 214.20825195 C96.62207839 215.28768562 95.54898547 216.36774572 94.47647095 217.44837952 C91.5784948 220.36421327 88.67112562 223.27050245 85.76135111 226.17455697 C83.3280466 228.60476052 80.89936256 231.03955582 78.4706248 233.47432202 C72.7406481 239.2183165 67.00294354 244.95450863 61.26025391 250.68579102 C55.34371694 256.59083463 49.44009725 262.50856896 43.54270947 268.43273193 C38.4686931 273.52891737 33.38693923 278.61729424 28.29889286 283.69947213 C25.2644546 286.73054433 22.23296662 289.7644214 19.2088356 292.80578041 C16.36627536 295.66382807 13.51414226 298.51196711 10.65444565 301.35286522 C9.60895721 302.39467357 8.56683915 303.43987731 7.52844238 304.48875427 C-3.35928274 315.47791017 -3.35928274 315.47791017 -11.77734375 316.68359375 C-12.73769531 316.68488281 -13.69804687 316.68617188 -14.6875 316.6875 C-16.12416016 316.71650391 -16.12416016 316.71650391 -17.58984375 316.74609375 C-27.25021183 315.2295712 -33.24300598 308.32430131 -39.80004883 301.70166016 C-40.88911051 300.61638663 -41.97902897 299.53197229 -43.06973267 298.448349 C-46.01460639 295.51737974 -48.94683895 292.57406376 -51.87648606 289.62788439 C-54.95039073 286.54008125 -58.03449316 283.46249213 -61.11711121 280.38339233 C-66.28945117 275.21375008 -71.45366629 270.03609933 -76.61303711 264.85351562 C-82.57269938 258.86722536 -88.54471831 252.89348598 -94.52357274 246.92636836 C-100.28427215 241.17645683 -106.0364407 235.4180845 -111.78467369 229.65571213 C-114.22726707 227.20736987 -116.6727407 224.76195931 -119.12058449 222.31886673 C-122.00280251 219.44142954 -124.87744471 216.55662862 -127.74646378 213.66603279 C-128.79883028 212.60811413 -129.85373534 211.55271359 -130.91137886 210.50007057 C-132.35756688 209.05986323 -133.79357259 207.60945301 -135.2290802 206.15859985 C-136.03447644 205.35077372 -136.83987268 204.54294758 -137.66967487 203.71064186 C-142.3917452 198.12530149 -143.92332058 192.4319714 -143.75 185.25 C-142.53743111 178.50508556 -139.65462434 173.16484747 -134.0703125 168.99609375 C-128.40357342 165.62191509 -122.18481186 165.15608198 -115.75 166.25 C-109.45297244 168.64994638 -105.07359278 172.3652711 -100.41601562 177.12988281 C-99.73209747 177.81321686 -99.04817932 178.4965509 -98.34353638 179.20059204 C-96.10481713 181.44207867 -93.88056987 183.69735645 -91.65625 185.953125 C-90.09914353 187.51769859 -88.5411465 189.08138633 -86.9822998 190.64422607 C-82.89638762 194.74535722 -78.82263473 198.85836052 -74.75134277 202.97399902 C-70.58893629 207.17743845 -66.41507963 211.36947443 -62.2421875 215.5625 C-54.06691258 223.7805799 -45.90444467 232.01125438 -37.75 240.25 C-37.74761165 239.08747711 -37.74522329 237.92495422 -37.74276257 236.72720337 C-37.6853785 209.11912912 -37.61263075 181.51113005 -37.52101372 153.90314728 C-37.50974582 150.5036285 -37.49860732 147.10410931 -37.48754883 143.70458984 C-37.48534514 143.02781877 -37.48314146 142.3510477 -37.480871 141.65376842 C-37.44551748 130.7016558 -37.42064238 119.74954325 -37.39965298 108.79739475 C-37.37787541 97.55594857 -37.34458459 86.31457616 -37.30129844 75.07318878 C-37.27735496 68.7605517 -37.25863348 62.4479964 -37.25238609 56.13531494 C-37.24634044 50.19277742 -37.22635894 44.25044919 -37.19572449 38.30798912 C-37.18693601 36.12796163 -37.18322335 33.9479068 -37.18499184 31.76786232 C-37.18664565 28.78827799 -37.16993556 25.80933084 -37.14872742 22.82983398 C-37.15357499 21.96989145 -37.15842257 21.10994892 -37.16341704 20.22394753 C-37.07391435 12.58921435 -35.31879606 5.81879606 -29.75 0.25 C-19.91568315 -6.55130324 -9.93984913 -6.32535854 0 0 Z " fill="#000000" transform="translate(270.75,46.75)"/>
<path d="M0 0 C0.67196843 -0.00350607 1.34393686 -0.00701215 2.03626797 -0.01062447 C4.29218089 -0.01994229 6.54783588 -0.01501424 8.80375957 -0.01015663 C10.4357964 -0.0138927 12.06783143 -0.01849405 13.69986361 -0.02388728 C18.18816566 -0.03613804 22.67639329 -0.03585437 27.16470826 -0.03349853 C32.00395779 -0.03309088 36.8431833 -0.04412447 41.68242168 -0.05361366 C51.16476269 -0.07023599 60.64707884 -0.07572376 70.12943319 -0.07683842 C77.83615284 -0.0777883 85.54286428 -0.08189562 93.24958134 -0.08823967 C115.09318071 -0.10585539 136.93676041 -0.11507802 158.78036693 -0.11357872 C159.95828838 -0.11349881 161.13620982 -0.1134189 162.34982586 -0.11333656 C163.52918332 -0.1132548 164.70854078 -0.11317304 165.92363634 -0.1130888 C185.03946653 -0.11227579 204.15521794 -0.13141633 223.27102534 -0.1596133 C242.89276321 -0.18832847 262.51446264 -0.20215435 282.13622206 -0.20042574 C293.15485821 -0.19976137 304.17341176 -0.20527431 315.192029 -0.22678185 C324.5731963 -0.24497564 333.95424359 -0.24935579 343.33542088 -0.235763 C348.12223561 -0.22922427 352.90881997 -0.22914877 357.69561291 -0.2464695 C362.07839161 -0.26216528 366.46075662 -0.25937244 370.84352501 -0.24190123 C372.42830063 -0.23882362 374.01310684 -0.24249236 375.59784637 -0.25362138 C385.39611353 -0.31786889 392.67468554 -0.18960875 400.03512859 7.00726891 C404.03184058 12.945241 406.43048732 18.96893956 405.22262859 26.25726891 C403.07215765 33.77111678 399.06451143 38.23171101 392.52914786 42.31547791 C389.44035396 43.57668493 386.87339653 43.51192134 383.53707027 43.51733112 C382.86287894 43.52113679 382.18868761 43.52494247 381.49406624 43.52886346 C379.22457507 43.53920748 376.9553327 43.53526796 374.68582439 43.53142357 C373.04640068 43.53587446 371.40697911 43.54118801 369.76756072 43.54729229 C365.25420014 43.56150072 360.74090832 43.56313505 356.22752857 43.56269538 C351.36303686 43.56434109 346.49857369 43.577403 341.6340971 43.58888817 C330.9936407 43.61175648 320.35320423 43.61966075 309.71272659 43.62471461 C303.07054439 43.6279695 296.428368 43.63449072 289.78618908 43.641716 C271.40090528 43.66128431 253.01562688 43.67768717 234.63033199 43.68059254 C233.4533757 43.68078011 232.2764194 43.68096768 231.06379776 43.68116093 C228.67774979 43.68152718 226.29170183 43.68189088 223.90565386 43.68225204 C222.72119302 43.68243485 221.53673219 43.68261766 220.31637859 43.68280602 C218.53752231 43.68307684 218.53752231 43.68307684 216.72272953 43.68335313 C197.50335492 43.68689538 178.28409231 43.7139199 159.06475654 43.7513039 C139.3390888 43.78936617 119.61347666 43.80874986 99.88777137 43.80905205 C88.80985336 43.80963709 77.73206896 43.81815901 66.6541853 43.84704971 C57.22174045 43.87153576 47.78947793 43.87886525 38.35700992 43.86380219 C33.54382427 43.85662193 28.73099885 43.85753876 23.91785336 43.88021278 C19.51090561 43.90077448 15.10459567 43.89822887 10.69765505 43.87733794 C9.10409836 43.87383765 7.51049592 43.87877594 5.91699925 43.89304238 C-3.51258452 43.97201811 -10.26556751 43.54696383 -17.28061461 36.81460184 C-21.67228749 32.02890128 -23.2964126 26.93018075 -23.08596516 20.46820641 C-22.08978938 13.3310483 -19.2742206 7.89744552 -13.65627766 3.41351891 C-9.10861274 0.61495588 -5.31419442 0.00625619 0 0 Z " fill="#000000" transform="translate(64.77737140655518,404.74273109436035)"/>
</svg>
