<svg xmlns="http://www.w3.org/2000/svg" xmlns:v="https://svgstorm.com"
viewBox = "0 0 500 500"
width="500"
height="500">
<g fill="None" fill-opacity="0.0" stroke="#000000" stroke-opacity="0.00" stroke-width="0.3"><path d="
M 0.00 500.00 
L 500.00 500.00
L 500.00 0.00
L 0.00 0.00
L 0.00 500.00
M 321.00 141.00 
C 321.99 150.16 324.62 161.53 321.00 170.00
C 312.66 142.54 282.55 144.02 258.00 145.00
C 258.00 161.00 258.00 177.00 258.00 193.00
C 271.97 191.07 294.61 193.96 296.39 209.75 C 298.18 225.54 284.20 235.44 272.00 242.00
C 273.01 244.87 278.88 244.79 280.00 249.00
C 272.68 252.39 261.36 242.66 259.00 249.00
C 251.94 249.04 244.49 249.97 240.00 246.00
C 245.37 240.14 243.02 226.11 242.00 218.00
C 235.59 229.40 230.89 237.45 226.00 249.00
C 223.00 249.00 220.00 249.00 217.00 249.00
C 220.61 240.49 224.82 233.73 228.92 224.92 C 233.03 216.12 242.16 211.67 242.00 201.00
C 226.82 200.77 211.26 198.75 201.00 211.00
C 204.29 204.89 209.28 198.21 215.30 194.30 C 221.32 190.39 235.41 194.67 243.00 193.00
C 243.00 177.00 243.00 161.00 243.00 145.00
C 217.59 143.68 189.78 143.23 180.00 170.00
C 174.97 164.12 179.94 157.99 179.00 148.00 C 178.06 138.01 193.33 141.10 202.00 141.00 C 210.67 140.90 222.69 141.05 232.00 141.00 C 241.31 140.95 251.36 141.02 261.00 141.00 C 270.64 140.98 281.19 141.01 291.00 141.00 C 300.81 140.99 311.14 141.01 321.00 141.00
M 189.00 263.00 
C 182.52 261.29 183.33 270.02 185.00 275.00
C 176.85 276.78 186.83 260.68 178.00 263.00
C 178.58 259.86 188.41 259.70 189.00 263.00
M 201.00 262.00 
C 199.67 261.96 198.33 262.03 197.00 262.00
C 195.61 266.23 199.46 265.73 202.00 267.00
C 196.16 269.74 196.29 272.20 202.00 275.00
C 199.00 275.00 196.00 275.00 193.00 275.00
C 194.19 270.73 194.87 265.22 193.00 261.00
C 196.00 261.00 199.00 261.00 202.00 261.00
C 203.19 262.01 203.05 263.37 203.00 265.00
C 200.97 265.64 200.94 263.31 201.00 262.00
M 213.00 266.00 
C 217.12 264.59 214.19 258.74 221.00 261.00
C 215.73 264.39 215.32 270.58 220.00 275.00
C 215.11 276.16 215.62 273.62 215.00 270.00
C 210.58 270.75 214.41 277.22 208.00 275.00
C 211.96 270.34 212.29 265.27 208.00 261.00
C 212.89 259.84 212.38 262.38 213.00 266.00
M 236.00 263.00 
C 229.79 261.08 229.39 270.83 233.00 275.00
C 227.86 275.69 227.92 273.76 229.00 269.00 C 230.08 264.23 227.57 262.70 224.00 263.00
C 224.86 259.83 235.13 259.69 236.00 263.00
M 257.00 266.00 
C 257.09 267.38 256.13 269.52 259.00 270.00
C 259.00 276.61 251.54 274.88 247.00 275.00
C 250.07 271.30 249.99 264.68 247.00 261.00
C 249.33 261.00 251.67 261.00 254.00 261.00
C 258.57 261.39 256.79 262.96 257.00 266.00
M 272.00 272.00 
C 272.66 277.30 265.15 274.14 262.00 275.00
C 265.07 271.30 264.99 264.68 262.00 261.00
C 272.02 257.81 260.07 278.04 272.00 272.00
M 281.00 261.00 
C 289.15 258.59 294.03 272.24 284.92 274.92 C 275.81 277.61 272.50 263.51 281.00 261.00
M 304.00 261.00 
C 308.06 263.82 306.31 268.46 307.00 272.00
C 294.32 284.47 287.96 256.68 304.00 261.00
M 319.00 269.00 
C 324.90 267.61 321.18 260.79 328.00 261.00
C 326.81 265.27 326.13 270.78 328.00 275.00
C 322.07 276.62 326.03 270.35 325.00 267.00
C 321.92 267.98 322.86 273.32 319.00 273.00
C 318.34 270.50 316.57 267.89 315.00 266.00
C 313.70 269.67 318.59 276.34 312.00 275.00
C 313.54 270.77 314.08 264.64 311.00 261.00
C 316.32 259.64 316.91 265.82 319.00 269.00
M 206.00 287.00 
C 204.62 296.86 194.33 301.66 189.00 308.00
C 206.11 308.95 227.15 311.58 243.00 309.00
C 243.00 301.67 243.00 294.33 243.00 287.00
C 248.33 287.00 253.67 287.00 259.00 287.00
C 259.00 291.33 259.00 295.67 259.00 300.00
C 267.11 298.08 266.11 285.01 276.00 287.00
C 272.33 293.93 267.63 295.81 261.77 300.77 C 255.91 305.73 260.71 314.70 260.00 322.00 C 259.28 329.30 268.41 333.77 270.00 339.00
C 257.33 339.00 244.67 339.00 232.00 339.00
C 231.83 334.00 238.90 332.43 239.93 326.93 C 240.95 321.42 244.25 317.60 241.00 312.00
C 222.74 320.83 198.15 316.40 177.00 316.00
C 180.30 309.86 188.17 306.35 190.92 299.92 C 193.67 293.49 196.60 285.76 206.00 287.00 Z"/>
</g>
<g fill="None" fill-opacity="0.0" stroke="#0D0C09" stroke-opacity="0.95" stroke-width="0.3"><path d="
M 321.00 141.00 
C 311.14 141.01 300.81 140.99 291.00 141.00 C 281.19 141.01 270.64 140.98 261.00 141.00 C 251.36 141.02 241.31 140.95 232.00 141.00 C 222.69 141.05 210.67 140.90 202.00 141.00 C 193.33 141.10 178.06 138.01 179.00 148.00 C 179.94 157.99 174.97 164.12 180.00 170.00
C 189.78 143.23 217.59 143.68 243.00 145.00
C 243.00 161.00 243.00 177.00 243.00 193.00
C 235.41 194.67 221.32 190.39 215.30 194.30 C 209.28 198.21 204.29 204.89 201.00 211.00
C 211.26 198.75 226.82 200.77 242.00 201.00
C 242.16 211.67 233.03 216.12 228.92 224.92 C 224.82 233.73 220.61 240.49 217.00 249.00
C 220.00 249.00 223.00 249.00 226.00 249.00
C 230.89 237.45 235.59 229.40 242.00 218.00
C 243.02 226.11 245.37 240.14 240.00 246.00
C 244.49 249.97 251.94 249.04 259.00 249.00
C 261.36 242.66 272.68 252.39 280.00 249.00
C 278.88 244.79 273.01 244.87 272.00 242.00
C 284.20 235.44 298.18 225.54 296.39 209.75 C 294.61 193.96 271.97 191.07 258.00 193.00
C 258.00 177.00 258.00 161.00 258.00 145.00
C 282.55 144.02 312.66 142.54 321.00 170.00
C 324.62 161.53 321.99 150.16 321.00 141.00
M 258.00 244.00 
C 258.00 229.67 258.00 215.33 258.00 201.00
C 269.96 198.99 289.87 203.37 287.66 218.68 C 285.45 233.99 271.17 242.72 258.00 244.00 Z"/>
</g>
<g fill="None" fill-opacity="0.0" stroke="#000000" stroke-opacity="0.04" stroke-width="0.3"><path d="
M 258.00 244.00 
C 271.17 242.72 285.45 233.99 287.66 218.68 C 289.87 203.37 269.96 198.99 258.00 201.00
C 258.00 215.33 258.00 229.67 258.00 244.00 Z"/>
</g>
<g fill="None" fill-opacity="0.0" stroke="#090807" stroke-opacity="0.66" stroke-width="0.3"><path d="
M 189.00 263.00 
C 188.41 259.70 178.58 259.86 178.00 263.00
C 186.83 260.68 176.85 276.78 185.00 275.00
C 183.33 270.02 182.52 261.29 189.00 263.00 Z"/>
</g>
<g fill="None" fill-opacity="0.0" stroke="#0A0806" stroke-opacity="0.58" stroke-width="0.3"><path d="
M 201.00 262.00 
C 201.33 262.01 201.95 260.98 202.00 261.00
C 199.00 261.00 196.00 261.00 193.00 261.00
C 194.87 265.22 194.19 270.73 193.00 275.00
C 196.00 275.00 199.00 275.00 202.00 275.00
C 196.29 272.20 196.16 269.74 202.00 267.00
C 199.46 265.73 195.61 266.23 197.00 262.00
C 198.33 262.03 199.67 261.96 201.00 262.00 Z"/>
</g>
<g fill="None" fill-opacity="0.0" stroke="#060404" stroke-opacity="0.42" stroke-width="0.3"><path d="
M 201.00 262.00 
C 200.94 263.31 200.97 265.64 203.00 265.00
C 203.05 263.37 203.19 262.01 202.00 261.00
C 201.95 260.98 201.33 262.01 201.00 262.00 Z"/>
</g>
<g fill="None" fill-opacity="0.0" stroke="#0F0D0B" stroke-opacity="0.64" stroke-width="0.3"><path d="
M 213.00 266.00 
C 212.38 262.38 212.89 259.84 208.00 261.00
C 212.29 265.27 211.96 270.34 208.00 275.00
C 214.41 277.22 210.58 270.75 215.00 270.00
C 215.62 273.62 215.11 276.16 220.00 275.00
C 215.32 270.58 215.73 264.39 221.00 261.00
C 214.19 258.74 217.12 264.59 213.00 266.00 Z"/>
</g>
<g fill="None" fill-opacity="0.0" stroke="#0D0907" stroke-opacity="0.67" stroke-width="0.3"><path d="
M 236.00 263.00 
C 235.13 259.69 224.86 259.83 224.00 263.00
C 227.57 262.70 230.08 264.23 229.00 269.00 C 227.92 273.76 227.86 275.69 233.00 275.00
C 229.39 270.83 229.79 261.08 236.00 263.00 Z"/>
</g>
<g fill="None" fill-opacity="0.0" stroke="#0D0708" stroke-opacity="0.62" stroke-width="0.3"><path d="
M 257.00 266.00 
C 255.04 264.08 253.25 267.39 251.00 267.00
C 249.33 263.00 253.87 263.89 254.00 261.00
C 251.67 261.00 249.33 261.00 247.00 261.00
C 249.99 264.68 250.07 271.30 247.00 275.00
C 251.54 274.88 259.00 276.61 259.00 270.00
C 256.13 269.52 257.09 267.38 257.00 266.00
M 256.00 269.00 
C 258.05 271.05 253.67 275.17 251.33 272.67 C 248.99 270.16 254.21 267.21 256.00 269.00 Z"/>
</g>
<g fill="None" fill-opacity="0.0" stroke="#020101" stroke-opacity="0.28" stroke-width="0.3"><path d="
M 257.00 266.00 
C 256.79 262.96 258.57 261.39 254.00 261.00
C 253.87 263.89 249.33 263.00 251.00 267.00
C 253.25 267.39 255.04 264.08 257.00 266.00 Z"/>
</g>
<g fill="None" fill-opacity="0.0" stroke="#0E0B09" stroke-opacity="0.69" stroke-width="0.3"><path d="
M 272.00 272.00 
C 260.07 278.04 272.02 257.81 262.00 261.00
C 264.99 264.68 265.07 271.30 262.00 275.00
C 265.15 274.14 272.66 277.30 272.00 272.00 Z"/>
</g>
<g fill="None" fill-opacity="0.0" stroke="#0F0C0A" stroke-opacity="0.56" stroke-width="0.3"><path d="
M 281.00 261.00 
C 272.50 263.51 275.81 277.61 284.92 274.92 C 294.03 272.24 289.15 258.59 281.00 261.00
M 281.00 274.00 
C 277.50 271.02 278.66 260.76 284.67 263.33 C 290.68 265.91 285.66 274.36 281.00 274.00 Z"/>
</g>
<g fill="None" fill-opacity="0.0" stroke="#020201" stroke-opacity="0.34" stroke-width="0.3"><path d="
M 304.00 261.00 
C 287.96 256.68 294.32 284.47 307.00 272.00
C 306.31 268.46 308.06 263.82 304.00 261.00 Z"/>
</g>
<g fill="None" fill-opacity="0.0" stroke="#0E0C0C" stroke-opacity="0.64" stroke-width="0.3"><path d="
M 319.00 269.00 
C 316.91 265.82 316.32 259.64 311.00 261.00
C 314.08 264.64 313.54 270.77 312.00 275.00
C 318.59 276.34 313.70 269.67 315.00 266.00
C 316.57 267.89 318.34 270.50 319.00 273.00
C 322.86 273.32 321.92 267.98 325.00 267.00
C 326.03 270.35 322.07 276.62 328.00 275.00
C 326.13 270.78 326.81 265.27 328.00 261.00
C 321.18 260.79 324.90 267.61 319.00 269.00 Z"/>
</g>
<g fill="None" fill-opacity="0.0" stroke="#000000" stroke-opacity="0.02" stroke-width="0.3"><path d="
M 281.00 274.00 
C 285.66 274.36 290.68 265.91 284.67 263.33 C 278.66 260.76 277.50 271.02 281.00 274.00 Z"/>
</g>
<g fill="None" fill-opacity="0.0" stroke="#000000" stroke-opacity="0.01" stroke-width="0.3"><path d="
M 256.00 269.00 
C 254.21 267.21 248.99 270.16 251.33 272.67 C 253.67 275.17 258.05 271.05 256.00 269.00 Z"/>
</g>
<g fill="None" fill-opacity="0.0" stroke="#0D0B09" stroke-opacity="0.93" stroke-width="0.3"><path d="
M 206.00 287.00 
C 196.60 285.76 193.67 293.49 190.92 299.92 C 188.17 306.35 180.30 309.86 177.00 316.00
C 198.15 316.40 222.74 320.83 241.00 312.00
C 244.25 317.60 240.95 321.42 239.93 326.93 C 238.90 332.43 231.83 334.00 232.00 339.00
C 244.67 339.00 257.33 339.00 270.00 339.00
C 268.41 333.77 259.28 329.30 260.00 322.00 C 260.71 314.70 255.91 305.73 261.77 300.77 C 267.63 295.81 272.33 293.93 276.00 287.00
C 266.11 285.01 267.11 298.08 259.00 300.00
C 259.00 295.67 259.00 291.33 259.00 287.00
C 253.67 287.00 248.33 287.00 243.00 287.00
C 243.00 294.33 243.00 301.67 243.00 309.00
C 227.15 311.58 206.11 308.95 189.00 308.00
C 194.33 301.66 204.62 296.86 206.00 287.00 Z"/>
</g>
<g fill="#000000" fill-opacity="0.00" stroke="None"><path d="
M 0.00 500.00 
L 500.00 500.00
L 500.00 0.00
L 0.00 0.00
L 0.00 500.00
M 321.00 141.00 
C 321.99 150.16 324.62 161.53 321.00 170.00
C 312.66 142.54 282.55 144.02 258.00 145.00
C 258.00 161.00 258.00 177.00 258.00 193.00
C 271.97 191.07 294.61 193.96 296.39 209.75 C 298.18 225.54 284.20 235.44 272.00 242.00
C 273.01 244.87 278.88 244.79 280.00 249.00
C 272.68 252.39 261.36 242.66 259.00 249.00
C 251.94 249.04 244.49 249.97 240.00 246.00
C 245.37 240.14 243.02 226.11 242.00 218.00
C 235.59 229.40 230.89 237.45 226.00 249.00
C 223.00 249.00 220.00 249.00 217.00 249.00
C 220.61 240.49 224.82 233.73 228.92 224.92 C 233.03 216.12 242.16 211.67 242.00 201.00
C 226.82 200.77 211.26 198.75 201.00 211.00
C 204.29 204.89 209.28 198.21 215.30 194.30 C 221.32 190.39 235.41 194.67 243.00 193.00
C 243.00 177.00 243.00 161.00 243.00 145.00
C 217.59 143.68 189.78 143.23 180.00 170.00
C 174.97 164.12 179.94 157.99 179.00 148.00 C 178.06 138.01 193.33 141.10 202.00 141.00 C 210.67 140.90 222.69 141.05 232.00 141.00 C 241.31 140.95 251.36 141.02 261.00 141.00 C 270.64 140.98 281.19 141.01 291.00 141.00 C 300.81 140.99 311.14 141.01 321.00 141.00
M 189.00 263.00 
C 182.52 261.29 183.33 270.02 185.00 275.00
C 176.85 276.78 186.83 260.68 178.00 263.00
C 178.58 259.86 188.41 259.70 189.00 263.00
M 201.00 262.00 
C 199.67 261.96 198.33 262.03 197.00 262.00
C 195.61 266.23 199.46 265.73 202.00 267.00
C 196.16 269.74 196.29 272.20 202.00 275.00
C 199.00 275.00 196.00 275.00 193.00 275.00
C 194.19 270.73 194.87 265.22 193.00 261.00
C 196.00 261.00 199.00 261.00 202.00 261.00
C 203.19 262.01 203.05 263.37 203.00 265.00
C 200.97 265.64 200.94 263.31 201.00 262.00
M 213.00 266.00 
C 217.12 264.59 214.19 258.74 221.00 261.00
C 215.73 264.39 215.32 270.58 220.00 275.00
C 215.11 276.16 215.62 273.62 215.00 270.00
C 210.58 270.75 214.41 277.22 208.00 275.00
C 211.96 270.34 212.29 265.27 208.00 261.00
C 212.89 259.84 212.38 262.38 213.00 266.00
M 236.00 263.00 
C 229.79 261.08 229.39 270.83 233.00 275.00
C 227.86 275.69 227.92 273.76 229.00 269.00 C 230.08 264.23 227.57 262.70 224.00 263.00
C 224.86 259.83 235.13 259.69 236.00 263.00
M 257.00 266.00 
C 257.09 267.38 256.13 269.52 259.00 270.00
C 259.00 276.61 251.54 274.88 247.00 275.00
C 250.07 271.30 249.99 264.68 247.00 261.00
C 249.33 261.00 251.67 261.00 254.00 261.00
C 258.57 261.39 256.79 262.96 257.00 266.00
M 272.00 272.00 
C 272.66 277.30 265.15 274.14 262.00 275.00
C 265.07 271.30 264.99 264.68 262.00 261.00
C 272.02 257.81 260.07 278.04 272.00 272.00
M 281.00 261.00 
C 289.15 258.59 294.03 272.24 284.92 274.92 C 275.81 277.61 272.50 263.51 281.00 261.00
M 304.00 261.00 
C 308.06 263.82 306.31 268.46 307.00 272.00
C 294.32 284.47 287.96 256.68 304.00 261.00
M 319.00 269.00 
C 324.90 267.61 321.18 260.79 328.00 261.00
C 326.81 265.27 326.13 270.78 328.00 275.00
C 322.07 276.62 326.03 270.35 325.00 267.00
C 321.92 267.98 322.86 273.32 319.00 273.00
C 318.34 270.50 316.57 267.89 315.00 266.00
C 313.70 269.67 318.59 276.34 312.00 275.00
C 313.54 270.77 314.08 264.64 311.00 261.00
C 316.32 259.64 316.91 265.82 319.00 269.00
M 206.00 287.00 
C 204.62 296.86 194.33 301.66 189.00 308.00
C 206.11 308.95 227.15 311.58 243.00 309.00
C 243.00 301.67 243.00 294.33 243.00 287.00
C 248.33 287.00 253.67 287.00 259.00 287.00
C 259.00 291.33 259.00 295.67 259.00 300.00
C 267.11 298.08 266.11 285.01 276.00 287.00
C 272.33 293.93 267.63 295.81 261.77 300.77 C 255.91 305.73 260.71 314.70 260.00 322.00 C 259.28 329.30 268.41 333.77 270.00 339.00
C 257.33 339.00 244.67 339.00 232.00 339.00
C 231.83 334.00 238.90 332.43 239.93 326.93 C 240.95 321.42 244.25 317.60 241.00 312.00
C 222.74 320.83 198.15 316.40 177.00 316.00
C 180.30 309.86 188.17 306.35 190.92 299.92 C 193.67 293.49 196.60 285.76 206.00 287.00 Z"/>
</g>
<g fill="#0D0C09" fill-opacity="0.95" stroke="None"><path d="
M 321.00 141.00 
C 311.14 141.01 300.81 140.99 291.00 141.00 C 281.19 141.01 270.64 140.98 261.00 141.00 C 251.36 141.02 241.31 140.95 232.00 141.00 C 222.69 141.05 210.67 140.90 202.00 141.00 C 193.33 141.10 178.06 138.01 179.00 148.00 C 179.94 157.99 174.97 164.12 180.00 170.00
C 189.78 143.23 217.59 143.68 243.00 145.00
C 243.00 161.00 243.00 177.00 243.00 193.00
C 235.41 194.67 221.32 190.39 215.30 194.30 C 209.28 198.21 204.29 204.89 201.00 211.00
C 211.26 198.75 226.82 200.77 242.00 201.00
C 242.16 211.67 233.03 216.12 228.92 224.92 C 224.82 233.73 220.61 240.49 217.00 249.00
C 220.00 249.00 223.00 249.00 226.00 249.00
C 230.89 237.45 235.59 229.40 242.00 218.00
C 243.02 226.11 245.37 240.14 240.00 246.00
C 244.49 249.97 251.94 249.04 259.00 249.00
C 261.36 242.66 272.68 252.39 280.00 249.00
C 278.88 244.79 273.01 244.87 272.00 242.00
C 284.20 235.44 298.18 225.54 296.39 209.75 C 294.61 193.96 271.97 191.07 258.00 193.00
C 258.00 177.00 258.00 161.00 258.00 145.00
C 282.55 144.02 312.66 142.54 321.00 170.00
C 324.62 161.53 321.99 150.16 321.00 141.00
M 258.00 244.00 
C 258.00 229.67 258.00 215.33 258.00 201.00
C 269.96 198.99 289.87 203.37 287.66 218.68 C 285.45 233.99 271.17 242.72 258.00 244.00 Z"/>
</g>
<g fill="#000000" fill-opacity="0.04" stroke="None"><path d="
M 258.00 244.00 
C 271.17 242.72 285.45 233.99 287.66 218.68 C 289.87 203.37 269.96 198.99 258.00 201.00
C 258.00 215.33 258.00 229.67 258.00 244.00 Z"/>
</g>
<g fill="#090807" fill-opacity="0.66" stroke="None"><path d="
M 189.00 263.00 
C 188.41 259.70 178.58 259.86 178.00 263.00
C 186.83 260.68 176.85 276.78 185.00 275.00
C 183.33 270.02 182.52 261.29 189.00 263.00 Z"/>
</g>
<g fill="#0A0806" fill-opacity="0.58" stroke="None"><path d="
M 201.00 262.00 
C 201.33 262.01 201.95 260.98 202.00 261.00
C 199.00 261.00 196.00 261.00 193.00 261.00
C 194.87 265.22 194.19 270.73 193.00 275.00
C 196.00 275.00 199.00 275.00 202.00 275.00
C 196.29 272.20 196.16 269.74 202.00 267.00
C 199.46 265.73 195.61 266.23 197.00 262.00
C 198.33 262.03 199.67 261.96 201.00 262.00 Z"/>
</g>
<g fill="#060404" fill-opacity="0.42" stroke="None"><path d="
M 201.00 262.00 
C 200.94 263.31 200.97 265.64 203.00 265.00
C 203.05 263.37 203.19 262.01 202.00 261.00
C 201.95 260.98 201.33 262.01 201.00 262.00 Z"/>
</g>
<g fill="#0F0D0B" fill-opacity="0.64" stroke="None"><path d="
M 213.00 266.00 
C 212.38 262.38 212.89 259.84 208.00 261.00
C 212.29 265.27 211.96 270.34 208.00 275.00
C 214.41 277.22 210.58 270.75 215.00 270.00
C 215.62 273.62 215.11 276.16 220.00 275.00
C 215.32 270.58 215.73 264.39 221.00 261.00
C 214.19 258.74 217.12 264.59 213.00 266.00 Z"/>
</g>
<g fill="#0D0907" fill-opacity="0.67" stroke="None"><path d="
M 236.00 263.00 
C 235.13 259.69 224.86 259.83 224.00 263.00
C 227.57 262.70 230.08 264.23 229.00 269.00 C 227.92 273.76 227.86 275.69 233.00 275.00
C 229.39 270.83 229.79 261.08 236.00 263.00 Z"/>
</g>
<g fill="#0D0708" fill-opacity="0.62" stroke="None"><path d="
M 257.00 266.00 
C 255.04 264.08 253.25 267.39 251.00 267.00
C 249.33 263.00 253.87 263.89 254.00 261.00
C 251.67 261.00 249.33 261.00 247.00 261.00
C 249.99 264.68 250.07 271.30 247.00 275.00
C 251.54 274.88 259.00 276.61 259.00 270.00
C 256.13 269.52 257.09 267.38 257.00 266.00
M 256.00 269.00 
C 258.05 271.05 253.67 275.17 251.33 272.67 C 248.99 270.16 254.21 267.21 256.00 269.00 Z"/>
</g>
<g fill="#020101" fill-opacity="0.28" stroke="None"><path d="
M 257.00 266.00 
C 256.79 262.96 258.57 261.39 254.00 261.00
C 253.87 263.89 249.33 263.00 251.00 267.00
C 253.25 267.39 255.04 264.08 257.00 266.00 Z"/>
</g>
<g fill="#0E0B09" fill-opacity="0.69" stroke="None"><path d="
M 272.00 272.00 
C 260.07 278.04 272.02 257.81 262.00 261.00
C 264.99 264.68 265.07 271.30 262.00 275.00
C 265.15 274.14 272.66 277.30 272.00 272.00 Z"/>
</g>
<g fill="#0F0C0A" fill-opacity="0.56" stroke="None"><path d="
M 281.00 261.00 
C 272.50 263.51 275.81 277.61 284.92 274.92 C 294.03 272.24 289.15 258.59 281.00 261.00
M 281.00 274.00 
C 277.50 271.02 278.66 260.76 284.67 263.33 C 290.68 265.91 285.66 274.36 281.00 274.00 Z"/>
</g>
<g fill="#020201" fill-opacity="0.34" stroke="None"><path d="
M 304.00 261.00 
C 287.96 256.68 294.32 284.47 307.00 272.00
C 306.31 268.46 308.06 263.82 304.00 261.00 Z"/>
</g>
<g fill="#0E0C0C" fill-opacity="0.64" stroke="None"><path d="
M 319.00 269.00 
C 316.91 265.82 316.32 259.64 311.00 261.00
C 314.08 264.64 313.54 270.77 312.00 275.00
C 318.59 276.34 313.70 269.67 315.00 266.00
C 316.57 267.89 318.34 270.50 319.00 273.00
C 322.86 273.32 321.92 267.98 325.00 267.00
C 326.03 270.35 322.07 276.62 328.00 275.00
C 326.13 270.78 326.81 265.27 328.00 261.00
C 321.18 260.79 324.90 267.61 319.00 269.00 Z"/>
</g>
<g fill="#000000" fill-opacity="0.02" stroke="None"><path d="
M 281.00 274.00 
C 285.66 274.36 290.68 265.91 284.67 263.33 C 278.66 260.76 277.50 271.02 281.00 274.00 Z"/>
</g>
<g fill="#000000" fill-opacity="0.01" stroke="None"><path d="
M 256.00 269.00 
C 254.21 267.21 248.99 270.16 251.33 272.67 C 253.67 275.17 258.05 271.05 256.00 269.00 Z"/>
</g>
<g fill="#0D0B09" fill-opacity="0.93" stroke="None"><path d="
M 206.00 287.00 
C 196.60 285.76 193.67 293.49 190.92 299.92 C 188.17 306.35 180.30 309.86 177.00 316.00
C 198.15 316.40 222.74 320.83 241.00 312.00
C 244.25 317.60 240.95 321.42 239.93 326.93 C 238.90 332.43 231.83 334.00 232.00 339.00
C 244.67 339.00 257.33 339.00 270.00 339.00
C 268.41 333.77 259.28 329.30 260.00 322.00 C 260.71 314.70 255.91 305.73 261.77 300.77 C 267.63 295.81 272.33 293.93 276.00 287.00
C 266.11 285.01 267.11 298.08 259.00 300.00
C 259.00 295.67 259.00 291.33 259.00 287.00
C 253.67 287.00 248.33 287.00 243.00 287.00
C 243.00 294.33 243.00 301.67 243.00 309.00
C 227.15 311.58 206.11 308.95 189.00 308.00
C 194.33 301.66 204.62 296.86 206.00 287.00 Z"/>
</g>
</svg>