<?xml version="1.0" encoding="UTF-8"?>
<svg version="1.1" xmlns="http://www.w3.org/2000/svg" width="430" height="121">
<path d="M0 0 C1.26972656 0.00257812 2.53945313 0.00515625 3.84765625 0.0078125 C5.11480469 0.00523438 6.38195312 0.00265625 7.6875 0 C10.91015625 0.1328125 10.91015625 0.1328125 12.91015625 1.1328125 C12.91015625 3.7728125 12.91015625 6.4128125 12.91015625 9.1328125 C15.88015625 9.1328125 18.85015625 9.1328125 21.91015625 9.1328125 C23.23015625 11.4428125 24.55015625 13.7528125 25.91015625 16.1328125 C26.90917969 16.12121094 27.90820312 16.10960937 28.9375 16.09765625 C30.22785156 16.08863281 31.51820312 16.07960938 32.84765625 16.0703125 C34.13542969 16.05871094 35.42320313 16.04710937 36.75 16.03515625 C39.91015625 16.1328125 39.91015625 16.1328125 40.91015625 17.1328125 C41.00908565 19.29762047 41.03986725 21.46575035 41.03515625 23.6328125 C41.03902344 25.41171875 41.03902344 25.41171875 41.04296875 27.2265625 C40.91015625 30.1328125 40.91015625 30.1328125 39.91015625 31.1328125 C37.5570207 31.20552991 35.20181957 31.21652118 32.84765625 31.1953125 C31.55730469 31.18628906 30.26695313 31.17726563 28.9375 31.16796875 C27.93847656 31.15636719 26.93945312 31.14476563 25.91015625 31.1328125 C25.6059375 31.92042969 25.30171875 32.70804688 24.98828125 33.51953125 C23.88643528 36.19031006 23.28963101 37.51816891 20.91015625 39.1328125 C17.72265625 39.3203125 17.72265625 39.3203125 14.91015625 39.1328125 C14.82765625 39.7309375 14.74515625 40.3290625 14.66015625 40.9453125 C13.70559753 43.7294421 12.33883354 44.56592392 9.91015625 46.1328125 C11.62977041 50.70644598 13.78101673 55.02305732 15.97265625 59.3828125 C16.51889648 60.48109375 16.51889648 60.48109375 17.07617188 61.6015625 C18.65360123 65.09600961 18.65360123 65.09600961 20.91015625 68.1328125 C20.95079457 69.79898365 20.95287725 71.46669345 20.91015625 73.1328125 C19.59015625 73.1328125 18.27015625 73.1328125 16.91015625 73.1328125 C15.30390817 71.1250024 14.1312706 69.36369449 12.91015625 67.1328125 C12.53375 66.44832031 12.15734375 65.76382813 11.76953125 65.05859375 C8.91015625 59.61168574 8.91015625 59.61168574 8.91015625 56.1328125 C8.25015625 56.1328125 7.59015625 56.1328125 6.91015625 56.1328125 C6.58015625 61.7428125 6.25015625 67.3528125 5.91015625 73.1328125 C4.59015625 73.1328125 3.27015625 73.1328125 1.91015625 73.1328125 C1.41515625 63.7278125 1.41515625 63.7278125 0.91015625 54.1328125 C-1.64059571 58.40637782 -1.64059571 58.40637782 -4.17529297 62.68945312 C-5.09321545 64.20437203 -6.08975399 65.67083389 -7.08984375 67.1328125 C-7.74984375 67.1328125 -8.40984375 67.1328125 -9.08984375 67.1328125 C-9.23421875 67.7515625 -9.37859375 68.3703125 -9.52734375 69.0078125 C-10.08984375 71.1328125 -10.08984375 71.1328125 -11.08984375 73.1328125 C-12.73984375 73.1328125 -14.38984375 73.1328125 -16.08984375 73.1328125 C-15.52283111 68.94447916 -14.11656135 66.25411633 -11.77734375 62.7578125 C-9.05488994 58.61811422 -6.49544218 54.46288967 -4.08984375 50.1328125 C-3.42984375 50.1328125 -2.76984375 50.1328125 -2.08984375 50.1328125 C-1.75984375 48.4828125 -1.42984375 46.8328125 -1.08984375 45.1328125 C-2.07984375 45.1328125 -3.06984375 45.1328125 -4.08984375 45.1328125 C-4.08984375 44.4728125 -4.08984375 43.8128125 -4.08984375 43.1328125 C-4.74984375 43.1328125 -5.40984375 43.1328125 -6.08984375 43.1328125 C-6.08984375 41.8128125 -6.08984375 40.4928125 -6.08984375 39.1328125 C-7.18296875 39.2153125 -8.27609375 39.2978125 -9.40234375 39.3828125 C-13.08984375 39.1328125 -13.08984375 39.1328125 -14.79541016 37.43359375 C-16.30289691 34.75412276 -16.47645658 33.12896106 -16.48828125 30.0703125 C-16.49214844 29.10867187 -16.49601562 28.14703125 -16.5 27.15625 C-16.48839844 26.15851562 -16.47679687 25.16078125 -16.46484375 24.1328125 C-16.47644531 23.13507812 -16.48804688 22.13734375 -16.5 21.109375 C-16.49613281 20.14773437 -16.49226563 19.18609375 -16.48828125 18.1953125 C-16.48489746 17.32003906 -16.48151367 16.44476563 -16.47802734 15.54296875 C-16.01179592 12.64822875 -15.08219551 11.2559645 -13.08984375 9.1328125 C-10.32842072 8.60481574 -7.9261883 8.94682269 -5.08984375 9.1328125 C-4.94546875 7.8334375 -4.80109375 6.5340625 -4.65234375 5.1953125 C-4.09464262 0.17600234 -4.09464262 0.17600234 0 0 Z M-4.08984375 20.1328125 C-4.41984375 20.4628125 -4.74984375 20.7928125 -5.08984375 21.1328125 C-5.5915379 23.96354686 -5.5915379 23.96354686 -5.08984375 27.1328125 C-2.75635175 29.96692405 -2.75635175 29.96692405 -0.08984375 32.1328125 C0.24015625 32.4628125 0.57015625 32.7928125 0.91015625 33.1328125 C4.81296175 33.39299953 7.625578 33.36163346 10.91015625 31.1328125 C13.36975625 27.4434125 13.70984595 24.41448442 12.91015625 20.1328125 C11.01366074 16.98622584 11.01366074 16.98622584 7.91015625 15.1328125 C1.93217457 14.06531577 -0.30505695 15.56880489 -4.08984375 20.1328125 Z " fill="#8B5F58" transform="translate(52.08984375,23.8671875)"/>
<path d="M0 0 C1.26972656 0.00257812 2.53945313 0.00515625 3.84765625 0.0078125 C5.11480469 0.00523438 6.38195312 0.00265625 7.6875 0 C10.91015625 0.1328125 10.91015625 0.1328125 12.91015625 1.1328125 C13.32421875 3.19921875 13.32421875 3.19921875 13.53515625 5.6953125 C13.60992187 6.52160156 13.6846875 7.34789062 13.76171875 8.19921875 C13.81070313 8.83730469 13.8596875 9.47539063 13.91015625 10.1328125 C13.25015625 10.1328125 12.59015625 10.1328125 11.91015625 10.1328125 C11.91015625 10.7928125 11.91015625 11.4528125 11.91015625 12.1328125 C12.57015625 12.1328125 13.23015625 12.1328125 13.91015625 12.1328125 C13.58015625 14.1128125 13.25015625 16.0928125 12.91015625 18.1328125 C12.58015625 17.4728125 12.25015625 16.8128125 11.91015625 16.1328125 C4.42715355 15.4402792 4.42715355 15.4402792 -2.27734375 18.2578125 C-4.41304576 21.64547776 -4.84171992 23.20634805 -4.08984375 27.1328125 C-2.27724243 29.36213074 -2.27724243 29.36213074 -0.08984375 31.1328125 C0.57015625 32.1228125 1.23015625 33.1128125 1.91015625 34.1328125 C3.96940764 34.85663717 3.96940764 34.85663717 5.91015625 35.1328125 C5.54921875 35.60332031 5.18828125 36.07382812 4.81640625 36.55859375 C4.35234375 37.18121094 3.88828125 37.80382813 3.41015625 38.4453125 C2.7140625 39.36763672 2.7140625 39.36763672 2.00390625 40.30859375 C0.65304342 42.20714255 0.65304342 42.20714255 0.91015625 45.1328125 C0.25015625 44.8028125 -0.40984375 44.4728125 -1.08984375 44.1328125 C-1.08984375 43.4728125 -1.08984375 42.8128125 -1.08984375 42.1328125 C-2.40984375 41.8028125 -3.72984375 41.4728125 -5.08984375 41.1328125 C-4.59484375 40.6378125 -4.59484375 40.6378125 -4.08984375 40.1328125 C-4.70472656 40.10703125 -5.31960937 40.08125 -5.953125 40.0546875 C-7.16548828 39.96960937 -7.16548828 39.96960937 -8.40234375 39.8828125 C-9.20285156 39.83640625 -10.00335938 39.79 -10.828125 39.7421875 C-13.85164268 38.92756097 -14.48199265 37.78050377 -16.08984375 35.1328125 C-16.47802734 32.72265625 -16.47802734 32.72265625 -16.48828125 30.0703125 C-16.49214844 29.10867187 -16.49601562 28.14703125 -16.5 27.15625 C-16.48839844 26.15851562 -16.47679687 25.16078125 -16.46484375 24.1328125 C-16.47644531 23.13507812 -16.48804688 22.13734375 -16.5 21.109375 C-16.49613281 20.14773437 -16.49226563 19.18609375 -16.48828125 18.1953125 C-16.48489746 17.32003906 -16.48151367 16.44476563 -16.47802734 15.54296875 C-16.01179592 12.64822875 -15.08219551 11.2559645 -13.08984375 9.1328125 C-10.32842072 8.60481574 -7.9261883 8.94682269 -5.08984375 9.1328125 C-4.94546875 7.8334375 -4.80109375 6.5340625 -4.65234375 5.1953125 C-4.09464262 0.17600234 -4.09464262 0.17600234 0 0 Z " fill="#773C3F" transform="translate(52.08984375,23.8671875)"/>
<path d="M0 0 C2.12540846 0 4.2510478 -0.0463351 6.375 -0.125 C10 0 10 0 12.75 1.125 C13.4925 1.41375 14.235 1.7025 15 2 C15.99 1.34 16.98 0.68 18 0 C21.4096578 -0.30996889 23.99109544 -0.44677443 27.15234375 0.953125 C30.08307831 4.19985842 29.85307274 7.82109791 30.125 12.0625 C30.24477213 13.69981052 30.3720288 15.33659578 30.5078125 16.97265625 C30.55566895 17.69718994 30.60352539 18.42172363 30.65283203 19.16821289 C30.86805888 21.24343861 30.86805888 21.24343861 33 23 C33 24.32 33 25.64 33 27 C29.04 27 25.08 27 21 27 C21 25.68 21 24.36 21 23 C21.99 23 22.98 23 24 23 C23.88630789 20.54066009 23.75957349 18.0832091 23.625 15.625 C23.5940625 14.92632812 23.563125 14.22765625 23.53125 13.5078125 C23.40500502 9.29814173 23.40500502 9.29814173 21 6 C18.21762345 6.40528901 18.21762345 6.40528901 16 8 C15.92728259 10.35313555 15.91629132 12.70833668 15.9375 15.0625 C15.94652344 16.35285156 15.95554687 17.64320312 15.96484375 18.97265625 C15.97644531 19.97167969 15.98804688 20.97070312 16 22 C16.66 22.33 17.32 22.66 18 23 C18 24.32 18 25.64 18 27 C14.04 27 10.08 27 6 27 C6 25.68 6 24.36 6 23 C6.99 23 7.98 23 9 23 C8.67 17.39 8.34 11.78 8 6 C5.69 6.33 3.38 6.66 1 7 C1 11.95 1 16.9 1 22 C1.66 22.33 2.32 22.66 3 23 C3 24.32 3 25.64 3 27 C-1.29 27 -5.58 27 -10 27 C-9.67 25.68 -9.34 24.36 -9 23 C-8.01 23 -7.02 23 -6 23 C-6 17.06 -6 11.12 -6 5 C-7.32 5 -8.64 5 -10 5 C-10 3.68 -10 2.36 -10 1 C-6.61118982 -0.04271083 -3.53109033 -0.07512958 0 0 Z " fill="#655656" transform="translate(292,47)"/>
<path d="M0 0 C1.99963028 0.03845443 4.00051633 0.04544281 6 0 C6.1875 2.375 6.1875 2.375 6 5 C5.01 5.66 4.02 6.32 3 7 C2.17731258 8.85537896 2.17731258 8.85537896 1.625 10.9375 C0.6011202 13.84552973 0.12044172 14.8929407 -2.25 17 C-5.6274313 18.22815684 -8.43395586 18.2097673 -12 18 C-11.67 18.99 -11.34 19.98 -11 21 C-10.01257813 21.02578125 -9.02515625 21.0515625 -8.0078125 21.078125 C-6.72648437 21.13484375 -5.44515625 21.1915625 -4.125 21.25 C-2.84882813 21.29640625 -1.57265625 21.3428125 -0.2578125 21.390625 C3 22 3 22 4.453125 23.859375 C5.23721883 26.92854227 4.88437749 28.9678486 4 32 C1.22433365 35.70088846 -1.53206679 36.98839248 -6 38 C-10.80057381 38.40074355 -14.81167988 38.65083552 -19 36 C-21.17175481 32.74236778 -21.46043998 31.77560787 -21 28 C-20.2265625 26.9790625 -20.2265625 26.9790625 -19.4375 25.9375 C-18.963125 25.298125 -18.48875 24.65875 -18 24 C-18.29369827 22.65737935 -18.6278958 21.32303717 -19 20 C-18.0625 17.75 -18.0625 17.75 -17 16 C-17.66 15.34 -18.32 14.68 -19 14 C-19.74814884 9.03859193 -20.0492007 4.50385434 -17.125 0.3125 C-11.46798915 -2.06344456 -5.83993991 -1.49309804 0 0 Z M-11 3 C-13.41121859 4.95633975 -13.41121859 4.95633975 -13.125 8.625 C-13.08375 9.73875 -13.0425 10.8525 -13 12 C-10.525 12.99 -10.525 12.99 -8 14 C-6.29264699 12.96431405 -6.29264699 12.96431405 -5 11 C-5.23477199 7.35458155 -5.23477199 7.35458155 -6 4 C-8.39719432 3.32041397 -8.39719432 3.32041397 -11 3 Z M-13 27 C-13.38218767 28.65614657 -13.71395102 30.32457024 -14 32 C-12.43022426 33.56977574 -10.85803613 33.20737081 -8.6875 33.25 C-5.60279982 33.22052834 -4.20194131 33.10835875 -1.4375 31.625 C0.22085796 30.11192937 0.22085796 30.11192937 0 28 C-2.64458379 26.67770811 -4.67761301 26.90322806 -7.625 26.9375 C-9.12933594 26.95103516 -9.12933594 26.95103516 -10.6640625 26.96484375 C-11.82035156 26.98224609 -11.82035156 26.98224609 -13 27 Z " fill="#4C3939" transform="translate(373,48)"/>
<path d="M0 0 C1.32 2.31 2.64 4.62 4 7 C4.99902344 6.98839844 5.99804688 6.97679687 7.02734375 6.96484375 C8.31769531 6.95582031 9.60804687 6.94679688 10.9375 6.9375 C12.22527344 6.92589844 13.51304688 6.91429687 14.83984375 6.90234375 C18 7 18 7 19 8 C19.0989294 10.16480797 19.129711 12.33293785 19.125 14.5 C19.12886719 16.27890625 19.12886719 16.27890625 19.1328125 18.09375 C19 21 19 21 18 22 C15.64686445 22.07271741 13.29166332 22.08370868 10.9375 22.0625 C9.64714844 22.05347656 8.35679688 22.04445313 7.02734375 22.03515625 C6.02832031 22.02355469 5.02929688 22.01195313 4 22 C3.54560547 23.18142578 3.54560547 23.18142578 3.08203125 24.38671875 C1.98899717 27.02657361 1.32347807 28.36495988 -1 30 C-4.74849077 30.46856135 -5.76746204 30.15502531 -9 28 C-9.04165763 26.00043389 -9.04165763 23.99956611 -9 22 C-9.66 21.34 -10.32 20.68 -11 20 C-10.67 19.67 -10.34 19.34 -10 19 C-9.78673597 13.3952291 -9.78673597 13.3952291 -11 8 C-11.99 7.67 -12.98 7.34 -14 7 C-12 6 -12 6 -9 6 C-8.67 5.01 -8.34 4.02 -8 3 C-8.66 3 -9.32 3 -10 3 C-10 2.34 -10 1.68 -10 1 C-6.78548731 -0.60725635 -3.56387464 -0.05748185 0 0 Z " fill="#A28075" transform="translate(74,33)"/>
<path d="M0 0 C0.33 6.93 0.66 13.86 1 21 C1.66 21 2.32 21 3 21 C3 20.34 3 19.68 3 19 C3.66 19 4.32 19 5 19 C5 16.69 5 14.38 5 12 C8.96 12 12.92 12 17 12 C17 13.32 17 14.64 17 16 C16.236875 16.268125 15.47375 16.53625 14.6875 16.8125 C12.12619116 17.94424112 10.80307062 18.91223401 9 21 C10.31707429 25.60976 12.07495169 29.18857342 15 33 C16.485 33.495 16.485 33.495 18 34 C18 35.32 18 36.64 18 38 C13.06735751 38.96891192 13.06735751 38.96891192 10 38 C6.83131402 34.64397616 4.40002153 30.93195016 2 27 C1.34 29.31 0.68 31.62 0 34 C1.32 34 2.64 34 4 34 C3.67 35.32 3.34 36.64 3 38 C-1.29 38 -5.58 38 -10 38 C-10 36.68 -10 35.36 -10 34 C-8.68 34 -7.36 34 -6 34 C-6 24.43 -6 14.86 -6 5 C-7.32 5 -8.64 5 -10 5 C-9.67 3.68 -9.34 2.36 -9 1 C-5.846632 0.29925156 -3.27275026 0 0 0 Z " fill="#514040" transform="translate(168,36)"/>
<path d="M0 0 C2.01202592 0 4.02582672 -0.00133843 6.03515625 -0.10546875 C11.44160913 -0.32422696 11.44160913 -0.32422696 13.9375 1.125 C16.53016166 5.70028529 16.11070252 11.26553312 16.0625 16.375 C16.05347656 17.62023437 16.04445312 18.86546875 16.03515625 20.1484375 C16.02355469 21.08945313 16.01195312 22.03046875 16 23 C16.99 23 17.98 23 19 23 C19 24.32 19 25.64 19 27 C15.04 27 11.08 27 7 27 C7 25.68 7 24.36 7 23 C7.99 23 8.98 23 10 23 C9.67 17.39 9.34 11.78 9 6 C4.545 6.495 4.545 6.495 0 7 C0 12.28 0 17.56 0 23 C1.32 23 2.64 23 4 23 C4 24.32 4 25.64 4 27 C-0.62 27 -5.24 27 -10 27 C-9.67 25.68 -9.34 24.36 -9 23 C-8.01 23 -7.02 23 -6 23 C-6 17.06 -6 11.12 -6 5 C-7.32 5 -8.64 5 -10 5 C-10 3.68 -10 2.36 -10 1 C-6.60798252 -0.04369769 -3.53470705 -0.07363973 0 0 Z " fill="#33211E" transform="translate(138,47)"/>
<path d="M0 0 C2.34215505 1.32382676 3.66490661 2.20845508 4.72265625 4.70703125 C5.2075441 8.71589277 5.36291466 12.74282366 5.51757812 16.77539062 C5.60859923 18.52196538 5.79674533 20.26290594 6 22 C6.66 22.33 7.32 22.66 8 23 C8 24.32 8 25.64 8 27 C3.66666667 27 -0.66666667 27 -5 27 C-5.67160156 27.05800781 -6.34320313 27.11601563 -7.03515625 27.17578125 C-9.0625 27.3125 -9.0625 27.3125 -13 27 C-15.86058157 24.13941843 -15.98619613 22.40031223 -16.125 18.375 C-15 15 -15 15 -11.875 13.0625 C-8.23832799 11.82768797 -4.8306036 11.76547325 -1 12 C-1.33 9.69 -1.66 7.38 -2 5 C-4.31 5 -6.62 5 -9 5 C-9.33 6.65 -9.66 8.3 -10 10 C-11.65 9.67 -13.3 9.34 -15 9 C-15 6.69 -15 4.38 -15 2 C-10.33185446 -0.48967762 -5.1708946 -0.78194016 0 0 Z M-2 15 C-4.31 15.66 -6.62 16.32 -9 17 C-8.67 18.98 -8.34 20.96 -8 23 C-5.64035727 22.59316505 -4.14065912 22.10185661 -2.1875 20.6875 C-0.73941863 19.03926569 -0.73941863 19.03926569 -1.3125 16.8125 C-1.6528125 15.9153125 -1.6528125 15.9153125 -2 15 Z " fill="#60524F" transform="translate(343,47)"/>
<path d="M0 0 C3.36539571 2.8846249 5.77797431 5.5667643 6.57421875 10.0546875 C6.83846054 15.4670884 5.79711016 18.66378814 2.1875 22.875 C-1.01851744 25.82901607 -3.11530455 26.24150123 -7.4375 26.125 C-8.39914063 26.10953125 -9.36078125 26.0940625 -10.3515625 26.078125 C-12.8125 25.875 -12.8125 25.875 -14.8125 24.875 C-14.8125 24.215 -14.8125 23.555 -14.8125 22.875 C-15.4725 22.875 -16.1325 22.875 -16.8125 22.875 C-16.8125 22.215 -16.8125 21.555 -16.8125 20.875 C-17.4725 20.875 -18.1325 20.875 -18.8125 20.875 C-21.47130802 11.36832671 -21.47130802 11.36832671 -19.625 7 C-15.01590934 -0.94670803 -8.9714637 -3.58858548 0 0 Z M-11.8125 3.875 C-14.4745633 7.95742594 -14.48345971 12.16150801 -13.8125 16.875 C-12.39579289 20.02349606 -12.39579289 20.02349606 -9.8125 21.875 C-6.64401973 22.29309201 -6.64401973 22.29309201 -3.8125 21.875 C-3.8125 21.215 -3.8125 20.555 -3.8125 19.875 C-3.1525 19.875 -2.4925 19.875 -1.8125 19.875 C0.41994396 15.54143232 0.44554803 12.57171265 -0.8125 7.875 C-3.04226163 4.89380459 -3.04226163 4.89380459 -5.8125 2.875 C-8.86520463 2.71688612 -8.86520463 2.71688612 -11.8125 3.875 Z " fill="#534242" transform="translate(241.8125,48.125)"/>
<path d="M0 0 C0.7734375 -0.01417969 1.546875 -0.02835938 2.34375 -0.04296875 C4.5 0.1875 4.5 0.1875 7.5 2.1875 C7.5 2.8475 7.5 3.5075 7.5 4.1875 C8.16 4.1875 8.82 4.1875 9.5 4.1875 C9.83 7.4875 10.16 10.7875 10.5 14.1875 C4.89 14.1875 -0.72 14.1875 -6.5 14.1875 C-4.16151858 20.10481018 -4.16151858 20.10481018 -0.5 22.1875 C2.0254223 22.2130089 2.0254223 22.2130089 4.6875 21.8125 C5.58855469 21.70164062 6.48960937 21.59078125 7.41796875 21.4765625 C8.10503906 21.38117188 8.79210937 21.28578125 9.5 21.1875 C9.1875 23.0625 9.1875 23.0625 8.5 25.1875 C5.17783762 27.40227492 3.94966677 27.48417707 0.0625 27.5 C-0.88496094 27.51675781 -1.83242188 27.53351563 -2.80859375 27.55078125 C-5.89829676 27.13373861 -7.27956094 26.34494788 -9.5 24.1875 C-9.5 23.5275 -9.5 22.8675 -9.5 22.1875 C-10.16 22.1875 -10.82 22.1875 -11.5 22.1875 C-13.46824031 16.19781906 -13.6835354 12.08115888 -11.51953125 6.1328125 C-8.89244197 1.12020537 -5.46740182 0.04556168 0 0 Z M-1.5 4.1875 C-3.77144074 6.04182087 -3.77144074 6.04182087 -5.5 8.1875 C-5.17 8.8475 -4.84 9.5075 -4.5 10.1875 C-1.86 10.1875 0.78 10.1875 3.5 10.1875 C3.17 8.5375 2.84 6.8875 2.5 5.1875 C0.71858253 4.32391377 0.71858253 4.32391377 -1.5 4.1875 Z " fill="#534242" transform="translate(393.5,46.8125)"/>
<path d="M0 0 C1.32 0 2.64 0 4 0 C4 1.98 4 3.96 4 6 C6.64 6 9.28 6 12 6 C12 7.32 12 8.64 12 10 C9.36 10 6.72 10 4 10 C4.33 15.94 4.66 21.88 5 28 C6.32 27.34 7.64 26.68 9 26 C9.99 26 10.98 26 12 26 C12 27.32 12 28.64 12 30 C5.88433982 33.1801433 5.88433982 33.1801433 1.625 32.3125 C-1 31 -1 31 -2 29 C-2.08342159 27.55151418 -2.10732861 26.09929131 -2.09765625 24.6484375 C-2.09443359 23.79765625 -2.09121094 22.946875 -2.08789062 22.0703125 C-2.07951172 21.18085937 -2.07113281 20.29140625 -2.0625 19.375 C-2.05798828 18.4778125 -2.05347656 17.580625 -2.04882812 16.65625 C-2.03702591 14.43743352 -2.02056155 12.21874982 -2 10 C-3.32 9.67 -4.64 9.34 -6 9 C-5.38125 8.443125 -4.7625 7.88625 -4.125 7.3125 C-1.93893621 4.93354822 -1.01214301 3.03642904 0 0 Z " fill="#6B5E5D" transform="translate(208,42)"/>
<path d="M0 0 C0 0.33 0 0.66 0 1 C-1.5778125 1.0928125 -1.5778125 1.0928125 -3.1875 1.1875 C-7.72732031 2.15500269 -9.27332387 3.28180527 -12 7 C-12.75015195 10.04308291 -12.75015195 10.04308291 -12 13 C-10.18739868 15.22931824 -10.18739868 15.22931824 -8 17 C-7.34 17.99 -6.68 18.98 -6 20 C-3.94074861 20.72382467 -3.94074861 20.72382467 -2 21 C-2.3609375 21.47050781 -2.721875 21.94101562 -3.09375 22.42578125 C-3.5578125 23.04839844 -4.021875 23.67101562 -4.5 24.3125 C-5.19609375 25.23482422 -5.19609375 25.23482422 -5.90625 26.17578125 C-7.25711283 28.07433005 -7.25711283 28.07433005 -7 31 C-7.66 30.67 -8.32 30.34 -9 30 C-9 29.34 -9 28.68 -9 28 C-10.32 27.67 -11.64 27.34 -13 27 C-12.67 26.67 -12.34 26.34 -12 26 C-12.92232422 25.96132813 -12.92232422 25.96132813 -13.86328125 25.921875 C-14.67152344 25.86515625 -15.47976562 25.8084375 -16.3125 25.75 C-17.11300781 25.70359375 -17.91351563 25.6571875 -18.73828125 25.609375 C-21.76575913 24.79368148 -22.39951982 23.65838623 -24 21 C-24.34057617 18.52636719 -24.34057617 18.52636719 -24.29296875 15.796875 C-24.28330078 14.8171875 -24.27363281 13.8375 -24.26367188 12.828125 C-24.2259668 11.30445313 -24.2259668 11.30445313 -24.1875 9.75 C-24.17396484 8.71875 -24.16042969 7.6875 -24.14648438 6.625 C-24.11117607 4.08280208 -24.06186036 1.54166777 -24 -1 C-23.67 -1 -23.34 -1 -23 -1 C-23 5.93 -23 12.86 -23 20 C-21.68 20 -20.36 20 -19 20 C-17.04843191 14.3794839 -15.37370928 8.78920338 -14 3 C-13.66831572 1.66625549 -13.33540977 0.33281251 -13 -1 C-8.15507803 -2.51403812 -4.7408989 -1.36602172 0 0 Z " fill="#835355" transform="translate(60,38)"/>
<path d="M0 0 C0 7.59 0 15.18 0 23 C1.32 23 2.64 23 4 23 C4 24.32 4 25.64 4 27 C-0.62 27 -5.24 27 -10 27 C-9.67 25.68 -9.34 24.36 -9 23 C-8.01 23 -7.02 23 -6 23 C-6 17.06 -6 11.12 -6 5 C-7.32 5 -8.64 5 -10 5 C-10 3.68 -10 2.36 -10 1 C-6.37900892 -0.1141511 -4.08844645 0 0 0 Z " fill="#3F2E2C" transform="translate(123,47)"/>
<path d="M0 0 C0.33 7.26 0.66 14.52 1 22 C1.66 22.33 2.32 22.66 3 23 C3 24.32 3 25.64 3 27 C-1.29 27 -5.58 27 -10 27 C-9.67 25.68 -9.34 24.36 -9 23 C-8.01 23 -7.02 23 -6 23 C-6 17.06 -6 11.12 -6 5 C-7.32 5 -8.64 5 -10 5 C-10 3.68 -10 2.36 -10 1 C-6.37900892 -0.1141511 -4.08844645 0 0 0 Z " fill="#402F2F" transform="translate(277,47)"/>
<path d="M0 0 C1.23556641 0.01740234 1.23556641 0.01740234 2.49609375 0.03515625 C3.32238281 0.04417969 4.14867187 0.05320313 5 0.0625 C5.63808594 0.07410156 6.27617188 0.08570313 6.93359375 0.09765625 C6.60359375 2.40765625 6.27359375 4.71765625 5.93359375 7.09765625 C6.59359375 7.42765625 7.25359375 7.75765625 7.93359375 8.09765625 C6.94359375 8.59265625 6.94359375 8.59265625 5.93359375 9.09765625 C5.39052589 11.47891793 5.39052589 11.47891793 5.05859375 14.28515625 C4.25607759 19.2555789 3.08524556 22.21061901 -0.06640625 26.09765625 C-0.39640625 25.43765625 -0.72640625 24.77765625 -1.06640625 24.09765625 C-1.72640625 24.09765625 -2.38640625 24.09765625 -3.06640625 24.09765625 C-3.09527861 20.28517199 -3.11316117 16.47271555 -3.12890625 12.66015625 C-3.13728516 11.57154297 -3.14566406 10.48292969 -3.15429688 9.36132812 C-3.15751953 8.32685547 -3.16074219 7.29238281 -3.1640625 6.2265625 C-3.16929932 5.2682251 -3.17453613 4.3098877 -3.17993164 3.32250977 C-3.03178558 0.41916553 -2.90378825 0.13723007 0 0 Z " fill="#6A2A32" transform="translate(40.06640625,33.90234375)"/>
<path d="M0 0 C2.97 0 5.94 0 9 0 C11.18898702 4.37797404 11.32511883 5.45673544 10 10 C7.22433365 13.70088846 4.46793321 14.98839248 0 16 C-4.80057381 16.40074355 -8.81167988 16.65083552 -13 14 C-15.14915785 10.77626323 -15.38286803 9.73296326 -15 6 C-14.34 5.34 -13.68 4.68 -13 4 C-12.01 4 -11.02 4 -10 4 C-9.87625 4.61875 -9.7525 5.2375 -9.625 5.875 C-9.12802644 8.19120832 -9.12802644 8.19120832 -7 10 C-3.96383751 10.50407331 -1.04001922 10.46437239 2 10 C4.56990998 8.18735352 4.56990998 8.18735352 6 6 C5.34 5.67 4.68 5.34 4 5 C4.66 3.68 5.32 2.36 6 1 C4.02 1 2.04 1 0 1 C0 0.67 0 0.34 0 0 Z " fill="#544342" transform="translate(367,70)"/>
<path d="M0 0 C2.5789516 1.75000287 2.97106637 2.89539379 3.8125 5.9375 C4.01312396 9.21435803 3.83535601 10.34707632 2 13 C-0.05859375 13.6796875 -0.05859375 13.6796875 -2.4375 13.875 C-3.21996094 13.95492187 -4.00242187 14.03484375 -4.80859375 14.1171875 C-7 14 -7 14 -10 12 C-10.8166726 8.60766767 -11.31716114 6.06681474 -10.3125 2.6875 C-7.35243703 -1.11829525 -4.46866928 -1.48955643 0 0 Z " fill="#835050" transform="translate(60,41)"/>
<path d="M0 0 C0.33 7.92 0.66 15.84 1 24 C0.34 24 -0.32 24 -1 24 C-1.33 17.73 -1.66 11.46 -2 5 C-2.99 5.495 -2.99 5.495 -4 6 C-4 13.92 -4 21.84 -4 30 C-2.68 29.34 -1.36 28.68 0 28 C0 29.98 0 31.96 0 34 C1.32 34 2.64 34 4 34 C3.67 35.32 3.34 36.64 3 38 C-1.29 38 -5.58 38 -10 38 C-10 36.68 -10 35.36 -10 34 C-8.68 34 -7.36 34 -6 34 C-6 24.43 -6 14.86 -6 5 C-7.32 5 -8.64 5 -10 5 C-9.67 3.68 -9.34 2.36 -9 1 C-5.846632 0.29925156 -3.27275026 0 0 0 Z " fill="#796A6A" transform="translate(168,36)"/>
<path d="M0 0 C-0.66 0 -1.32 0 -2 0 C-2 0.66 -2 1.32 -2 2 C-0.68 2.33 0.64 2.66 2 3 C-0.31 3.33 -2.62 3.66 -5 4 C-4.67 5.98 -4.34 7.96 -4 10 C-2.02 9.34 -0.04 8.68 2 8 C2.33 6.02 2.66 4.04 3 2 C3.33 2 3.66 2 4 2 C3.67 4.31 3.34 6.62 3 9 C3.66 9.33 4.32 9.66 5 10 C4.67 10.99 4.34 11.98 4 13 C6.31 13 8.62 13 11 13 C11 13.33 11 13.66 11 14 C7 14 3 14 -1 14 C-2.00740234 14.08701172 -2.00740234 14.08701172 -3.03515625 14.17578125 C-5.0625 14.3125 -5.0625 14.3125 -9 14 C-11.86058157 11.13941843 -11.98619613 9.40031223 -12.125 5.375 C-11 2 -11 2 -7.6875 0 C-2.9313632 -1.28979981 -2.9313632 -1.28979981 0 0 Z " fill="#594B4B" transform="translate(339,60)"/>
<path d="M0 0 C0.99 0.33 1.98 0.66 3 1 C3.859375 2.78515625 3.859375 2.78515625 4 5 C2.890625 7.18359375 2.890625 7.18359375 1.25 9.4375 C-0.5454275 11.95608579 -2.21262587 14.37209527 -3.75 17.0625 C-4.1625 17.701875 -4.575 18.34125 -5 19 C-5.66 19 -6.32 19 -7 19 C-7.144375 19.61875 -7.28875 20.2375 -7.4375 20.875 C-8 23 -8 23 -9 25 C-10.65 25 -12.3 25 -14 25 C-13.43298736 20.81166666 -12.0267176 18.12130383 -9.6875 14.625 C-6.96504619 10.48530172 -4.40559843 6.33007717 -2 2 C-1.34 2 -0.68 2 0 2 C0 1.34 0 0.68 0 0 Z " fill="#906968" transform="translate(50,72)"/>
<path d="M0 0 C0.33 0 0.66 0 1 0 C1.03738281 0.60328125 1.07476562 1.2065625 1.11328125 1.828125 C1.40238493 5.34271878 1.66440488 8.29348395 3.1875 11.5 C5.66384592 13.54938973 7.84961526 13.7199658 11 14 C11 13.34 11 12.68 11 12 C11.66 12 12.32 12 13 12 C13.33 11.34 13.66 10.68 14 10 C16.475 10.495 16.475 10.495 19 11 C17.59450287 14.39661806 16.14627794 16.09169053 13 18 C10.2734375 18.328125 10.2734375 18.328125 7.375 18.25 C6.41335937 18.23453125 5.45171875 18.2190625 4.4609375 18.203125 C2 18 2 18 0 17 C0 16.34 0 15.68 0 15 C-0.66 15 -1.32 15 -2 15 C-2 14.34 -2 13.68 -2 13 C-2.66 13 -3.32 13 -4 13 C-4.66 9.7 -5.32 6.4 -6 3 C-5.34 3 -4.68 3 -4 3 C-4 5.31 -4 7.62 -4 10 C-2.68 9.67 -1.36 9.34 0 9 C0 6.03 0 3.06 0 0 Z " fill="#4C3E3E" transform="translate(227,56)"/>
<path d="M0 0 C2.26286569 2.08280107 3.67273946 3.99353106 5.0078125 6.7578125 C5.52794922 7.81935547 5.52794922 7.81935547 6.05859375 8.90234375 C6.41050781 9.63582031 6.76242188 10.36929688 7.125 11.125 C9.12128913 15.87742337 9.12128913 15.87742337 12 20 C12.04063832 21.66617115 12.042721 23.33388095 12 25 C10.68 25 9.36 25 8 25 C6.39375192 22.9921899 5.22111435 21.23088199 4 19 C3.62359375 18.31550781 3.2471875 17.63101563 2.859375 16.92578125 C0 11.47887324 0 11.47887324 0 8 C-0.66 8 -1.32 8 -2 8 C-2.33 7.01 -2.66 6.02 -3 5 C-1.5625 2.3125 -1.5625 2.3125 0 0 Z " fill="#B49C90" transform="translate(61,72)"/>
<path d="M0 0 C0.66 0.33 1.32 0.66 2 1 C2 7.27 2 13.54 2 20 C2.66 20 3.32 20 4 20 C4 19.01 4 18.02 4 17 C5.32 16.67 6.64 16.34 8 16 C7.67 17.65 7.34 19.3 7 21 C6.34 21 5.68 21 5 21 C4.67 21.99 4.34 22.98 4 24 C3.34 24 2.68 24 2 24 C1.67 24.66 1.34 25.32 1 26 C0.01 26.33 -0.98 26.66 -2 27 C-2.05784708 22.87505849 -2.09354407 18.75022056 -2.125 14.625 C-2.14175781 13.449375 -2.15851563 12.27375 -2.17578125 11.0625 C-2.18222656 9.94101562 -2.18867188 8.81953125 -2.1953125 7.6640625 C-2.20578613 6.62717285 -2.21625977 5.5902832 -2.22705078 4.52197266 C-2 2 -2 2 0 0 Z " fill="#342321" transform="translate(165,40)"/>
<path d="M0 0 C1.32 0 2.64 0 4 0 C4 4.95 4 9.9 4 15 C5.32 15.66 6.64 16.32 8 17 C8 18.32 8 19.64 8 21 C3.71 21 -0.58 21 -5 21 C-5 20.01 -5 19.02 -5 18 C-3.35 18 -1.7 18 0 18 C0 12.06 0 6.12 0 0 Z " fill="#433332" transform="translate(287,53)"/>
<path d="M0 0 C0.66 0 1.32 0 2 0 C2.03738281 0.90363281 2.07476562 1.80726562 2.11328125 2.73828125 C2.21189453 4.50751953 2.21189453 4.50751953 2.3125 6.3125 C2.37050781 7.48425781 2.42851562 8.65601563 2.48828125 9.86328125 C3.04443839 13.27239713 3.57898956 13.78669018 6 16 C6 17.32 6 18.64 6 20 C2.04 20 -1.92 20 -6 20 C-6 18.68 -6 17.36 -6 16 C-4.68 16 -3.36 16 -2 16 C-2.02320313 15.01257813 -2.04640625 14.02515625 -2.0703125 13.0078125 C-2.08835937 11.72648437 -2.10640625 10.44515625 -2.125 9.125 C-2.14820313 7.84882812 -2.17140625 6.57265625 -2.1953125 5.2578125 C-2 2 -2 2 0 0 Z " fill="#443334" transform="translate(304,54)"/>
<path d="M0 0 C0.66 0 1.32 0 2 0 C2.21398437 0.63421875 2.42796875 1.2684375 2.6484375 1.921875 C3.85438953 4.25613111 3.85438953 4.25613111 6.6015625 4.828125 C7.59929687 4.96734375 8.59703125 5.1065625 9.625 5.25 C11.12933594 5.47429687 11.12933594 5.47429687 12.6640625 5.703125 C13.43492187 5.80109375 14.20578125 5.8990625 15 6 C14.67 7.32 14.34 8.64 14 10 C13.16855469 10.02578125 12.33710938 10.0515625 11.48046875 10.078125 C10.39378906 10.13484375 9.30710937 10.1915625 8.1875 10.25 C6.56908203 10.31960937 6.56908203 10.31960937 4.91796875 10.390625 C1.88255768 10.72954022 1.88255768 10.72954022 0.11328125 13.046875 C-0.25410156 13.69140625 -0.62148438 14.3359375 -1 15 C-2.125 11.25 -2.125 11.25 -1 9 C-1.66 8.67 -2.32 8.34 -3 8 C-1.125 1.125 -1.125 1.125 0 0 Z " fill="#493939" transform="translate(358,65)"/>
<path d="M0 0 C0.33 0.99 0.66 1.98 1 3 C3.31 3 5.62 3 8 3 C8.33 3.99 8.66 4.98 9 6 C6.36 6 3.72 6 1 6 C1 11.94 1 17.88 1 24 C-0.32 24.33 -1.64 24.66 -3 25 C-3.08156437 22.14524694 -3.14076372 19.29286435 -3.1875 16.4375 C-3.21263672 15.63763672 -3.23777344 14.83777344 -3.26367188 14.01367188 C-3.33054885 8.55205195 -2.4909519 4.87075897 0 0 Z " fill="#342121" transform="translate(210,45)"/>
<path d="M0 0 C1.32 0.33 2.64 0.66 4 1 C4.12117188 1.85464844 4.24234375 2.70929687 4.3671875 3.58984375 C4.53476562 4.69457031 4.70234375 5.79929687 4.875 6.9375 C5.11863281 8.59072266 5.11863281 8.59072266 5.3671875 10.27734375 C5.68042969 11.62505859 5.68042969 11.62505859 6 13 C6.66 13.33 7.32 13.66 8 14 C7.67 15.32 7.34 16.64 7 18 C4.69 17.67 2.38 17.34 0 17 C-0.84098656 12.98195309 -1.05404945 9.98196457 0 6 C-1.98 6 -3.96 6 -6 6 C-6 5.34 -6 4.68 -6 4 C-4.02 3.67 -2.04 3.34 0 3 C0 2.01 0 1.02 0 0 Z " fill="#362424" transform="translate(343,56)"/>
<path d="M0 0 C-0.33 0.66 -0.66 1.32 -1 2 C-1.99 1.67 -2.98 1.34 -4 1 C-4.33 7.6 -4.66 14.2 -5 21 C-3.68 21.33 -2.36 21.66 -1 22 C-1 22.66 -1 23.32 -1 24 C-0.01 24 0.98 24 2 24 C2.33 24.99 2.66 25.98 3 27 C-1.29 27 -5.58 27 -10 27 C-9.67 25.68 -9.34 24.36 -9 23 C-8.01 23 -7.02 23 -6 23 C-6 17.06 -6 11.12 -6 5 C-7.32 5 -8.64 5 -10 5 C-10 3.68 -10 2.36 -10 1 C-6.61981469 -0.04005702 -3.5219721 -0.08004482 0 0 Z " fill="#554746" transform="translate(277,47)"/>
<path d="M0 0 C0.99 0.33 1.98 0.66 3 1 C2.95875 1.763125 2.9175 2.52625 2.875 3.3125 C2.77919176 6.22718416 2.77919176 6.22718416 5 9 C2.375 13.875 2.375 13.875 -1 15 C-1 13.35 -1 11.7 -1 10 C-2.65 10 -4.3 10 -6 10 C-5.01 8.68 -4.02 7.36 -3 6 C-5.46278801 4.768606 -7.2795055 4.92840804 -10 5 C-10 4.01 -10 3.02 -10 2 C-9.0925 2.04125 -8.185 2.0825 -7.25 2.125 C-4.0398182 2.00153147 -2.75469626 1.4248429 0 0 Z " fill="#986F6C" transform="translate(63,54)"/>
<path d="M0 0 C1.0828125 1.2065625 1.0828125 1.2065625 2.1875 2.4375 C5.10865399 5.09899586 6.14868883 5.81213116 10 6 C13.22111592 5.61666338 13.22111592 5.61666338 16 5 C15.6875 6.875 15.6875 6.875 15 9 C10.57048752 11.95300832 6.19863438 11.66928526 1 11 C-1.6875 9 -1.6875 9 -3 7 C-0.69 7.66 1.62 8.32 4 9 C4 8.01 4 7.02 4 6 C2.68 6.33 1.36 6.66 0 7 C-0.66 6.01 -1.32 5.02 -2 4 C-1.34 2.68 -0.68 1.36 0 0 Z " fill="#584B4B" transform="translate(387,63)"/>
<path d="M0 0 C-0.33 0.99 -0.66 1.98 -1 3 C-4.5 4.5 -4.5 4.5 -8 6 C-8.33 6.99 -8.66 7.98 -9 9 C-9.66 8.67 -10.32 8.34 -11 8 C-11.33 8.99 -11.66 9.98 -12 11 C-12.99 11.33 -13.98 11.66 -15 12 C-15.29925921 8.18444504 -15.26029864 5.58257315 -13.6875 2.0625 C-9.48022056 -1.16634236 -5.11889257 -0.39715546 0 0 Z " fill="#4F4040" transform="translate(397,48)"/>
<path d="M0 0 C0.33 0 0.66 0 1 0 C1.268125 1.093125 1.53625 2.18625 1.8125 3.3125 C2.95827851 6.87044379 3.48974574 7.59888723 6 10 C7.29230769 14.41538462 7.29230769 14.41538462 6 17 C3.03 17 0.06 17 -3 17 C-3.33 16.34 -3.66 15.68 -4 15 C-3.26740357 13.33500811 -2.5311519 11.67144818 -1.76953125 10.01953125 C-0.51617568 6.73026814 -0.3065511 3.49468254 0 0 Z " fill="#824F52" transform="translate(46,45)"/>
<path d="M0 0 C3.96 0 7.92 0 12 0 C12 1.32 12 2.64 12 4 C11.278125 4.226875 10.55625 4.45375 9.8125 4.6875 C6.46790687 6.24831013 4.48396041 8.3031287 2 11 C1.67 10.01 1.34 9.02 1 8 C0.01 8.33 -0.98 8.66 -2 9 C-2 8.34 -2 7.68 -2 7 C-1.34 7 -0.68 7 0 7 C0 4.69 0 2.38 0 0 Z " fill="#5C4B4B" transform="translate(173,48)"/>
<path d="M0 0 C0.33 0 0.66 0 1 0 C1.33 4.62 1.66 9.24 2 14 C2.66 14 3.32 14 4 14 C4.33 9.38 4.66 4.76 5 0 C5.33 0 5.66 0 6 0 C6 4.62 6 9.24 6 14 C6.99 14 7.98 14 9 14 C9 15.32 9 16.64 9 18 C5.04 18 1.08 18 -3 18 C-3 16.68 -3 15.36 -3 14 C-2.01 14 -1.02 14 0 14 C0 9.38 0 4.76 0 0 Z " fill="#504747" transform="translate(148,56)"/>
<path d="M0 0 C1.984375 0.95703125 1.984375 0.95703125 4 3 C4.52039056 5.90294794 4.37530743 8.75000457 4.25 11.6875 C4.23195312 12.48478516 4.21390625 13.28207031 4.1953125 14.10351562 C4.14822247 16.06952449 4.07647899 18.03491494 4 20 C3.67 19.34 3.34 18.68 3 18 C2.01 18.33 1.02 18.66 0 19 C-0.1938211 16.02111874 -0.38035102 13.04209754 -0.5625 10.0625 C-0.61857422 9.21236328 -0.67464844 8.36222656 -0.73242188 7.48632812 C-0.80493164 6.27299805 -0.80493164 6.27299805 -0.87890625 5.03515625 C-0.9260376 4.2862915 -0.97316895 3.53742676 -1.02172852 2.76586914 C-1 1 -1 1 0 0 Z " fill="#32201F" transform="translate(149,52)"/>
<path d="M0 0 C1.65 0.99 3.3 1.98 5 3 C4.67 7.62 4.34 12.24 4 17 C2.68 17 1.36 17 0 17 C0 11.39 0 5.78 0 0 Z " fill="#A88B85" transform="translate(54,80)"/>
<path d="M0 0 C2 1 2 1 2 1 Z M-3 1 C-1.35 1.33 0.3 1.66 2 2 C2 2.99 2 3.98 2 5 C1.34 5 0.68 5 0 5 C0 7.97 0 10.94 0 14 C-1.32 14.33 -2.64 14.66 -4 15 C-4.22226864 13.23086176 -4.42733873 11.45955629 -4.625 9.6875 C-4.74101562 8.70136719 -4.85703125 7.71523438 -4.9765625 6.69921875 C-5 4 -5 4 -3 1 Z " fill="#422F2F" transform="translate(227,51)"/>
<path d="M0 0 C0.99 0.33 1.98 0.66 3 1 C3.33 3.97 3.66 6.94 4 10 C3.34 10 2.68 10 2 10 C2 10.66 2 11.32 2 12 C2.66 12 3.32 12 4 12 C3.67 13.98 3.34 15.96 3 18 C2.67 17.34 2.34 16.68 2 16 C1.01 15.67 0.02 15.34 -1 15 C-0.67 13.02 -0.34 11.04 0 9 C-0.66 9 -1.32 9 -2 9 C-1.125 2.25 -1.125 2.25 0 0 Z " fill="#865C5A" transform="translate(62,24)"/>
<path d="M0 0 C2 2 4 4 6 6 C8.10820797 5.6814823 8.10820797 5.6814823 10 5 C10 6.32 10 7.64 10 9 C5.38 9 0.76 9 -4 9 C-3.67 7.68 -3.34 6.36 -3 5 C-2.01 5 -1.02 5 0 5 C0 3.35 0 1.7 0 0 Z " fill="#685A5A" transform="translate(117,65)"/>
<path d="M0 0 C4 2 4 2 5 4 C5.07065617 6.04055005 5.08421976 8.08334257 5.0625 10.125 C5.05347656 11.22070312 5.04445313 12.31640625 5.03515625 13.4453125 C5.02355469 14.28835937 5.01195312 15.13140625 5 16 C3.02 16.99 3.02 16.99 1 18 C0.67 12.06 0.34 6.12 0 0 Z " fill="#332020" transform="translate(316,52)"/>
<path d="M0 0 C0.33 0 0.66 0 1 0 C1.03738281 0.59167969 1.07476562 1.18335938 1.11328125 1.79296875 C1.51376901 6.60667451 2.0385035 10.00841777 5 14 C4.01 14.495 4.01 14.495 3 15 C2.34 14.67 1.68 14.34 1 14 C1.33 14.99 1.66 15.98 2 17 C1.34 17 0.68 17 0 17 C0 16.34 0 15.68 0 15 C-0.66 15 -1.32 15 -2 15 C-2 14.34 -2 13.68 -2 13 C-2.66 13 -3.32 13 -4 13 C-4.66 9.7 -5.32 6.4 -6 3 C-5.34 3 -4.68 3 -4 3 C-4 5.31 -4 7.62 -4 10 C-2.68 9.67 -1.36 9.34 0 9 C0 6.03 0 3.06 0 0 Z " fill="#645757" transform="translate(227,56)"/>
<path d="M0 0 C-0.11509661 1.41750563 -0.24253658 2.83401169 -0.375 4.25 C-0.44460938 5.03890625 -0.51421875 5.8278125 -0.5859375 6.640625 C-1.01507113 9.085877 -1.78600638 10.84836903 -3 13 C-3.99 13 -4.98 13 -6 13 C-6 9.37 -6 5.74 -6 2 C-2 0 -2 0 0 0 Z " fill="#45342F" transform="translate(360,49)"/>
<path d="M0 0 C0.33 0 0.66 0 1 0 C1.0825 0.928125 1.165 1.85625 1.25 2.8125 C1.70257552 6.08509879 1.70257552 6.08509879 4.0625 7.875 C4.701875 8.24625 5.34125 8.6175 6 9 C5.67 9.33 5.34 9.66 5 10 C6.32 10.66 7.64 11.32 9 12 C6.36 12.33 3.72 12.66 1 13 C1 12.34 1 11.68 1 11 C-2.22404978 12.66954819 -2.22404978 12.66954819 -2.6875 15.625 C-2.790625 16.40875 -2.89375 17.1925 -3 18 C-4.125 16.25 -4.125 16.25 -5 14 C-4.0625 11.875 -4.0625 11.875 -3 10 C-3.33 9.34 -3.66 8.68 -4 8 C-3.34 7.67 -2.68 7.34 -2 7 C-1.26924352 4.6859378 -0.59861742 2.35171131 0 0 Z " fill="#685959" transform="translate(359,54)"/>
<path d="M0 0 C0 0.66 0 1.32 0 2 C-0.66 2 -1.32 2 -2 2 C-2.33 3.32 -2.66 4.64 -3 6 C-3.66 6 -4.32 6 -5 6 C-5 11.28 -5 16.56 -5 22 C-5.33 22 -5.66 22 -6 22 C-6 16.39 -6 10.78 -6 5 C-7.32 5 -8.64 5 -10 5 C-10 3.68 -10 2.36 -10 1 C-6.61981469 -0.04005702 -3.5219721 -0.08004482 0 0 Z " fill="#756767" transform="translate(138,47)"/>
<path d="M0 0 C6.27586207 -0.36206897 6.27586207 -0.36206897 9.375 1.1875 C12.62918946 4.81717286 12.11362856 9.65980069 12.0625 14.3125 C12.05347656 15.38113281 12.04445313 16.44976562 12.03515625 17.55078125 C12.02355469 18.35902344 12.01195312 19.16726562 12 20 C11.67 20 11.34 20 11 20 C10.95101563 19.22914062 10.90203125 18.45828125 10.8515625 17.6640625 C10.77679688 16.66117188 10.70203125 15.65828125 10.625 14.625 C10.55539062 13.62726562 10.48578125 12.62953125 10.4140625 11.6015625 C10.23636036 8.84491121 10.23636036 8.84491121 8 7 C7.01 7.33 6.02 7.66 5 8 C4.34 7.01 3.68 6.02 3 5 C3.66 3.68 4.32 2.36 5 1 C3.35 1 1.7 1 0 1 C0 0.67 0 0.34 0 0 Z " fill="#645150" transform="translate(310,47)"/>
<path d="M0 0 C2 1.1875 2 1.1875 3 3 C3.1875 5.6875 3.1875 5.6875 3 8 C1.68 7.34 0.36 6.68 -1 6 C-1.66 6.66 -2.32 7.32 -3 8 C-3 7.34 -3 6.68 -3 6 C-4.65 5.67 -6.3 5.34 -8 5 C-8 4.67 -8 4.34 -8 4 C-7.195625 3.87625 -6.39125 3.7525 -5.5625 3.625 C-4.716875 3.41875 -3.87125 3.2125 -3 3 C-2.67 2.34 -2.34 1.68 -2 1 C-5.35433109 1.94933899 -8.69246505 2.89748835 -12 4 C-11.67 3.01 -11.34 2.02 -11 1 C-7.24252497 -0.25249168 -3.93040706 -0.45035914 0 0 Z " fill="#504040" transform="translate(150,47)"/>
<path d="M0 0 C2.68203963 1.98237712 3.01557244 3.0778622 3.6875 6.4375 C4 10 4 10 4 14 C3.01 14.495 3.01 14.495 2 15 C0.5393715 12.35261084 0 11.10551666 0 8 C-0.66 8 -1.32 8 -2 8 C-2.33 7.01 -2.66 6.02 -3 5 C-1.5625 2.3125 -1.5625 2.3125 0 0 Z " fill="#AB8E88" transform="translate(61,72)"/>
<path d="M0 0 C-0.15339844 0.51046875 -0.30679687 1.0209375 -0.46484375 1.546875 C-1.16905403 4.7749338 -1.34888204 7.95418001 -1.5625 11.25 C-1.64628906 12.51328125 -1.73007812 13.7765625 -1.81640625 15.078125 C-1.87699219 16.04234375 -1.93757813 17.0065625 -2 18 C-2.33 18 -2.66 18 -3 18 C-3 13.05 -3 8.1 -3 3 C-4.32 3 -5.64 3 -7 3 C-7 8.94 -7 14.88 -7 21 C-8.32 20.67 -9.64 20.34 -11 20 C-10.01 20 -9.02 20 -8 20 C-8 14.06 -8 8.12 -8 2 C-4 0 -4 0 0 0 Z " fill="#675757" transform="translate(294,50)"/>
<path d="M0 0 C-0.33 0.99 -0.66 1.98 -1 3 C-2.65 3 -4.3 3 -6 3 C-6 3.66 -6 4.32 -6 5 C-7.32 5.33 -8.64 5.66 -10 6 C-10 7.98 -10 9.96 -10 12 C-10.28875 11.360625 -10.5775 10.72125 -10.875 10.0625 C-11.82823451 7.84793921 -11.82823451 7.84793921 -14 7 C-14.33 6.34 -14.66 5.68 -15 5 C-14.34 5 -13.68 5 -13 5 C-12.67 3.68 -12.34 2.36 -12 1 C-11.34 1 -10.68 1 -10 1 C-10 1.66 -10 2.32 -10 3 C-9.278125 2.505 -8.55625 2.01 -7.8125 1.5 C-4.85151341 -0.07919285 -3.28746971 -0.28178312 0 0 Z " fill="#503E3D" transform="translate(148,48)"/>
<path d="M0 0 C4.29 0.33 8.58 0.66 13 1 C12.67 2.32 12.34 3.64 12 5 C8.04 4.67 4.08 4.34 0 4 C0 2.68 0 1.36 0 0 Z " fill="#352121" transform="translate(360,70)"/>
<path d="M0 0 C0.33 0.99 0.66 1.98 1 3 C0.67 3.66 0.34 4.32 0 5 C-0.66 5 -1.32 5 -2 5 C-2.33 5.99 -2.66 6.98 -3 8 C-3.66 8 -4.32 8 -5 8 C-5.33 8.66 -5.66 9.32 -6 10 C-6.99 10.33 -7.98 10.66 -9 11 C-8.6875 7.625 -8.6875 7.625 -8 4 C-7.01 3.34 -6.02 2.68 -5 2 C-5 2.66 -5 3.32 -5 4 C-4.34 4 -3.68 4 -3 4 C-3 3.01 -3 2.02 -3 1 C-2.01 0.67 -1.02 0.34 0 0 Z " fill="#3C2829" transform="translate(172,56)"/>
<path d="M0 0 C1.21236328 0.01353516 1.21236328 0.01353516 2.44921875 0.02734375 C3.37154297 0.04474609 3.37154297 0.04474609 4.3125 0.0625 C3.3225 0.3925 2.3325 0.7225 1.3125 1.0625 C1.3125 2.0525 1.3125 3.0425 1.3125 4.0625 C0.343125 4.18625 -0.62625 4.31 -1.625 4.4375 C-3.1409375 4.746875 -3.1409375 4.746875 -4.6875 5.0625 C-5.0175 5.7225 -5.3475 6.3825 -5.6875 7.0625 C-7.0075 6.4025 -8.3275 5.7425 -9.6875 5.0625 C-8.875 3.125 -8.875 3.125 -7.6875 1.0625 C-4.80538698 0.10179566 -2.98899956 -0.04331883 0 0 Z " fill="#554445" transform="translate(234.6875,46.9375)"/>
<path d="M0 0 C2.75 -0.25 2.75 -0.25 6 0 C8.375 2 8.375 2 10 4 C8.60804085 6.7839183 6.84424221 6.97898997 4 8 C2 6.25 2 6.25 0 4 C0 2.68 0 1.36 0 0 Z " fill="#534545" transform="translate(236,48)"/>
<path d="M0 0 C-0.4979837 3.73487777 -0.87491756 5.81237635 -3 9 C-5.625 9.1875 -5.625 9.1875 -8 9 C-7.64598897 5.81390075 -7.16972964 4.20933322 -5.125 1.6875 C-3 0 -3 0 0 0 Z " fill="#8F6868" transform="translate(44,88)"/>
<path d="M0 0 C-0.33 0.66 -0.66 1.32 -1 2 C-1.99 1.67 -2.98 1.34 -4 1 C-4.33 8.26 -4.66 15.52 -5 23 C-5.33 23 -5.66 23 -6 23 C-6 17.06 -6 11.12 -6 5 C-7.32 5 -8.64 5 -10 5 C-10 3.68 -10 2.36 -10 1 C-6.61981469 -0.04005702 -3.5219721 -0.08004482 0 0 Z " fill="#6D5F60" transform="translate(277,47)"/>
<path d="M0 0 C1.32 0 2.64 0 4 0 C4 1.98 4 3.96 4 6 C3.01 6 2.02 6 1 6 C0.67 7.32 0.34 8.64 0 10 C-1.65 10 -3.3 10 -5 10 C-5 9.01 -5 8.02 -5 7 C-4.01 6.34 -3.02 5.68 -2 5 C-0.79549696 2.44816596 -0.79549696 2.44816596 0 0 Z " fill="#413030" transform="translate(208,42)"/>
<path d="M0 0 C2 0.75 2 0.75 4 3.75 C2.71034824 5.12562854 1.37310707 6.45766393 0 7.75 C-0.66 7.75 -1.32 7.75 -2 7.75 C-2 7.09 -2 6.43 -2 5.75 C-2.66 5.75 -3.32 5.75 -4 5.75 C-4 4.1 -4 2.45 -4 0.75 C-2 -0.25 -2 -0.25 0 0 Z " fill="#605252" transform="translate(274,37.25)"/>
<path d="M0 0 C0 1.65 0 3.3 0 5 C-1.98 5.99 -1.98 5.99 -4 7 C-5.5625 5.75 -5.5625 5.75 -7 4 C-6.8125 1.875 -6.8125 1.875 -6 0 C-3.50907189 -1.24546405 -2.58919267 -0.7767578 0 0 Z " fill="#5C514F" transform="translate(123,38)"/>
<path d="M0 0 C2.97 0 5.94 0 9 0 C11.17766075 4.35532149 11.03039555 5.46625958 10 10 C9.566875 9.54625 9.13375 9.0925 8.6875 8.625 C6.89201658 6.79975666 6.89201658 6.79975666 4 5 C4.66 3.68 5.32 2.36 6 1 C4.02 1 2.04 1 0 1 C0 0.67 0 0.34 0 0 Z " fill="#4E3D3E" transform="translate(367,70)"/>
<path d="M0 0 C2.57547398 0.34339653 3.68894113 0.60006716 5.3125 2.6875 C6.40439168 6.36022655 5.69529517 9.60940965 4 13 C3.01 13 2.02 13 1 13 C1.375 11.0625 1.375 11.0625 2 9 C2.66 8.67 3.32 8.34 4 8 C3.01 8 2.02 8 1 8 C0.67 5.36 0.34 2.72 0 0 Z " fill="#A78481" transform="translate(58,41)"/>
<path d="M0 0 C0.66 0 1.32 0 2 0 C2.98120464 3.05263664 2.98120464 4.94736336 2 8 C3.65 8.33 5.3 8.66 7 9 C7 9.99 7 10.98 7 12 C3.65626525 11.44271087 0.96687001 10.64826111 -2 9 C-2 7.68 -2 6.36 -2 5 C-1.34 5 -0.68 5 0 5 C0 3.35 0 1.7 0 0 Z " fill="#3C2828" transform="translate(384,60)"/>
<path d="M0 0 C1.4370809 -0.05422947 2.87475462 -0.09289723 4.3125 -0.125 C5.11300781 -0.14820313 5.91351563 -0.17140625 6.73828125 -0.1953125 C9 0 9 0 12 2 C12 2.66 12 3.32 12 4 C12.66 4 13.32 4 14 4 C13.67 4.99 13.34 5.98 13 7 C13 6.34 13 5.68 13 5 C11.68 5.33 10.36 5.66 9 6 C8.67 7.32 8.34 8.64 8 10 C7.87625 9.38125 7.7525 8.7625 7.625 8.125 C7.12802644 5.80879168 7.12802644 5.80879168 5 4 C5.66 4 6.32 4 7 4 C7 3.34 7 2.68 7 2 C4.69 1.67 2.38 1.34 0 1 C0 0.67 0 0.34 0 0 Z " fill="#736364" transform="translate(389,47)"/>
<path d="M0 0 C0.33 1.32 0.66 2.64 1 4 C2.32 4 3.64 4 5 4 C5 5.32 5 6.64 5 8 C0.38 8 -4.24 8 -9 8 C-8.67 7.01 -8.34 6.02 -8 5 C-8 5.66 -8 6.32 -8 7 C-6.02 7 -4.04 7 -2 7 C-1.34 4.69 -0.68 2.38 0 0 Z " fill="#796A6B" transform="translate(137,66)"/>
<path d="M0 0 C0 0.33 0 0.66 0 1 C-1.546875 1.0928125 -1.546875 1.0928125 -3.125 1.1875 C-7.88462827 2.18548657 -9.53592963 3.70490867 -13 7 C-12.67 5.68 -12.34 4.36 -12 3 C-12.66 3 -13.32 3 -14 3 C-13.67 1.68 -13.34 0.36 -13 -1 C-8.15507803 -2.51403812 -4.7408989 -1.36602172 0 0 Z " fill="#835357" transform="translate(60,38)"/>
<path d="M0 0 C2.69082872 0.17635452 5.32851446 0.61835921 8 1 C8 2.32 8 3.64 8 5 C5.36 5 2.72 5 0 5 C-0.5625 3.0625 -0.5625 3.0625 -1 1 C-0.67 0.67 -0.34 0.34 0 0 Z " fill="#615252" transform="translate(178,69)"/>
<path d="M0 0 C1.40720111 2.81440222 0.56285222 5.01320349 0.125 8.0234375 C-0.03217345 10.50874274 0.56946967 11.98042777 2 14 C0.35 14.33 -1.3 14.66 -3 15 C-3.08078641 12.87561661 -3.13909141 10.7503677 -3.1875 8.625 C-3.22230469 7.44164062 -3.25710937 6.25828125 -3.29296875 5.0390625 C-3.19628906 4.03617188 -3.09960938 3.03328125 -3 2 C-2.01 1.34 -1.02 0.68 0 0 Z " fill="#402E2E" transform="translate(244,53)"/>
<path d="M0 0 C0.33 0 0.66 0 1 0 C1 4.95 1 9.9 1 15 C0.01 15.495 0.01 15.495 -1 16 C2.3 16.33 5.6 16.66 9 17 C9 17.33 9 17.66 9 18 C5.04 18 1.08 18 -3 18 C-3 16.68 -3 15.36 -3 14 C-2.01 14 -1.02 14 0 14 C0 9.38 0 4.76 0 0 Z " fill="#887D7C" transform="translate(148,56)"/>
<path d="M0 0 C4 0 4 0 7 2 C6.34 2 5.68 2 5 2 C5 2.99 5 3.98 5 5 C5.66 5.33 6.32 5.66 7 6 C4.36 6 1.72 6 -1 6 C-1.33 5.34 -1.66 4.68 -2 4 C-1.0625 1.875 -1.0625 1.875 0 0 Z " fill="#793E40" transform="translate(44,56)"/>
<path d="M0 0 C0.93619813 3.15506142 1.1057123 5.96586502 1.0625 9.25 C1.05347656 10.14203125 1.04445313 11.0340625 1.03515625 11.953125 C1.02355469 12.62859375 1.01195312 13.3040625 1 14 C0.67 14 0.34 14 0 14 C0 11.69 0 9.38 0 7 C-0.99 7.33 -1.98 7.66 -3 8 C-3.33 5.69 -3.66 3.38 -4 1 C-2 0 -2 0 0 0 Z " fill="#4F3F3D" transform="translate(347,50)"/>
<path d="M0 0 C1.5625 1.1875 1.5625 1.1875 3 3 C2.75546876 6.34192692 2.39456443 7.60543557 0 10 C0 9.01 0 8.02 0 7 C-1.32 7.33 -2.64 7.66 -4 8 C-2.87548273 5.0280615 -1.77706209 2.66559313 0 0 Z " fill="#9F7978" transform="translate(44,81)"/>
<path d="M0 0 C2.97 0 5.94 0 9 0 C8.34 1.32 7.68 2.64 7 4 C4.69 4 2.38 4 0 4 C0 2.68 0 1.36 0 0 Z " fill="#413232" transform="translate(282,48)"/>
<path d="M0 0 C0.66 0.33 1.32 0.66 2 1 C1.125 5.75 1.125 5.75 0 8 C-1.98 8 -3.96 8 -6 8 C-6 7.01 -6 6.02 -6 5 C-5.195625 4.731875 -4.39125 4.46375 -3.5625 4.1875 C-2.716875 3.795625 -1.87125 3.40375 -1 3 C-0.67 2.01 -0.34 1.02 0 0 Z " fill="#3C2C2B" transform="translate(135,65)"/>
<path d="M0 0 C0.66 0 1.32 0 2 0 C1.67 2.64 1.34 5.28 1 8 C2.32 8.33 3.64 8.66 5 9 C-0.625 9.25 -0.625 9.25 -4 7 C-4 6.34 -4 5.68 -4 5 C-3.01 4.34 -2.02 3.68 -1 3 C-0.67 2.01 -0.34 1.02 0 0 Z " fill="#926A68" transform="translate(54,46)"/>
<path d="M0 0 C2.97 0.495 2.97 0.495 6 1 C4.95125002 3.62187494 4.35068687 4.79371361 1.875 6.25 C1.25625 6.4975 0.6375 6.745 0 7 C-0.66 5.35 -1.32 3.7 -2 2 C-1.34 2 -0.68 2 0 2 C0 1.34 0 0.68 0 0 Z " fill="#604F50" transform="translate(240,66)"/>
<path d="M0 0 C1.23556641 0.01740234 1.23556641 0.01740234 2.49609375 0.03515625 C3.32238281 0.04417969 4.14867187 0.05320312 5 0.0625 C5.63808594 0.07410156 6.27617188 0.08570312 6.93359375 0.09765625 C6.93359375 0.75765625 6.93359375 1.41765625 6.93359375 2.09765625 C4.29359375 2.42765625 1.65359375 2.75765625 -1.06640625 3.09765625 C-1.06640625 5.07765625 -1.06640625 7.05765625 -1.06640625 9.09765625 C-2.05640625 9.09765625 -3.04640625 9.09765625 -4.06640625 9.09765625 C-3.07168497 0.1451647 -3.07168497 0.1451647 0 0 Z " fill="#977378" transform="translate(51.06640625,23.90234375)"/>
<path d="M0 0 C2.64 0 5.28 0 8 0 C7.67 0.99 7.34 1.98 7 3 C4.69 3.33 2.38 3.66 0 4 C0 2.68 0 1.36 0 0 Z " fill="#423131" transform="translate(113,48)"/>
<path d="M0 0 C-0.33 0.66 -0.66 1.32 -1 2 C-1.99 2 -2.98 2 -4 2 C-4.28875 2.61875 -4.5775 3.2375 -4.875 3.875 C-6 6 -6 6 -8 8 C-8.3125 5.1875 -8.3125 5.1875 -8 2 C-4.88411016 -0.61061041 -3.93844351 -1.3128145 0 0 Z " fill="#8D6663" transform="translate(58,41)"/>
<path d="M0 0 C0.99 0.66 1.98 1.32 3 2 C2.42655063 4.86724686 2.1385485 5.8614515 0 8 C-0.99 7.67 -1.98 7.34 -3 7 C-2.01 4.69 -1.02 2.38 0 0 Z " fill="#655858" transform="translate(373,76)"/>
<path d="M0 0 C1.98 0 3.96 0 6 0 C4.02 0.99 4.02 0.99 2 2 C2.99 2.33 3.98 2.66 5 3 C6.1875 5.5625 6.1875 5.5625 7 8 C6.34 8 5.68 8 5 8 C5 7.34 5 6.68 5 6 C4.01 6 3.02 6 2 6 C2 5.34 2 4.68 2 4 C1.34 4 0.68 4 0 4 C0 2.68 0 1.36 0 0 Z " fill="#A68080" transform="translate(46,63)"/>
<path d="M0 0 C1.98 0 3.96 0 6 0 C6 0.66 6 1.32 6 2 C6.66 2 7.32 2 8 2 C8 1.34 8 0.68 8 0 C8.66 0 9.32 0 10 0 C9.75 1.875 9.75 1.875 9 4 C6.9375 5.25 6.9375 5.25 5 6 C5 4.35 5 2.7 5 1 C3.35 1 1.7 1 0 1 C0 0.67 0 0.34 0 0 Z " fill="#AE8C85" transform="translate(57,63)"/>
<path d="M0 0 C0.33 1.32 0.66 2.64 1 4 C1.66 4 2.32 4 3 4 C3 5.65 3 7.3 3 9 C2.01 9 1.02 9 0 9 C-0.84454356 5.62182575 -1.10844919 3.32534757 0 0 Z M3 2 C3.66 2.66 4.32 3.32 5 4 C4.34 4 3.68 4 3 4 C3 3.34 3 2.68 3 2 Z " fill="#5E4D4E" transform="translate(381,56)"/>
<path d="M0 0 C0.33 0 0.66 0 1 0 C1 4.29 1 8.58 1 13 C-0.65 13.33 -2.3 13.66 -4 14 C-3.34 13.67 -2.68 13.34 -2 13 C-2 11.68 -2 10.36 -2 9 C-1.34 9 -0.68 9 0 9 C0 6.03 0 3.06 0 0 Z " fill="#C2B0A6" transform="translate(92,41)"/>
<path d="M0 0 C4.29 0 8.58 0 13 0 C12.34 1.32 11.68 2.64 11 4 C7.37 3.34 3.74 2.68 0 2 C0 1.34 0 0.68 0 0 Z " fill="#5E4F4E" transform="translate(359,80)"/>
<path d="M0 0 C1.32 1.65 2.64 3.3 4 5 C3.01 5.33 2.02 5.66 1 6 C1 6.66 1 7.32 1 8 C0.34 8 -0.32 8 -1 8 C-1.625 5.6875 -1.625 5.6875 -2 3 C-1.34 2.01 -0.68 1.02 0 0 Z " fill="#936A60" transform="translate(64,57)"/>
<path d="M0 0 C0.99 0 1.98 0 3 0 C3.33 2.31 3.66 4.62 4 7 C3.01 7.66 2.02 8.32 1 9 C0.67 6.03 0.34 3.06 0 0 Z " fill="#A27F76" transform="translate(62,78)"/>
<path d="M0 0 C0 0.99 0 1.98 0 3 C0.66 3.33 1.32 3.66 2 4 C0.35 4.66 -1.3 5.32 -3 6 C-3 4.68 -3 3.36 -3 2 C-4.32 2.33 -5.64 2.66 -7 3 C-4.49955934 -0.00052879 -4.2621484 0 0 0 Z " fill="#6D5F60" transform="translate(363,47)"/>
<path d="M0 0 C1.65 0 3.3 0 5 0 C4.67 1.32 4.34 2.64 4 4 C2.02 4 0.04 4 -2 4 C-1.34 2.68 -0.68 1.36 0 0 Z " fill="#342525" transform="translate(310,48)"/>
<path d="M0 0 C3 1 3 1 3.9375 2.8125 C4 5 4 5 2.0625 7.25 C1.381875 7.8275 0.70125 8.405 0 9 C0.33 7.02 0.66 5.04 1 3 C0.01 3.33 -0.98 3.66 -2 4 C-2 3.34 -2 2.68 -2 2 C-1.34 2 -0.68 2 0 2 C0 1.34 0 0.68 0 0 Z " fill="#A68480" transform="translate(50,72)"/>
<path d="M0 0 C4.875 4.75 4.875 4.75 6 7 C3.125 7.1875 3.125 7.1875 0 7 C-0.66 6.01 -1.32 5.02 -2 4 C-1.34 2.68 -0.68 1.36 0 0 Z " fill="#665455" transform="translate(387,63)"/>
<path d="M0 0 C0.99 0.33 1.98 0.66 3 1 C2.690625 1.53625 2.38125 2.0725 2.0625 2.625 C0.82172561 5.3984957 0.4090325 8.00042837 0 11 C-0.33 11 -0.66 11 -1 11 C-1.12375 9.865625 -1.2475 8.73125 -1.375 7.5625 C-1.58125 6.386875 -1.7875 5.21125 -2 4 C-2.66 3.67 -3.32 3.34 -4 3 C-3.01 2.67 -2.02 2.34 -1 2 C-0.67 1.34 -0.34 0.68 0 0 Z " fill="#685A5A" transform="translate(343,48)"/>
<path d="M0 0 C0.7425 0.0825 1.485 0.165 2.25 0.25 C1.92 1.24 1.59 2.23 1.25 3.25 C-1.39 3.58 -4.03 3.91 -6.75 4.25 C-3.42692308 0.31153846 -3.42692308 0.31153846 0 0 Z " fill="#332121" transform="translate(145.75,47.75)"/>
<path d="M0 0 C0.99 0 1.98 0 3 0 C3 1.98 3 3.96 3 6 C1.68 5.34 0.36 4.68 -1 4 C-1.33 4.99 -1.66 5.98 -2 7 C-2.125 4.625 -2.125 4.625 -2 2 C-1.34 1.34 -0.68 0.68 0 0 Z " fill="#685958" transform="translate(354,74)"/>
<path d="M0 0 C0.99 0 1.98 0 3 0 C3 1.32 3 2.64 3 4 C1.02 4.66 -0.96 5.32 -3 6 C-2.42655063 3.13275314 -2.1385485 2.1385485 0 0 Z " fill="#6F6262" transform="translate(182,48)"/>
<path d="M0 0 C1.98 0 3.96 0 6 0 C5.67 1.32 5.34 2.64 5 4 C2.03 3.505 2.03 3.505 -1 3 C-0.67 2.01 -0.34 1.02 0 0 Z " fill="#483838" transform="translate(337,47)"/>
<path d="M0 0 C1.98 0.495 1.98 0.495 4 1 C3.67 2.98 3.34 4.96 3 7 C2.67 6.34 2.34 5.68 2 5 C1.01 4.67 0.02 4.34 -1 4 C-0.67 2.68 -0.34 1.36 0 0 Z " fill="#875452" transform="translate(62,35)"/>
<path d="M0 0 C0.99 0.33 1.98 0.66 3 1 C2.34 2.65 1.68 4.3 1 6 C-0.32 5.34 -1.64 4.68 -3 4 C-2.01 2.68 -1.02 1.36 0 0 Z " fill="#9A716C" transform="translate(59,69)"/>
<path d="M0 0 C0.66 0 1.32 0 2 0 C2.33 0.66 2.66 1.32 3 2 C3.99 2.66 4.98 3.32 6 4 C5.01 4 4.02 4 3 4 C2.67 4.66 2.34 5.32 2 6 C0.68 5.34 -0.64 4.68 -2 4 C-1.34 2.68 -0.68 1.36 0 0 Z " fill="#736663" transform="translate(227,48)"/>
<path d="M0 0 C1.32 0 2.64 0 4 0 C4 1.98 4 3.96 4 6 C3.34 5.34 2.68 4.68 2 4 C1.01 4.33 0.02 4.66 -1 5 C-0.67 3.35 -0.34 1.7 0 0 Z " fill="#6E6464" transform="translate(208,42)"/>
<path d="M0 0 C2.31 0 4.62 0 7 0 C6.67 0.99 6.34 1.98 6 3 C5.67 2.34 5.34 1.68 5 1 C3.35 1 1.7 1 0 1 C0 0.67 0 0.34 0 0 Z M4 3 C4.66 3.33 5.32 3.66 6 4 C5.67 5.32 5.34 6.64 5 8 C4.34 7.01 3.68 6.02 3 5 C3.33 4.34 3.66 3.68 4 3 Z " fill="#706565" transform="translate(310,47)"/>
<path d="M0 0 C2.5 1.375 2.5 1.375 5 3 C5 3.66 5 4.32 5 5 C4.34 5 3.68 5 3 5 C3 5.66 3 6.32 3 7 C2.34 7 1.68 7 1 7 C0.67 4.69 0.34 2.38 0 0 Z " fill="#A1807D" transform="translate(54,80)"/>
<path d="M0 0 C2.97 0 5.94 0 9 0 C8.67 0.99 8.34 1.98 8 3 C5.36 2.67 2.72 2.34 0 2 C0 1.34 0 0.68 0 0 Z " fill="#321F21" transform="translate(388,48)"/>
<path d="M0 0 C1.98567708 0.5859375 3.97135417 1.171875 5.95703125 1.7578125 C5.95703125 2.0878125 5.95703125 2.4178125 5.95703125 2.7578125 C4.28640625 2.974375 4.28640625 2.974375 2.58203125 3.1953125 C-0.86438922 3.54153285 -0.86438922 3.54153285 -3.04296875 4.7578125 C-3.04296875 4.0978125 -3.04296875 3.4378125 -3.04296875 2.7578125 C-3.70296875 2.4278125 -4.36296875 2.0978125 -5.04296875 1.7578125 C-2.04296875 -0.2421875 -2.04296875 -0.2421875 0 0 Z " fill="#8A5E5F" transform="translate(54.04296875,36.2421875)"/>
<path d="M0 0 C0 0.66 0 1.32 0 2 C-2.64 2 -5.28 2 -8 2 C-8 1.34 -8 0.68 -8 0 C-4.94736336 -0.98120464 -3.05263664 -0.98120464 0 0 Z " fill="#332222" transform="translate(324,71)"/>
<path d="M0 0 C-0.66 1.98 -1.32 3.96 -2 6 C-2.66 6 -3.32 6 -4 6 C-4 4.35 -4 2.7 -4 1 C-2 0 -2 0 0 0 Z " fill="#341E1E" transform="translate(359,56)"/>
<path d="M0 0 C1.8871875 0.0309375 1.8871875 0.0309375 3.8125 0.0625 C3.8125 0.3925 3.8125 0.7225 3.8125 1.0625 C3.19761719 1.19527344 2.58273438 1.32804687 1.94921875 1.46484375 C0.73685547 1.72974609 0.73685547 1.72974609 -0.5 2 C-1.70076172 2.26103516 -1.70076172 2.26103516 -2.92578125 2.52734375 C-5.332901 3.06136159 -5.332901 3.06136159 -8.1875 4.0625 C-7.8575 3.0725 -7.5275 2.0825 -7.1875 1.0625 C-4.43671116 0.14557039 -2.82801087 -0.04636083 0 0 Z " fill="#7D7271" transform="translate(146.1875,46.9375)"/>
</svg>
