<?xml version="1.0" encoding="UTF-8"?>
<svg version="1.1" xmlns="http://www.w3.org/2000/svg" width="574" height="435">
<path d="M0 0 C2.1991655 1.66393813 4.2248039 3.39897987 6.234375 5.28515625 C7.100625 6.02765625 7.966875 6.77015625 8.859375 7.53515625 C17.9783008 18.09391244 21.96613418 29.02697492 21.58203125 42.98828125 C20.33816434 54.78405284 15.32726575 66.46104096 6.234375 74.28515625 C5.59886719 74.84976563 4.96335937 75.414375 4.30859375 75.99609375 C-6.40992086 85.02020729 -19.02781151 87.26768186 -32.765625 86.28515625 C-36.2485717 85.60360121 -39.46371328 84.57672036 -42.765625 83.28515625 C-43.44109375 83.02992188 -44.1165625 82.7746875 -44.8125 82.51171875 C-56.30025997 77.5030554 -64.36640269 67.3533504 -69.078125 56.03515625 C-73.70487498 44.08759934 -72.56533729 32.00122413 -67.765625 20.28515625 C-61.60174457 7.41030541 -52.25083431 0.01639629 -39.140625 -5.02734375 C-25.9038481 -9.12084637 -11.780714 -7.30470826 0 0 Z " fill="#F3F1F2" transform="translate(156.765625,177.71484375)"/>
<path d="M0 0 C4.12366142 6.18549213 3.56320933 13.80519907 3 21 C0.84733633 31.66491085 -3.63597094 41.80304476 -12 49 C-12.63550781 49.56460938 -13.27101563 50.12921875 -13.92578125 50.7109375 C-24.64429586 59.73505104 -37.26218651 61.98252561 -51 61 C-54.4829467 60.31844496 -57.69808828 59.29156411 -61 58 C-61.67546875 57.74476563 -62.3509375 57.48953125 -63.046875 57.2265625 C-69.52831595 54.40065425 -77.10574334 49.30980101 -80.0078125 42.70703125 C-80.5 40.5625 -80.5 40.5625 -81 37 C-81.66 36.34 -82.32 35.68 -83 35 C-82.38125 34.9175 -81.7625 34.835 -81.125 34.75 C-78.81653196 34.21189267 -78.81653196 34.21189267 -78 32 C-77 30 -77 30 -74.9375 29.1875 C-74.298125 29.125625 -73.65875 29.06375 -73 29 C-72 30 -72 30 -71.9375 32.5625 C-71.958125 33.366875 -71.97875 34.17125 -72 35 C-71.2265625 34.7525 -71.2265625 34.7525 -70.4375 34.5 C-64.06645548 33.19311907 -59.64573538 34.12178196 -54 37 C-53.34 37.66 -52.68 38.32 -52 39 C-53.98 39 -55.96 39 -58 39 C-58.33 39.99 -58.66 40.98 -59 42 C-54.22636057 41.35345697 -54.22636057 41.35345697 -49.5 40.4375 C-43.77243939 39.43517689 -39.42436924 40.11326287 -34 42 C-31.24934768 42.16857483 -31.24934768 42.16857483 -29 42 C-29.33 41.34 -29.66 40.68 -30 40 C-32.52733235 39.34444881 -32.52733235 39.34444881 -35 39 C-30.48306148 35.11041405 -30.48306148 35.11041405 -27.8125 34.5 C-25.85767833 34.1823142 -25.85767833 34.1823142 -25 32.375 C-24.67 31.59125 -24.34 30.8075 -24 30 C-23.30408785 28.7430424 -22.59486134 27.49339686 -21.875 26.25 C-21.25625 25.1775 -20.6375 24.105 -20 23 C-19.34 23 -18.68 23 -18 23 C-17.505 21.515 -17.505 21.515 -17 20 C-14.9375 19.3125 -14.9375 19.3125 -13 19 C-12.67 17.35 -12.34 15.7 -12 14 C-13.65 14 -15.3 14 -17 14 C-16.67 13.34 -16.34 12.68 -16 12 C-14.88625 11.690625 -13.7725 11.38125 -12.625 11.0625 C-8.59821692 9.93020916 -8.59821692 9.93020916 -6 7 C-4.80972016 4.40084462 -4.80972016 4.40084462 -4 2 C-2.68 2 -1.36 2 0 2 C0 1.34 0 0.68 0 0 Z " fill="#F3F1F2" transform="translate(175,203)"/>
<path d="M0 0 C0.20882812 0.639375 0.41765625 1.27875 0.6328125 1.9375 C1.8552746 4.28182172 1.8552746 4.28182172 4.6796875 4.6875 C6.26136719 4.8421875 6.26136719 4.8421875 7.875 5 C11.55044761 5.36122335 13.45697075 5.56629347 16.3671875 7.890625 C18.35333268 10.45645849 18.35203304 11.83170267 18 15 C17.34 15 16.68 15 16 15 C15.731875 14.21625 15.46375 13.4325 15.1875 12.625 C14.15185568 9.71885077 14.15185568 9.71885077 11 8 C11.28875 8.928125 11.5775 9.85625 11.875 10.8125 C16.05676775 25.50842667 16.05676775 25.50842667 15 32 C13.52944777 34.36709709 12.00151707 35.99848293 10 38 C9.34 38 8.68 38 8 38 C8.66 36.02 9.32 34.04 10 32 C10.66 32 11.32 32 12 32 C12 30.35 12 28.7 12 27 C9.12744934 29.42195448 8.29161081 31.59742703 7.3125 35.1875 C6.93544922 36.53908203 6.93544922 36.53908203 6.55078125 37.91796875 C6.36902344 38.60503906 6.18726563 39.29210937 6 40 C3.03 40.66 0.06 41.32 -3 42 C-3 41.34 -3 40.68 -3 40 C-3.53625 39.938125 -4.0725 39.87625 -4.625 39.8125 C-8.10641033 38.6214912 -10.22566487 36.41246533 -13 34 C-13.66 33.67 -14.32 33.34 -15 33 C-15.33 33.99 -15.66 34.98 -16 36 C-16.67119549 34.5437455 -17.33681807 33.08492133 -18 31.625 C-18.37125 30.81289062 -18.7425 30.00078125 -19.125 29.1640625 C-20 27 -20 27 -20 25 C-20.66 24.67 -21.32 24.34 -22 24 C-22 21.69 -22 19.38 -22 17 C-22.66 17.33 -23.32 17.66 -24 18 C-24.46751788 20.35599235 -24.46751788 20.35599235 -24.625 23.0625 C-24.69976562 23.98160156 -24.77453125 24.90070313 -24.8515625 25.84765625 C-24.90054688 26.55792969 -24.94953125 27.26820313 -25 28 C-25.66 27.67 -26.32 27.34 -27 27 C-28.6252073 20.03482587 -28.6252073 20.03482587 -26.1875 16 C-24 14 -24 14 -22 14 C-21.34 12.02 -20.68 10.04 -20 8 C-20.99 8 -21.98 8 -23 8 C-23.268125 9.11375 -23.53625 10.2275 -23.8125 11.375 C-25 15 -25 15 -28 17 C-27.62055975 13.87943104 -27.09813567 10.95288156 -26 8 C-22.11286166 5.19764445 -17.60087822 4.19622834 -13 3 C-12.67 3.66 -12.34 4.32 -12 5 C-10.68 4.34 -9.36 3.68 -8 3 C-8 3.66 -8 4.32 -8 5 C-3.17557816 3.73053486 -3.17557816 3.73053486 0 0 Z " fill="#F6F4F4" transform="translate(136,199)"/>
<path d="M0 0 C0.66 0 1.32 0 2 0 C1.67 2.31 1.34 4.62 1 7 C0.34 7 -0.32 7 -1 7 C-1 7.99 -1 8.98 -1 10 C2.19199167 7.58443874 4.74716687 5.31996462 7 2 C8.32 2.33 9.64 2.66 11 3 C8.75953952 6.4196502 6.4943212 7.95454369 3 10 C1.63015802 11.29579647 0.2848951 12.61992749 -1 14 C-0.01 14 0.98 14 2 14 C2 13.34 2 12.68 2 12 C3.98 11.67 5.96 11.34 8 11 C7.3125 12.921875 7.3125 12.921875 6 15 C3.6875 15.765625 3.6875 15.765625 1 16.25 C-1.69501011 16.84956208 -1.69501011 16.84956208 -4 18 C-5.55760558 20.77828229 -5.68144114 22.76131829 -6 26 C-4.68 23.36 -3.36 20.72 -2 18 C-1.01 18 -0.02 18 1 18 C0.49396008 20.16874252 0.00016187 21.99967627 -1 24 C-1.66 24 -2.32 24 -3 24 C-3.309375 24.639375 -3.61875 25.27875 -3.9375 25.9375 C-5 28 -5 28 -6 29 C-5.8981629 30.91424457 -5.8981629 30.91424457 -5.5625 33.0625 C-5.376875 34.361875 -5.19125 35.66125 -5 37 C-4.505 32.545 -4.505 32.545 -4 28 C-3.01 27.67 -2.02 27.34 -1 27 C-0.87625 28.546875 -0.87625 28.546875 -0.75 30.125 C0.06812642 34.3519865 1.57076273 36.50797142 4 40 C4.75 42.875 4.75 42.875 5 45 C5.33 44.34 5.66 43.68 6 43 C9.98363358 44.32787786 12.10630834 46.00985195 15 49 C16.485 49.495 16.485 49.495 18 50 C18 50.66 18 51.32 18 52 C20.97 51.34 23.94 50.68 27 50 C27.12117188 49.31292969 27.24234375 48.62585938 27.3671875 47.91796875 C27.53476563 47.01691406 27.70234375 46.11585938 27.875 45.1875 C28.03742188 44.29417969 28.19984375 43.40085938 28.3671875 42.48046875 C29 40 29 40 31 37 C31.66 37 32.32 37 33 37 C33 38.65 33 40.3 33 42 C32.34 42 31.68 42 31 42 C30.34 43.98 29.68 45.96 29 48 C29.804375 47.195625 30.60875 46.39125 31.4375 45.5625 C32.625 44.375 33.8125 43.1875 35 42 C34.52198814 36.07265299 33.55504015 30.31126149 32.40234375 24.48046875 C32 22 32 22 32 18 C33.9375 18.6875 33.9375 18.6875 36 20 C36.75 22.625 36.75 22.625 37 25 C37.66 25 38.32 25 39 25 C38.37967524 21.53514293 38.37967524 21.53514293 37 18 C33.60521842 15.92541126 29.9105114 15.54565275 26 15 C25.505 13.02 25.505 13.02 25 11 C26.65 10.67 28.3 10.34 30 10 C29.50628906 9.67386719 29.01257813 9.34773437 28.50390625 9.01171875 C27.86324219 8.57472656 27.22257812 8.13773438 26.5625 7.6875 C25.92441406 7.25824219 25.28632813 6.82898438 24.62890625 6.38671875 C23 5 23 5 22 2 C24.70931419 2.15481795 26.46584039 2.48172081 28.4453125 4.40234375 C29.67679642 5.89771708 30.8429837 7.4462924 32 9 C31.7525 8.1646875 31.7525 8.1646875 31.5 7.3125 C30.95958649 4.81308751 30.92917935 2.54954338 31 0 C34.875 1.875 34.875 1.875 36 3 C36.23287008 4.68183948 36.41264166 6.3712416 36.5625 8.0625 C36.64628906 8.98160156 36.73007813 9.90070313 36.81640625 10.84765625 C36.87699219 11.55792969 36.93757813 12.26820313 37 13 C37.763125 12.835 38.52625 12.67 39.3125 12.5 C42 12 42 12 45 12 C46.4783226 14.95664519 46.06032783 17.74229737 46 21 C45.34 21 44.68 21 44 21 C43.67 23.31 43.34 25.62 43 28 C44.65 28 46.3 28 48 28 C47.75 30.375 47.75 30.375 47 33 C45 34.1875 45 34.1875 43 35 C42.505 35.99 42.505 35.99 42 37 C41.34 37 40.68 37 40 37 C39.7525 37.70125 39.505 38.4025 39.25 39.125 C36.36105976 45.76956255 33.34018428 48.82990786 27 52 C28.98 52.99 30.96 53.98 33 55 C31 57 31 57 28.75 57.25 C26 57 26 57 23.125 56 C16.92550377 54.01616121 12.08778833 55.19621086 6 57 C3.0625 57.125 3.0625 57.125 1 57 C0.67 56.34 0.34 55.68 0 55 C0.66 55 1.32 55 2 55 C2 54.34 2 53.68 2 53 C3.98 52.505 3.98 52.505 6 52 C1.05504256 49.57798003 -2.3714624 48.55854607 -8 49 C-8.99 49.495 -8.99 49.495 -10 50 C-10.66 49.67 -11.32 49.34 -12 49 C-12.73075648 46.6859378 -13.40138258 44.35171131 -14 42 C-10.94736336 41.01879536 -9.05263664 41.01879536 -6 42 C-6.495 41.0925 -6.99 40.185 -7.5 39.25 C-10.11879877 32.99258179 -10.10241772 26.26642287 -7.9453125 19.875 C-7.07242936 17.85032432 -6.17038061 15.83794969 -5.23828125 13.83984375 C-4.06963492 11.15969901 -3.37527156 8.7346116 -2.8125 5.875 C-2 2 -2 2 0 0 Z " fill="#D16279" transform="translate(115,189)"/>
<path d="M0 0 C2.97 0 5.94 0 9 0 C9.64910154 1.58199631 10.29414694 3.16565724 10.9375 4.75 C11.29714844 5.63171875 11.65679687 6.5134375 12.02734375 7.421875 C13 10 13 10 13.50390625 12.265625 C13.66761719 12.83796875 13.83132813 13.4103125 14 14 C14.66 14.33 15.32 14.66 16 15 C16.16435547 14.12988281 16.16435547 14.12988281 16.33203125 13.2421875 C17.3143365 8.40253723 18.54821911 4.34633884 21 0 C23.97 0 26.94 0 30 0 C30 11.55 30 23.1 30 35 C27.36 35 24.72 35 22 35 C21.34 33.02 20.68 31.04 20 29 C19.34 30.98 18.68 32.96 18 35 C15.69 35 13.38 35 11 35 C10.34 32.69 9.68 30.38 9 28 C8.01 31.465 8.01 31.465 7 35 C4.69 35 2.38 35 0 35 C0 23.45 0 11.9 0 0 Z " fill="#0A090B" transform="translate(292,200)"/>
<path d="M0 0 C2.97 0 5.94 0 9 0 C10.32 2.97 11.64 5.94 13 9 C13.33 6.03 13.66 3.06 14 0 C16.97 0 19.94 0 23 0 C23 11.55 23 23.1 23 35 C20.03 35 17.06 35 14 35 C11 29.375 11 29.375 11 26 C10.34 26 9.68 26 9 26 C9 28.97 9 31.94 9 35 C6.03 35 3.06 35 0 35 C0 23.45 0 11.9 0 0 Z " fill="#151519" transform="translate(432,200)"/>
<path d="M0 0 C3.35131416 2.46938938 4.81159091 5.03863636 6 9 C6 10.32 6 11.64 6 13 C5.01 13.495 5.01 13.495 4 14 C4.66 14.33 5.32 14.66 6 15 C6.59778598 27.24354244 6.59778598 27.24354244 3 33 C-1.44386404 36.20371594 -5.69453071 36.75187289 -11 36 C-15.16912023 34.66273502 -16.57499092 33.7985325 -18.64453125 29.91015625 C-20.305077 25.76013319 -20.44626316 21.9262343 -20.375 17.5 C-20.38660156 16.77941406 -20.39820313 16.05882812 -20.41015625 15.31640625 C-20.3823419 10.18929411 -19.52500389 6.49393951 -17 2 C-11.90513877 -1.53726066 -5.79011963 -1.47206431 0 0 Z M-9 8 C-11.86336371 10.86336371 -11.30016187 12.95228346 -11.3125 16.9375 C-11.32925781 18.18402344 -11.34601563 19.43054688 -11.36328125 20.71484375 C-11.27350718 23.94730144 -11.27350718 23.94730144 -9.6171875 25.9609375 C-8.00730897 27.2443844 -8.00730897 27.2443844 -5.8125 26.6875 C-4.9153125 26.3471875 -4.9153125 26.3471875 -4 26 C-4 25.01 -4 24.02 -4 23 C-5.32 23 -6.64 23 -8 23 C-8.33 20.36 -8.66 17.72 -9 15 C-5.535 14.505 -5.535 14.505 -2 14 C-2.62533375 11.47636012 -2.62533375 11.47636012 -4 9 C-6.44539786 7.92727438 -6.44539786 7.92727438 -9 8 Z " fill="#111116" transform="translate(391,200)"/>
<path d="M0 0 C2.97 0 5.94 0 9 0 C10.32 3.3 11.64 6.6 13 10 C13.33 6.7 13.66 3.4 14 0 C16.97 0 19.94 0 23 0 C23 11.55 23 23.1 23 35 C20.03 35 17.06 35 14 35 C12.68 32.03 11.36 29.06 10 26 C9.67 28.97 9.34 31.94 9 35 C6.03 35 3.06 35 0 35 C0 23.45 0 11.9 0 0 Z " fill="#16161A" transform="translate(219,200)"/>
<path d="M0 0 C2.64 0 5.28 0 8 0 C8 2.31 8 4.62 8 7 C8.78375 6.21625 9.5675 5.4325 10.375 4.625 C15 0 15 0 16.9453125 -0.1953125 C18.96354167 -0.13020833 20.98177083 -0.06510417 23 0 C22.59363086 4.47006057 20.78177156 6.85228966 17.9609375 10.15625 C16.5606458 12.84298854 17.13054432 14.10855438 18 17 C18.96456491 19.7518893 20.00292316 22.47095148 21.0625 25.1875 C24 32.73627002 24 32.73627002 24 35 C20.7 35 17.4 35 14 35 C12.68 31.37 11.36 27.74 10 24 C9.67 24 9.34 24 9 24 C8.67 27.63 8.34 31.26 8 35 C5.36 35 2.72 35 0 35 C0 23.45 0 11.9 0 0 Z " fill="#0D0D0F" transform="translate(256,200)"/>
<path d="M0 0 C2.97 0 5.94 0 9 0 C10.14555837 4.340021 11.28469786 8.68166095 12.41796875 13.02490234 C12.80423656 14.50159898 13.19224196 15.97784226 13.58203125 17.45361328 C14.14262096 19.57727583 14.69690226 21.70250061 15.25 23.828125 C15.42499023 24.48556702 15.59998047 25.14300903 15.78027344 25.82037354 C16.61212245 29.04221933 17 31.63530998 17 35 C14.36 35 11.72 35 9 35 C8.01 32.69 7.02 30.38 6 28 C4.68 28 3.36 28 2 28 C1.01 31.465 1.01 31.465 0 35 C-2.97 35 -5.94 35 -9 35 C-8.3237051 29.39426672 -7.08749547 24.0745367 -5.625 18.625 C-5.41617187 17.82578125 -5.20734375 17.0265625 -4.9921875 16.203125 C-3.53757954 10.72173646 -1.83843934 5.36480253 0 0 Z " fill="#111115" transform="translate(343,200)"/>
<path d="M0 0 C6.6 0 13.2 0 20 0 C20 2.64 20 5.28 20 8 C16.04 8 12.08 8 8 8 C8 9.65 8 11.3 8 13 C10.64 13 13.28 13 16 13 C17.0625 14.75 17.0625 14.75 18 17 C17.67 18.32 17.34 19.64 17 21 C14.03 21 11.06 21 8 21 C8.33 22.98 8.66 24.96 9 27 C9.99 26.67 10.98 26.34 12 26 C14.70123106 26.16011121 17.31875231 26.60440608 20 27 C20 29.64 20 32.28 20 35 C13.4 35 6.8 35 0 35 C0 23.45 0 11.9 0 0 Z " fill="#15151B" transform="translate(469,200)"/>
<path d="M0 0 C2.64 0 5.28 0 8 0 C8 11.55 8 23.1 8 35 C5.36 35 2.72 35 0 35 C-0.91805618 31.09575413 -1.12882792 27.4635279 -1.1328125 23.45703125 C-1.13410156 22.21888672 -1.13539063 20.98074219 -1.13671875 19.70507812 C-1.13285156 18.42052734 -1.12898437 17.13597656 -1.125 15.8125 C-1.12886719 14.51634766 -1.13273438 13.22019531 -1.13671875 11.88476562 C-1.13542969 10.65048828 -1.13414062 9.41621094 -1.1328125 8.14453125 C-1.13168457 7.01378174 -1.13055664 5.88303223 -1.12939453 4.71801758 C-1 2 -1 2 0 0 Z " fill="#0F1014" transform="translate(197,200)"/>
<path d="M0 0 C2.64 0 5.28 0 8 0 C8 11.55 8 23.1 8 35 C5.36 35 2.72 35 0 35 C0 23.45 0 11.9 0 0 Z " fill="#0B0C0F" transform="translate(410,200)"/>
<path d="M0 0 C3.875 1.875 3.875 1.875 5 3 C5.53821792 5.73631801 5.96478036 8.4842058 6.40234375 11.23828125 C6.8704081 13.96433006 6.8704081 13.96433006 8.06640625 16.10546875 C9 18 9 18 9 22 C9.66 22 10.32 22 11 22 C11.05422947 23.4370809 11.09289723 24.87475462 11.125 26.3125 C11.14820313 27.11300781 11.17140625 27.91351563 11.1953125 28.73828125 C11 31 11 31 9 34 C8.87625 33.195625 8.7525 32.39125 8.625 31.5625 C8.41875 30.716875 8.2125 29.87125 8 29 C7.34 28.67 6.68 28.34 6 28 C6 29.98 6 31.96 6 34 C5.01 33.67 4.02 33.34 3 33 C2.66223316 31.2508503 2.32996329 29.50063855 2 27.75 C1.814375 26.77546875 1.62875 25.8009375 1.4375 24.796875 C1 22 1 22 1 18 C2.9375 18.6875 2.9375 18.6875 5 20 C5.75 22.625 5.75 22.625 6 25 C6.66 25 7.32 25 8 25 C7.37967524 21.53514293 7.37967524 21.53514293 6 18 C2.60521842 15.92541126 -1.0894886 15.54565275 -5 15 C-5.33 13.68 -5.66 12.36 -6 11 C-4.35 10.67 -2.7 10.34 -1 10 C-1.49371094 9.67386719 -1.98742187 9.34773437 -2.49609375 9.01171875 C-3.13675781 8.57472656 -3.77742187 8.13773438 -4.4375 7.6875 C-5.07558594 7.25824219 -5.71367187 6.82898438 -6.37109375 6.38671875 C-8 5 -8 5 -9 2 C-6.29068581 2.15481795 -4.53415961 2.48172081 -2.5546875 4.40234375 C-1.32320358 5.89771708 -0.1570163 7.4462924 1 9 C0.835 8.443125 0.67 7.88625 0.5 7.3125 C-0.04041351 4.81308751 -0.07082065 2.54954338 0 0 Z " fill="#DE8B9A" transform="translate(146,189)"/>
<path d="M0 0 C0.66 0 1.32 0 2 0 C1.67 2.31 1.34 4.62 1 7 C0.34 7 -0.32 7 -1 7 C-1 7.99 -1 8.98 -1 10 C2.19199167 7.58443874 4.74716687 5.31996462 7 2 C8.32 2.33 9.64 2.66 11 3 C8.75953952 6.4196502 6.4943212 7.95454369 3 10 C1.63015802 11.29579647 0.2848951 12.61992749 -1 14 C-0.01 14 0.98 14 2 14 C2 13.34 2 12.68 2 12 C3.98 11.67 5.96 11.34 8 11 C7.3125 12.921875 7.3125 12.921875 6 15 C3.6875 15.765625 3.6875 15.765625 1 16.25 C-1.69501011 16.84956208 -1.69501011 16.84956208 -4 18 C-5.55760558 20.77828229 -5.68144114 22.76131829 -6 26 C-4.68 23.36 -3.36 20.72 -2 18 C-1.01 18 -0.02 18 1 18 C0.49396008 20.16874252 0.00016187 21.99967627 -1 24 C-1.66 24 -2.32 24 -3 24 C-3.66 25.32 -4.32 26.64 -5 28 C-5.99 28 -6.98 28 -8 28 C-8.33 28.99 -8.66 29.98 -9 31 C-9.63854926 24.35908768 -7.95453443 20.0174371 -5.23828125 13.98046875 C-4.10555242 11.25405836 -3.38429495 8.76186719 -2.8125 5.875 C-2 2 -2 2 0 0 Z " fill="#D6788A" transform="translate(115,189)"/>
<path d="M0 0 C1.5 1.0625 1.5 1.0625 3 3 C3.1875 6.6875 3.1875 6.6875 3 10 C2.34 10 1.68 10 1 10 C0.67 12.31 0.34 14.62 0 17 C1.65 17 3.3 17 5 17 C4.75 19.375 4.75 19.375 4 22 C2.0625 23.1875 2.0625 23.1875 0 24 C-0.66 24.66 -1.32 25.32 -2 26 C-2.66 26 -3.32 26 -4 26 C-4.33 26.66 -4.66 27.32 -5 28 C-5.66 28 -6.32 28 -7 28 C-7.33 26.35 -7.66 24.7 -8 23 C-7.34 23 -6.68 23 -6 23 C-6 21.02 -6 19.04 -6 17 C-3 18 -3 18 -2 20 C-1.505 15.545 -1.505 15.545 -1 11 C-1.66 11 -2.32 11 -3 11 C-3.99 8.03 -4.98 5.06 -6 2 C-4.7934375 1.7834375 -4.7934375 1.7834375 -3.5625 1.5625 C-1.07896294 1.25864751 -1.07896294 1.25864751 0 0 Z " fill="#FDE1E6" transform="translate(158,200)"/>
<path d="M0 0 C0.66 0 1.32 0 2 0 C2 11.55 2 23.1 2 35 C-0.64 35 -3.28 35 -6 35 C-6 25.1 -6 15.2 -6 5 C-5.67 5 -5.34 5 -5 5 C-4.67 13.58 -4.34 22.16 -4 31 C-3.67 22.09 -3.34 13.18 -3 4 C-2.34 4 -1.68 4 -1 4 C-0.67 13.57 -0.34 23.14 0 33 C0 22.11 0 11.22 0 0 Z " fill="#1F2025" transform="translate(416,200)"/>
<path d="M0 0 C6.93359375 2.05078125 6.93359375 2.05078125 9 3 C10.10370043 6.3111013 9.92673641 8.24748949 9.5625 11.6875 C9.46066406 12.68136719 9.35882813 13.67523438 9.25390625 14.69921875 C9.17011719 15.45847656 9.08632812 16.21773437 9 17 C6.03 17 3.06 17 0 17 C0 11.39 0 5.78 0 0 Z " fill="#1D1C25" transform="translate(219,218)"/>
<path d="M0 0 C0.66 0.66 1.32 1.32 2 2 C-4.74487472 13.89066059 -4.74487472 13.89066059 -12 17 C-10.02 17.99 -8.04 18.98 -6 20 C-8 22 -8 22 -10.25 22.25 C-13.39827227 21.96379343 -16.04533667 21.09940961 -19 20 C-19 19.34 -19 18.68 -19 18 C-21.64 18 -24.28 18 -27 18 C-26.01 17.67 -25.02 17.34 -24 17 C-24 16.34 -24 15.68 -24 15 C-23.01 15 -22.02 15 -21 15 C-21 15.66 -21 16.32 -21 17 C-18.03 16.34 -15.06 15.68 -12 15 C-11.87882813 14.31292969 -11.75765625 13.62585938 -11.6328125 12.91796875 C-11.46523437 12.01691406 -11.29765625 11.11585938 -11.125 10.1875 C-10.96257812 9.29417969 -10.80015625 8.40085938 -10.6328125 7.48046875 C-10 5 -10 5 -8 2 C-7.34 2 -6.68 2 -6 2 C-6 3.65 -6 5.3 -6 7 C-6.66 7 -7.32 7 -8 7 C-8.66 8.98 -9.32 10.96 -10 13 C-7.03595495 10.19195732 -4.55500981 7.81684226 -3 4 C-2.34 4 -1.68 4 -1 4 C-0.67 2.68 -0.34 1.36 0 0 Z " fill="#D26B7E" transform="translate(154,224)"/>
<path d="M0 0 C0.33 0 0.66 0 1 0 C0.9175 0.70125 0.835 1.4025 0.75 2.125 C1.08100634 5.9315729 2.85738955 7.88347571 5 11 C5.75 13.875 5.75 13.875 6 16 C6.33 15.34 6.66 14.68 7 14 C10.9126984 15.3042328 13.37310241 16.78934739 16 20 C16 20.99 16 21.98 16 23 C8.93605926 22.5585037 4.28107458 19.78394206 -1.0625 15.25 C-3.05642254 10.4645859 -1.27918022 4.85206292 0 0 Z " fill="#F9CAD0" transform="translate(114,218)"/>
<path d="M0 0 C0.33 0 0.66 0 1 0 C1.33 2.64 1.66 5.28 2 8 C2.33 8 2.66 8 3 8 C3 13.94 3 19.88 3 26 C3.99 25.67 4.98 25.34 6 25 C6.77842938 28.40562852 7.09978121 31.50765756 7 35 C4.69 35 2.38 35 0 35 C0 23.45 0 11.9 0 0 Z " fill="#15141B" transform="translate(292,200)"/>
<path d="M0 0 C4.95 0 9.9 0 15 0 C15 2.64 15 5.28 15 8 C10.05 8.33 5.1 8.66 0 9 C-1 6 -1 6 0 3.9375 C0.33 3.298125 0.66 2.65875 1 2 C0.67 1.34 0.34 0.68 0 0 Z " fill="#0F0F12" transform="translate(474,200)"/>
<path d="M0 0 C0.33 1.32 0.66 2.64 1 4 C-1.97 3.505 -1.97 3.505 -5 3 C-4.79375 3.721875 -4.5875 4.44375 -4.375 5.1875 C-3.94047789 8.44641585 -4.58319331 10.08304504 -6 13 C-5.67 13.33 -5.34 13.66 -5 14 C-4.76470588 19.52941176 -4.76470588 19.52941176 -6 22 C-6.66 21.67 -7.32 21.34 -8 21 C-8 18.69 -8 16.38 -8 14 C-8.99 14.495 -8.99 14.495 -10 15 C-10.46751788 17.35599235 -10.46751788 17.35599235 -10.625 20.0625 C-10.69976562 20.98160156 -10.77453125 21.90070313 -10.8515625 22.84765625 C-10.90054688 23.55792969 -10.94953125 24.26820313 -11 25 C-11.66 24.67 -12.32 24.34 -13 24 C-14.6252073 17.03482587 -14.6252073 17.03482587 -12.1875 13 C-10 11 -10 11 -8 11 C-7.34 9.02 -6.68 7.04 -6 5 C-6.99 5 -7.98 5 -9 5 C-9.268125 6.11375 -9.53625 7.2275 -9.8125 8.375 C-11 12 -11 12 -14 14 C-13.62054704 10.87932656 -13.10284231 7.95141609 -12 5 C-9.25 3.0625 -9.25 3.0625 -6 2 C-4.88625 1.608125 -3.7725 1.21625 -2.625 0.8125 C-1.325625 0.4103125 -1.325625 0.4103125 0 0 Z " fill="#FCE8E9" transform="translate(122,202)"/>
<path d="M0 0 C0.66 0 1.32 0 2 0 C2.6708712 1.6232687 3.33657029 3.24867578 4 4.875 C4.556875 6.23238281 4.556875 6.23238281 5.125 7.6171875 C6 10 6 10 6 12 C2.7 12 -0.6 12 -4 12 C-4.66 9.03 -5.32 6.06 -6 3 C-4.02 2.67 -2.04 2.34 0 2 C0 1.34 0 0.68 0 0 Z " fill="#121316" transform="translate(274,223)"/>
<path d="M0 0 C0.33 0.66 0.66 1.32 1 2 C2.65 2 4.3 2 6 2 C5.690625 2.598125 5.38125 3.19625 5.0625 3.8125 C3.89790296 6.08956772 3.89790296 6.08956772 3 9 C-0.0625 10.1875 -0.0625 10.1875 -3 11 C-3 10.34 -3 9.68 -3 9 C-3.99 9.33 -4.98 9.66 -6 10 C-6 10.66 -6 11.32 -6 12 C-5.34 12.33 -4.68 12.66 -4 13 C-4 13.99 -4 14.98 -4 16 C-4.99 15.67 -5.98 15.34 -7 15 C-7.33 14.34 -7.66 13.68 -8 13 C-10.52733235 12.34444881 -10.52733235 12.34444881 -13 12 C-8.48306148 8.11041405 -8.48306148 8.11041405 -5.8125 7.5 C-3.80991375 7.17179616 -3.80991375 7.17179616 -2.875 5.125 C-2.441875 4.073125 -2.441875 4.073125 -2 3 C-1.34 2.01 -0.68 1.02 0 0 Z " fill="#F9CFD7" transform="translate(153,230)"/>
<path d="M0 0 C2.64 0.33 5.28 0.66 8 1 C8 3.64 8 6.28 8 9 C6.68 9 5.36 9 4 9 C3.67 9.66 3.34 10.32 3 11 C2.34 11 1.68 11 1 11 C1 11.66 1 12.32 1 13 C1.66 13.33 2.32 13.66 3 14 C0.5625 13.625 0.5625 13.625 -2 13 C-2.33 12.34 -2.66 11.68 -3 11 C-2.01 11 -1.02 11 0 11 C0 7.37 0 3.74 0 0 Z " fill="#0C0C0E" transform="translate(233,200)"/>
<path d="M0 0 C2.64 0 5.28 0 8 0 C8 1.65 8 3.3 8 5 C6.35 4.67 4.7 4.34 3 4 C2.11436911 7.79074537 1.88318699 11.28695898 1.90234375 15.17578125 C1.90556641 16.33271484 1.90878906 17.48964844 1.91210938 18.68164062 C1.92048828 19.87982422 1.92886719 21.07800781 1.9375 22.3125 C1.94201172 23.53001953 1.94652344 24.74753906 1.95117188 26.00195312 C1.96293422 29.00135226 1.97937174 32.00065089 2 35 C1.34 35 0.68 35 0 35 C0 23.45 0 11.9 0 0 Z " fill="#1F1F26" transform="translate(256,200)"/>
<path d="M0 0 C2.38672669 2.96283313 4.7353371 5.94270509 7 9 C6.06027344 8.98259766 6.06027344 8.98259766 5.1015625 8.96484375 C3.87566406 8.95130859 3.87566406 8.95130859 2.625 8.9375 C1.40683594 8.92009766 1.40683594 8.92009766 0.1640625 8.90234375 C-2.04937142 8.85533666 -2.04937142 8.85533666 -4 10 C-4.66 9.67 -5.32 9.34 -6 9 C-6.73075648 6.6859378 -7.40138258 4.35171131 -8 2 C-4.94736336 1.01879536 -3.05263664 1.01879536 0 2 C0 1.34 0 0.68 0 0 Z " fill="#F9E0E2" transform="translate(109,229)"/>
<path d="M0 0 C3 1 3 1 4 3 C4.598125 2.505 5.19625 2.01 5.8125 1.5 C8 0 8 0 11 0 C10.75 2.375 10.75 2.375 10 5 C8.0625 6.1875 8.0625 6.1875 6 7 C5.34 7.66 4.68 8.32 4 9 C3.34 9 2.68 9 2 9 C1.67 9.66 1.34 10.32 1 11 C0.34 11 -0.32 11 -1 11 C-1.33 9.35 -1.66 7.7 -2 6 C-1.34 6 -0.68 6 0 6 C0 4.02 0 2.04 0 0 Z " fill="#F5B7C3" transform="translate(152,217)"/>
<path d="M0 0 C1 3 1 3 0.625 5.5625 C-1.35488256 8.53232384 -2.23605162 8.56650507 -5.625 9.3125 C-7.07988435 9.56262996 -8.53760185 9.79839367 -10 10 C-9.17037314 6.10905005 -7.80782206 3.88581711 -5 1 C-2.25 0.1875 -2.25 0.1875 0 0 Z " fill="#FCD3DA" transform="translate(143,231)"/>
<path d="M0 0 C0.33 0 0.66 0 1 0 C3.6619965 9.6497373 3.6619965 9.6497373 3 14 C1.53553552 16.37363016 0.00326074 17.99673926 -2 20 C-2.66 20 -3.32 20 -4 20 C-3.34 18.02 -2.68 16.04 -2 14 C-1.34 14 -0.68 14 0 14 C0 12.35 0 10.7 0 9 C-0.99 9.33 -1.98 9.66 -3 10 C-2.21302675 6.58978257 -1.12880057 3.31114834 0 0 Z " fill="#FCDAE3" transform="translate(148,217)"/>
<path d="M0 0 C3.27914568 0.56536994 4.93380808 1.3703012 7 4 C8.64883942 7.38445986 9 9.13754696 9 13 C8.34 13 7.68 13 7 13 C6.67 11.35 6.34 9.7 6 8 C4.35 8.66 2.7 9.32 1 10 C-0.08209949 6.75370153 0.21859125 6.12563502 1 3 C0.67 2.01 0.34 1.02 0 0 Z " fill="#1F1E25" transform="translate(388,200)"/>
<path d="M0 0 C0.33 1.32 0.66 2.64 1 4 C-1.97 3.505 -1.97 3.505 -5 3 C-4.814375 3.78375 -4.62875 4.5675 -4.4375 5.375 C-4 8 -4 8 -5 10 C-5.99 9.67 -6.98 9.34 -8 9 C-7.34 7.68 -6.68 6.36 -6 5 C-6.99 5 -7.98 5 -9 5 C-9.268125 6.11375 -9.53625 7.2275 -9.8125 8.375 C-11 12 -11 12 -14 14 C-13.62054704 10.87932656 -13.10284231 7.95141609 -12 5 C-9.25 3.0625 -9.25 3.0625 -6 2 C-4.88625 1.608125 -3.7725 1.21625 -2.625 0.8125 C-1.325625 0.4103125 -1.325625 0.4103125 0 0 Z " fill="#FAD1D8" transform="translate(122,202)"/>
<path d="M0 0 C1.1446875 0.2475 1.1446875 0.2475 2.3125 0.5 C5.00856207 1.00159294 6.44020291 0.8532657 9 0 C8.34 2.31 7.68 4.62 7 7 C4.69 7 2.38 7 0 7 C-0.38133299 5.0085944 -0.71325582 3.00720923 -1 1 C-0.67 0.67 -0.34 0.34 0 0 Z " fill="#131219" transform="translate(303,228)"/>
<path d="M0 0 C2.4375 0.8125 2.4375 0.8125 5 2 C6.10370043 5.3111013 5.92673641 7.24748949 5.5625 10.6875 C5.46066406 11.68136719 5.35882813 12.67523438 5.25390625 13.69921875 C5.12822266 14.83810547 5.12822266 14.83810547 5 16 C4.34 15.67 3.68 15.34 3 15 C3.33 12.36 3.66 9.72 4 7 C1.83656989 9.03268602 1.83656989 9.03268602 0 12 C-0.19477739 10.37585622 -0.38059458 8.75063577 -0.5625 7.125 C-0.66691406 6.22007812 -0.77132812 5.31515625 -0.87890625 4.3828125 C-1 2 -1 2 0 0 Z " fill="#2B2C2E" transform="translate(223,219)"/>
<path d="M0 0 C1.0326802 2.78823655 1.04509293 3.8677274 0.0625 6.75 C-0.288125 7.4925 -0.63875 8.235 -1 9 C-3.31 9 -5.62 9 -8 9 C-8 9.66 -8 10.32 -8 11 C-9.32 11.33 -10.64 11.66 -12 12 C-10.48594726 7.45784179 -6.83923277 4.94447088 -2.6875 2.8125 C-2.130625 2.544375 -1.57375 2.27625 -1 2 C-0.67 1.34 -0.34 0.68 0 0 Z " fill="#F9D2D6" transform="translate(125,192)"/>
<path d="M0 0 C1.65 0 3.3 0 5 0 C4.67 2.31 4.34 4.62 4 7 C6.64 7 9.28 7 12 7 C12 7.33 12 7.66 12 8 C6.06 8.495 6.06 8.495 0 9 C-1 6 -1 6 0 3.9375 C0.33 3.298125 0.66 2.65875 1 2 C0.67 1.34 0.34 0.68 0 0 Z " fill="#09090D" transform="translate(474,200)"/>
<path d="M0 0 C0.99 0.33 1.98 0.66 3 1 C1.60466338 5.43970742 -0.56128532 7.90515679 -4 11 C-4.99 11.495 -4.99 11.495 -6 12 C-6 10.68 -6 9.36 -6 8 C-5.34 7.67 -4.68 7.34 -4 7 C-3.7834375 6.01 -3.7834375 6.01 -3.5625 5 C-3.376875 4.34 -3.19125 3.68 -3 3 C-2.01 2.67 -1.02 2.34 0 2 C0 1.34 0 0.68 0 0 Z " fill="#DFDFE6" transform="translate(168,240)"/>
<path d="M0 0 C0.268125 0.639375 0.53625 1.27875 0.8125 1.9375 C1.88667752 4.33131686 1.88667752 4.33131686 5 5 C5.99 4.67 6.98 4.34 8 4 C8.33 5.65 8.66 7.3 9 9 C2.84765625 9.09765625 2.84765625 9.09765625 1 9 C0 8 0 8 -0.09765625 6.15234375 C-0.06510417 4.1015625 -0.03255208 2.05078125 0 0 Z " fill="#2D2D3B" transform="translate(313,226)"/>
<path d="M0 0 C0.9075 0.165 1.815 0.33 2.75 0.5 C6.11087503 1.10137146 6.11087503 1.10137146 10 1 C10 1.66 10 2.32 10 3 C3.88019467 4.40454548 -1.71739294 5.23268915 -8 5 C-8 4.67 -8 4.34 -8 4 C-7.05125 3.896875 -6.1025 3.79375 -5.125 3.6875 C-1.70892499 3.31460705 -1.70892499 3.31460705 0 0 Z " fill="#E7E6EE" transform="translate(136,259)"/>
<path d="M0 0 C2.31 0 4.62 0 7 0 C7.66 1.32 8.32 2.64 9 4 C8 5 8 5 6.15234375 5.09765625 C4.1015625 5.06510417 2.05078125 5.03255208 0 5 C0 3.33333333 0 1.66666667 0 0 Z " fill="#191A24" transform="translate(478,213)"/>
<path d="M0 0 C0 0.33 0 0.66 0 1 C-1.07121094 1.06058594 -2.14242187 1.12117187 -3.24609375 1.18359375 C-4.64324391 1.26798537 -6.04037857 1.35263406 -7.4375 1.4375 C-8.49807617 1.49647461 -8.49807617 1.49647461 -9.58007812 1.55664062 C-13.08690419 1.47624438 -13.08690419 1.47624438 -16 3 C-18.33297433 3.04092937 -20.66705225 3.04241723 -23 3 C-15.64498717 -1.11880719 -8.14779224 -1.97522236 0 0 Z " fill="#FDE1E2" transform="translate(140,244)"/>
<path d="M0 0 C0.66 0.33 1.32 0.66 2 1 C2 2.98 2 4.96 2 7 C0.02 7 -1.96 7 -4 7 C-4.33 5.35 -4.66 3.7 -5 2 C-3.35 2 -1.7 2 0 2 C0 1.34 0 0.68 0 0 Z " fill="#080709" transform="translate(393,207)"/>
<path d="M0 0 C5.37305699 -0.35233161 5.37305699 -0.35233161 8 0 C10 2 10 2 11 4 C7.42355152 5.2380014 4.66305234 4.74926071 1 4 C0.67 2.68 0.34 1.36 0 0 Z " fill="#E48F9F" transform="translate(140,200)"/>
<path d="M0 0 C1.2065625 0.0309375 1.2065625 0.0309375 2.4375 0.0625 C2.7675 1.7125 3.0975 3.3625 3.4375 5.0625 C1.0625 6.125 1.0625 6.125 -1.5625 7.0625 C-2.2225 6.7325 -2.8825 6.4025 -3.5625 6.0625 C-3.605221 4.39638095 -3.60313832 2.72867115 -3.5625 1.0625 C-2.5625 0.0625 -2.5625 0.0625 0 0 Z " fill="#0A0B0E" transform="translate(223.5625,199.9375)"/>
<path d="M0 0 C0.33 1.65 0.66 3.3 1 5 C-2.3 5 -5.6 5 -9 5 C-9 3.68 -9 2.36 -9 1 C-7.02 1.99 -7.02 1.99 -5 3 C-4.319375 2.2575 -4.319375 2.2575 -3.625 1.5 C-2 0 -2 0 0 0 Z " fill="#1E1E28" transform="translate(279,230)"/>
<path d="M0 0 C0.391875 0.433125 0.78375 0.86625 1.1875 1.3125 C3.01796997 3.13582629 3.01796997 3.13582629 5.625 4.5625 C8 6 8 6 9 8 C7.35 8.33 5.7 8.66 4 9 C4 9.66 4 10.32 4 11 C3.01 11 2.02 11 1 11 C1 9.68 1 8.36 1 7 C1.99 6.67 2.98 6.34 4 6 C2.68 5.34 1.36 4.68 0 4 C0 2.68 0 1.36 0 0 Z " fill="#F8CED6" transform="translate(137,192)"/>
<path d="M0 0 C0.66 0 1.32 0 2 0 C2.33 0.66 2.66 1.32 3 2 C3.99 2.66 4.98 3.32 6 4 C5.04882866 5.1725131 4.08882991 6.33787015 3.125 7.5 C2.59132813 8.1496875 2.05765625 8.799375 1.5078125 9.46875 C1.01023437 9.9740625 0.51265625 10.479375 0 11 C-0.66 11 -1.32 11 -2 11 C-2 10.01 -2 9.02 -2 8 C-1.34 8 -0.68 8 0 8 C0 5.36 0 2.72 0 0 Z " fill="#FCD6DE" transform="translate(116,188)"/>
<path d="M0 0 C0.99 0.33 1.98 0.66 3 1 C2.34 1 1.68 1 1 1 C1.99 4.3 2.98 7.6 4 11 C-0.38635744 8.80682128 -1.51256905 7.08649371 -4 3 C-2.68 2.67 -1.36 2.34 0 2 C0 1.34 0 0.68 0 0 Z " fill="#FCDADC" transform="translate(145,188)"/>
<path d="M0 0 C2.5 1.375 2.5 1.375 5 3 C5 3.66 5 4.32 5 5 C4.34 5 3.68 5 3 5 C2.67 5.66 2.34 6.32 2 7 C1.34 7 0.68 7 0 7 C0 7.66 0 8.32 0 9 C0.66 9.33 1.32 9.66 2 10 C-0.4375 9.625 -0.4375 9.625 -3 9 C-3.33 8.34 -3.66 7.68 -4 7 C-3.01 6.67 -2.02 6.34 -1 6 C-0.67 4.02 -0.34 2.04 0 0 Z " fill="#07060A" transform="translate(234,204)"/>
<path d="M0 0 C0.66 0 1.32 0 2 0 C1.67 3.63 1.34 7.26 1 11 C0.01 11 -0.98 11 -2 11 C-1.85957123 9.35369672 -1.71250671 7.70795821 -1.5625 6.0625 C-1.48128906 5.14597656 -1.40007812 4.22945312 -1.31640625 3.28515625 C-1 1 -1 1 0 0 Z " fill="#D9788B" transform="translate(112,216)"/>
<path d="M0 0 C2.625 0.9375 2.625 0.9375 5 2 C5.33 4.31 5.66 6.62 6 9 C5.34 9 4.68 9 4 9 C3.731875 8.21625 3.46375 7.4325 3.1875 6.625 C2.15185568 3.71885077 2.15185568 3.71885077 -1 2 C-1.33 2.99 -1.66 3.98 -2 5 C-2 3.68 -2 2.36 -2 1 C-1.34 0.67 -0.68 0.34 0 0 Z " fill="#FAD0D9" transform="translate(148,205)"/>
<path d="M0 0 C2.375 0.625 2.375 0.625 5 2 C6.3125 5.125 6.3125 5.125 7 8 C4.625 7.375 4.625 7.375 2 6 C0.6875 2.875 0.6875 2.875 0 0 Z " fill="#D15D76" transform="translate(99,216)"/>
<path d="M0 0 C0.99 0.33 1.98 0.66 3 1 C3 1.66 3 2.32 3 3 C3.33 3.99 3.66 4.98 4 6 C3.360625 6.103125 2.72125 6.20625 2.0625 6.3125 C1.381875 6.539375 0.70125 6.76625 0 7 C-0.33 7.99 -0.66 8.98 -1 10 C-1.02689216 8.52093108 -1.04634621 7.04172517 -1.0625 5.5625 C-1.07410156 4.73878906 -1.08570313 3.91507813 -1.09765625 3.06640625 C-1 1 -1 1 0 0 Z " fill="#070709" transform="translate(448,200)"/>
<path d="M0 0 C-0.7109375 1.921875 -0.7109375 1.921875 -2 4 C-4.1640625 4.828125 -4.1640625 4.828125 -6.625 5.25 C-7.85089844 5.47429687 -7.85089844 5.47429687 -9.1015625 5.703125 C-9.72804688 5.80109375 -10.35453125 5.8990625 -11 6 C-10.67 5.01 -10.34 4.02 -10 3 C-8.68 3 -7.36 3 -6 3 C-6 2.34 -6 1.68 -6 1 C-4 0 -4 0 0 0 Z " fill="#D67185" transform="translate(123,200)"/>
<path d="M0 0 C1.65 0 3.3 0 5 0 C5 0.99 5 1.98 5 3 C4.01 3.66 3.02 4.32 2 5 C1.27034634 7.56282742 1.27034634 7.56282742 1 10 C0.67 10 0.34 10 0 10 C0 6.7 0 3.4 0 0 Z " fill="#15151F" transform="translate(233,200)"/>
<path d="M0 0 C0.66 0 1.32 0 2 0 C3.46842878 6.24082232 3.46842878 6.24082232 1.1875 9.9375 C-1 12 -1 12 -3 12 C-2.34 10.02 -1.68 8.04 -1 6 C-0.34 6 0.32 6 1 6 C0.67 4.02 0.34 2.04 0 0 Z " fill="#F5C1CA" transform="translate(147,225)"/>
<path d="M0 0 C0.66 0 1.32 0 2 0 C2.99 2.97 3.98 5.94 5 9 C1 8 1 8 -1 5 C-0.625 2.3125 -0.625 2.3125 0 0 Z " fill="#1C1A28" transform="translate(226,200)"/>
<path d="M0 0 C0.66 0.33 1.32 0.66 2 1 C2.1875 3.875 2.1875 3.875 2 7 C1.01 7.66 0.02 8.32 -1 9 C-1.625 6.1875 -1.625 6.1875 -2 3 C-1.34 2.01 -0.68 1.02 0 0 Z " fill="#D4576C" transform="translate(158,200)"/>
<path d="M0 0 C1.5 1.1875 1.5 1.1875 3 3 C3.1875 5.6875 3.1875 5.6875 3 8 C2.01 8 1.02 8 0 8 C-0.38063221 5.6739143 -0.71269945 3.33944736 -1 1 C-0.67 0.67 -0.34 0.34 0 0 Z " fill="#CF5973" transform="translate(104,200)"/>
<path d="M0 0 C-0.47730838 1.4589426 -0.95691042 2.91713496 -1.4375 4.375 C-1.70433594 5.18710938 -1.97117187 5.99921875 -2.24609375 6.8359375 C-3 9 -3 9 -4 11 C-4.66 11 -5.32 11 -6 11 C-5.67 7.7 -5.34 4.4 -5 1 C-2 0 -2 0 0 0 Z " fill="#F9C1CA" transform="translate(111,201)"/>
<path d="M0 0 C2.97 0 5.94 0 9 0 C8.67 0.99 8.34 1.98 8 3 C8 2.34 8 1.68 8 1 C7.34 1.66 6.68 2.32 6 3 C4.34178227 3.37309899 2.67422986 3.70700977 1 4 C0.01 4.495 0.01 4.495 -1 5 C-0.67 3.35 -0.34 1.7 0 0 Z " fill="#19192C" transform="translate(343,200)"/>
<path d="M0 0 C0.66 0.66 1.32 1.32 2 2 C-0.31 2.33 -2.62 2.66 -5 3 C-5.66 2.01 -6.32 1.02 -7 0 C-4.29393021 -1.35303489 -2.8671629 -0.7884698 0 0 Z " fill="#D2536E" transform="translate(146,243)"/>
<path d="M0 0 C0.66 0 1.32 0 2 0 C1.67 2.31 1.34 4.62 1 7 C0.01 7.33 -0.98 7.66 -2 8 C-2.125 5.125 -2.125 5.125 -2 2 C-1.34 1.34 -0.68 0.68 0 0 Z " fill="#CC556D" transform="translate(115,189)"/>
<path d="M0 0 C1.32 0.66 2.64 1.32 4 2 C3.01 2 2.02 2 1 2 C1 2.66 1 3.32 1 4 C-1.97 4.66 -4.94 5.32 -8 6 C-7.67 5.01 -7.34 4.02 -7 3 C-5.5459375 2.814375 -5.5459375 2.814375 -4.0625 2.625 C-2.5465625 2.315625 -2.5465625 2.315625 -1 2 C-0.67 1.34 -0.34 0.68 0 0 Z " fill="#FBE7EB" transform="translate(144,186)"/>
<path d="M0 0 C2.3125 -0.25 2.3125 -0.25 5 0 C6.8125 2 6.8125 2 8 4 C6.02 4 4.04 4 2 4 C1.34 2.68 0.68 1.36 0 0 Z " fill="#D44A65" transform="translate(104,232)"/>
<path d="M0 0 C0.763125 0.0825 1.52625 0.165 2.3125 0.25 C1.6525 1.57 0.9925 2.89 0.3125 4.25 C-1.6675 4.25 -3.6475 4.25 -5.6875 4.25 C-3.34903846 0.31153846 -3.34903846 0.31153846 0 0 Z " fill="#D34964" transform="translate(156.6875,231.75)"/>
<path d="M0 0 C0.99 0.33 1.98 0.66 3 1 C2.34 2.98 1.68 4.96 1 7 C-1.31 7 -3.62 7 -6 7 C-5.38125 6.95875 -4.7625 6.9175 -4.125 6.875 C-3.42375 6.58625 -2.7225 6.2975 -2 6 C-0.6954344 3.00384054 -0.6954344 3.00384054 0 0 Z " fill="#373442" transform="translate(309,228)"/>
<path d="M0 0 C0.66 0.33 1.32 0.66 2 1 C2 3.97 2 6.94 2 10 C1.34 9.67 0.68 9.34 0 9 C-0.44921875 7.1875 -0.44921875 7.1875 -0.6875 5 C-0.77386719 4.278125 -0.86023438 3.55625 -0.94921875 2.8125 C-0.96597656 2.214375 -0.98273438 1.61625 -1 1 C-0.67 0.67 -0.34 0.34 0 0 Z " fill="#F9CED5" transform="translate(109,217)"/>
<path d="M0 0 C1.65 0 3.3 0 5 0 C5.33 2.97 5.66 5.94 6 9 C5.01 9 4.02 9 3 9 C2.01 6.03 1.02 3.06 0 0 Z " fill="#FABEC7" transform="translate(152,202)"/>
<path d="M0 0 C1.98 0.99 1.98 0.99 4 2 C4 3.98 4 5.96 4 8 C2 6.8125 2 6.8125 0 5 C-0.25 2.3125 -0.25 2.3125 0 0 Z " fill="#D2506D" transform="translate(146,189)"/>
<path d="M0 0 C0.99 0 1.98 0 3 0 C2.67 1.65 2.34 3.3 2 5 C0.68 5.33 -0.64 5.66 -2 6 C-1.125 1.125 -1.125 1.125 0 0 Z " fill="#D04D66" transform="translate(160,217)"/>
<path d="M0 0 C0.66 0 1.32 0 2 0 C2.05422947 1.4370809 2.09289723 2.87475462 2.125 4.3125 C2.14820313 5.11300781 2.17140625 5.91351563 2.1953125 6.73828125 C2 9 2 9 0 12 C-0.92844389 7.66726186 -0.92844389 4.33273814 0 0 Z " fill="#C46073" transform="translate(155,211)"/>
<path d="M0 0 C3.71599191 -0.20086443 4.77208445 -0.1519437 8 2 C8 2.66 8 3.32 8 4 C5.69 3.67 3.38 3.34 1 3 C0.67 2.01 0.34 1.02 0 0 Z " fill="#FCD0D8" transform="translate(122,237)"/>
<path d="M0 0 C1.32 0.33 2.64 0.66 4 1 C1.47043472 4.0916909 -1.22454612 4.90931332 -5 6 C-3.35 4.02 -1.7 2.04 0 0 Z " fill="#CC617C" transform="translate(138,233)"/>
<path d="M0 0 C3.25543229 0.34879632 4.01873107 1.02133261 6.25 3.5625 C6.8275 4.366875 7.405 5.17125 8 6 C5.69 5.34 3.38 4.68 1 4 C0.67 2.68 0.34 1.36 0 0 Z " fill="#CE617B" transform="translate(122,233)"/>
<path d="M0 0 C0.99 0.33 1.98 0.66 3 1 C3.33 3.31 3.66 5.62 4 8 C3.34 7.67 2.68 7.34 2 7 C2 6.34 2 5.68 2 5 C1.34 5 0.68 5 0 5 C0 3.35 0 1.7 0 0 Z " fill="#D1627C" transform="translate(115,226)"/>
<path d="M0 0 C0.99 0.33 1.98 0.66 3 1 C0.75 3.5625 0.75 3.5625 -2 6 C-4.3125 5.8125 -4.3125 5.8125 -6 5 C-5.34 4.34 -4.68 3.68 -4 3 C-3.01 3 -2.02 3 -1 3 C-0.67 2.01 -0.34 1.02 0 0 Z " fill="#FCDEE5" transform="translate(135,233)"/>
<path d="M0 0 C4.875 4.75 4.875 4.75 6 7 C3.03 6.67 0.06 6.34 -3 6 C-1.68 5.34 -0.36 4.68 1 4 C0.34 3.01 -0.32 2.02 -1 1 C-0.67 0.67 -0.34 0.34 0 0 Z " fill="#F1A9B6" transform="translate(110,231)"/>
<path d="M0 0 C0.33 0.99 0.66 1.98 1 3 C-0.9375 6.1875 -0.9375 6.1875 -3 9 C-3.66 8.01 -4.32 7.02 -5 6 C-3.35 4.02 -1.7 2.04 0 0 Z " fill="#222231" transform="translate(278,200)"/>
<path d="M0 0 C2.0625 0.4375 2.0625 0.4375 4 1 C2.6875 3 2.6875 3 1 5 C0.01 5 -0.98 5 -2 5 C-1.125 1.125 -1.125 1.125 0 0 Z " fill="#CD526C" transform="translate(122,191)"/>
<path d="M0 0 C2.475 0.495 2.475 0.495 5 1 C5.33 2.32 5.66 3.64 6 5 C4.125 4.75 4.125 4.75 2 4 C0.75 1.9375 0.75 1.9375 0 0 Z " fill="#CB506B" transform="translate(137,191)"/>
<path d="M0 0 C3.34373475 0.55728913 6.03312999 1.35173889 9 3 C7 3.66666667 5 4.33333333 3 5 C2.01 3.35 1.02 1.7 0 0 Z " fill="#DEDAE4" transform="translate(146,174)"/>
<path d="M0 0 C0.99 0 1.98 0 3 0 C3 0.66 3 1.32 3 2 C4.65 2 6.3 2 8 2 C7.67 2.66 7.34 3.32 7 4 C3.7 3.67 0.4 3.34 -3 3 C-2.01 2.67 -1.02 2.34 0 2 C0 1.34 0 0.68 0 0 Z " fill="#C86173" transform="translate(130,239)"/>
<path d="M0 0 C0.99 0.33 1.98 0.66 3 1 C3.33 3.31 3.66 5.62 4 8 C2 6.25 2 6.25 0 4 C0 2.68 0 1.36 0 0 Z " fill="#E4E4EA" transform="translate(92,239)"/>
<path d="M0 0 C0.66 0.33 1.32 0.66 2 1 C2 2.98 2 4.96 2 7 C0.02 6.34 -1.96 5.68 -4 5 C-3.34 4.67 -2.68 4.34 -2 4 C-0.86649466 1.98330173 -0.86649466 1.98330173 0 0 Z " fill="#EFB3BD" transform="translate(121,232)"/>
<path d="M0 0 C0.66 0 1.32 0 2 0 C2.33 2.31 2.66 4.62 3 7 C2.01 6.67 1.02 6.34 0 6 C0 4.02 0 2.04 0 0 Z " fill="#CC5B6B" transform="translate(149,216)"/>
<path d="M0 0 C0.99 0 1.98 0 3 0 C2.67 2.64 2.34 5.28 2 8 C1.34 8 0.68 8 0 8 C0 5.36 0 2.72 0 0 Z " fill="#2D2C37" transform="translate(382,215)"/>
<path d="M0 0 C1.98 0.495 1.98 0.495 4 1 C4.33 2.65 4.66 4.3 5 6 C3.02 4.68 1.04 3.36 -1 2 C-0.67 1.34 -0.34 0.68 0 0 Z " fill="#171620" transform="translate(298,200)"/>
<path d="M0 0 C1.65 0 3.3 0 5 0 C5.33 1.65 5.66 3.3 6 5 C2.83884224 3.63016497 2.0072908 3.0109362 0 0 Z " fill="#1C1B26" transform="translate(436,200)"/>
</svg>
