<?xml version="1.0" encoding="UTF-8"?>
<svg version="1.1" xmlns="http://www.w3.org/2000/svg" width="512" height="512">
<path d="M0 0 C1.84667969 0.61914062 1.84667969 0.61914062 4 2 C5.30175781 4.64648437 5.30175781 4.64648437 6.453125 8.09375 C6.77786301 9.04755554 6.77786301 9.04755554 7.10916138 10.02062988 C7.8378713 12.17566811 8.54395628 14.33743822 9.25 16.5 C9.77462894 18.07062159 10.30021078 19.64092515 10.82666016 21.2109375 C15.81546544 36.16458859 20.57613207 51.19493723 25.35229492 66.2175293 C31.07839117 84.21330748 36.93838615 102.1635249 42.83631134 120.10357666 C43.55235179 122.28163115 44.2681123 124.45977747 44.98382568 126.63793945 C47.19428055 133.36387501 49.40828324 140.08861086 51.62939453 146.81103516 C53.13184376 151.35901613 54.62287406 155.91039174 56.10107422 160.46630859 C56.72231008 162.36686873 57.34356508 164.26742261 57.96484375 166.16796875 C58.23357803 167.00628738 58.50231232 167.84460602 58.77919006 168.70832825 C61.10863597 176.26319459 61.10863597 176.26319459 66.6221199 181.60896873 C70.44117412 183.18167815 73.67432421 183.42400231 77.73138428 183.39199829 C78.49055688 183.39793955 79.24972949 183.40388081 80.03190732 183.41000211 C82.56536761 183.42625975 85.09833484 183.42135075 87.63183594 183.41650391 C89.45211852 183.42388586 91.27239615 183.43259146 93.09266663 183.44252014 C98.02826447 183.46582799 102.96373652 183.47099162 107.89938259 183.47317934 C113.06213534 183.47884108 118.22480617 183.50211365 123.38751221 183.52377319 C133.16326729 183.56228938 142.93899892 183.58651403 152.71481061 183.60489786 C170.23817452 183.63831843 187.76146831 183.69595403 205.28474832 183.75888956 C211.4376081 183.78041993 217.59044346 183.79566721 223.74333239 183.80572915 C227.56199074 183.81272912 231.38063153 183.82360633 235.19927788 183.83537102 C236.97547737 183.83994241 238.75168226 183.84277962 240.52788734 183.84379387 C242.94414487 183.84535745 245.36031101 183.85291521 247.77655029 183.86196899 C248.48645733 183.86090074 249.19636436 183.85983249 249.92778373 183.85873187 C254.7719281 183.88596405 254.7719281 183.88596405 257 185 C256.67921474 188.05534816 256.35287405 189.62867502 254.20703125 191.88671875 C253.41683594 192.48097656 252.62664062 193.07523438 251.8125 193.6875 C250.90113281 194.3784375 249.98976563 195.069375 249.05078125 195.78125 C244.67939717 198.96043842 240.29994117 202.12533177 235.88671875 205.24609375 C224.5267585 213.28047732 213.30006267 221.49923898 202.10888672 229.76635742 C193.04893979 236.45240175 183.90963888 243.02736019 174.77050781 249.60449219 C165.41546226 256.33930616 156.10017228 263.12315685 146.83105469 269.97583008 C142.18854747 273.40310403 137.5201898 276.78795497 132.8125 280.125 C127.63359955 283.80936972 122.4868189 287.53553355 117.375 291.3125 C116.69928955 291.80443848 116.0235791 292.29637695 115.32739258 292.80322266 C111.05680914 295.9803508 107.42738477 299.14523047 105 304 C104.29382294 310.87013587 106.56096736 316.7435665 108.70703125 323.20703125 C109.0991832 324.41524033 109.49133514 325.6234494 109.89537048 326.86827087 C110.96567272 330.16502644 112.04859853 333.45750977 113.13383484 336.74937439 C114.27874304 340.22986753 115.41162376 343.7142724 116.54589844 347.19824219 C118.8944515 354.40490689 121.25669648 361.60702474 123.62286377 368.80792236 C124.93531544 372.80211839 126.24526711 376.79712983 127.55419922 380.79248047 C127.96033447 382.03215576 128.36646973 383.27183105 128.78491211 384.54907227 C129.18460205 385.76908936 129.58429199 386.98910645 129.99609375 388.24609375 C130.79536795 390.68474691 131.59468397 393.12338636 132.39404297 395.56201172 C135.87967951 406.19645311 139.36473924 416.83107899 142.84405518 427.46759033 C143.62454486 429.85266033 144.40560535 432.2375436 145.18719482 434.62225342 C147.50747324 441.70229607 149.81760321 448.78548596 152.11218262 455.87390137 C152.8213629 458.05924577 153.53409454 460.24344132 154.25061035 462.4263916 C155.23272087 465.42055131 156.20192259 468.4185941 157.16796875 471.41796875 C157.45755966 472.29118271 157.74715057 473.16439667 158.04551697 474.06407166 C159.58919393 478.91094745 160.31042356 482.91205077 160 488 C153.71564388 487.71980578 150.02645617 484.44968565 145.25 480.75 C143.54884405 479.46396102 141.84700494 478.17882529 140.14453125 476.89453125 C139.28553223 476.24178223 138.4265332 475.5890332 137.54150391 474.91650391 C133.71551303 472.03139071 129.82990774 469.23200516 125.9375 466.4375 C124.44652825 465.36340108 122.95564291 464.28918221 121.46484375 463.21484375 C120.72862793 462.68487793 119.99241211 462.15491211 119.23388672 461.60888672 C114.73476831 458.36853805 110.24175881 455.11972298 105.74755859 451.87255859 C102.012055 449.17401978 98.2751852 446.47742047 94.53515625 443.78515625 C86.02079319 437.65243321 77.54783798 431.46767211 69.10791016 425.23291016 C61.5233116 419.63567826 53.8841167 414.11591373 46.23388672 408.60888672 C43.23662362 406.45020215 40.24233834 404.28740924 37.24829102 402.12426758 C35.76072004 401.04957872 34.2729304 399.97519246 32.78491211 398.90112305 C28.83244022 396.04803145 24.88306076 393.19076809 20.9375 390.328125 C19.69806641 389.4299707 19.69806641 389.4299707 18.43359375 388.51367188 C16.84158547 387.35991307 15.25040513 386.20501074 13.66015625 385.04882812 C12.94730469 384.53255859 12.23445313 384.01628906 11.5 383.484375 C10.8709375 383.02772461 10.241875 382.57107422 9.59375 382.10058594 C6.80536391 380.17502765 4.79909034 379.73610326 1.4375 379.5625 C0.63183594 379.50191406 -0.17382812 379.44132812 -1.00390625 379.37890625 C-5.73492472 380.35965193 -9.13499987 383.1954565 -13 386 C-13.69391846 386.49056885 -14.38783691 386.9811377 -15.1027832 387.48657227 C-17.20405419 388.97694743 -19.29092424 390.48568518 -21.375 392 C-22.52838867 392.8353125 -22.52838867 392.8353125 -23.70507812 393.6875 C-30.12553995 398.34558404 -36.509679 403.05240462 -42.88989258 407.76538086 C-50.47510473 413.36334344 -58.11513125 418.88354491 -65.76611328 424.39111328 C-69.51359769 427.09012118 -73.25661201 429.79531494 -77 432.5 C-81.48610379 435.74131453 -85.97304831 438.98141954 -90.46484375 442.21484375 C-98.17463186 447.76804777 -105.85746097 453.35452596 -113.5 459 C-121.93936728 465.23196177 -130.40978633 471.41824159 -138.94140625 477.5234375 C-140.29044527 478.49105942 -141.6369049 479.46228995 -142.98046875 480.4375 C-144.77244975 481.73807178 -146.57234693 483.02678039 -148.375 484.3125 C-149.87160156 485.38951172 -149.87160156 485.38951172 -151.3984375 486.48828125 C-154 488 -154 488 -158 488 C-158.18331162 483.0713889 -157.69375795 479.19178475 -156.15844727 474.51293945 C-155.7521962 473.25786087 -155.34594513 472.00278229 -154.92738342 470.70967102 C-154.47392193 469.34414214 -154.02025674 467.97868089 -153.56640625 466.61328125 C-153.09643038 465.17425753 -152.62737064 463.73493434 -152.15916443 462.29533386 C-150.90016457 458.43276326 -149.62866672 454.57441337 -148.3548584 450.71670532 C-147.0251724 446.68211926 -145.70749469 442.64361594 -144.38867188 438.60546875 C-142.00630822 431.3162853 -139.61462279 424.03020595 -137.21816444 416.74564552 C-134.87690115 409.62823113 -132.5442821 402.50801305 -130.21484375 395.38671875 C-129.8549939 394.28686646 -129.49514404 393.18701416 -129.12438965 392.05383301 C-125.75133898 381.74279741 -122.38147782 371.43072524 -119.01739502 361.11676025 C-117.9544186 357.86036268 -116.88911585 354.60473126 -115.82373047 351.34912109 C-114.02358278 345.84409521 -112.23485988 340.33546688 -110.45385742 334.82421875 C-109.78460817 332.75875769 -109.11184519 330.69443133 -108.43530273 328.63134766 C-107.5084266 325.80282171 -106.5944662 322.97043193 -105.68359375 320.13671875 C-105.40954208 319.31012253 -105.13549042 318.48352631 -104.85313416 317.63188171 C-103.37044265 312.96501414 -102.53724158 308.95757455 -103 304 C-104.90356987 300.72689447 -104.90356987 300.72689447 -107 298 C-107 297.34 -107 296.68 -107 296 C-108.05380859 295.64421875 -108.05380859 295.64421875 -109.12890625 295.28125 C-112.52096557 293.76751469 -115.03244648 291.81525072 -117.9375 289.5 C-122.44839204 285.95264942 -127.00371303 282.50352116 -131.6875 279.1875 C-132.26072998 278.78120361 -132.83395996 278.37490723 -133.42456055 277.95629883 C-134.63696249 277.09705256 -135.84944873 276.23792523 -137.06201172 275.37890625 C-140.6384432 272.83422434 -144.19336922 270.25974716 -147.75 267.6875 C-149.28775792 266.57551738 -150.82551836 265.46353824 -152.36328125 264.3515625 C-153.1310791 263.79629883 -153.89887695 263.24103516 -154.68994141 262.66894531 C-156.95180829 261.03481701 -159.21576308 259.4036287 -161.48046875 257.7734375 C-169.98992059 251.64502803 -178.45739685 245.46380502 -186.89208984 239.23291016 C-195.21502749 233.09080366 -203.60432215 227.04209317 -212 221 C-221.44381266 214.20359868 -230.87157309 207.38647344 -240.25 200.5 C-241.03624756 199.92451416 -241.82249512 199.34902832 -242.63256836 198.75610352 C-244.76637587 197.18522068 -246.88552605 195.59677089 -249 194 C-249.61939453 193.54625 -250.23878906 193.0925 -250.87695312 192.625 C-252.546875 191.34375 -252.546875 191.34375 -255 189 C-255 187.68 -255 186.36 -255 185 C-252.03793752 183.51896876 -249.03066751 183.86068354 -245.78327942 183.86869812 C-245.03105234 183.86658241 -244.27882527 183.86446669 -243.50380343 183.86228687 C-240.96972498 183.85626992 -238.43569608 183.85728823 -235.90161133 183.8581543 C-234.09003616 183.85512387 -232.27846176 183.85160274 -230.46688843 183.84762573 C-226.55834175 183.83972652 -222.64980424 183.83458794 -218.74125099 183.83133507 C-212.56003135 183.82543281 -206.37886953 183.80889927 -200.19767761 183.78999329 C-198.08267311 183.78365554 -195.96766857 183.77732992 -193.85266399 183.77101612 C-192.26361927 183.7662674 -192.26361927 183.7662674 -190.64247262 183.76142275 C-176.24790549 183.71932769 -161.8533648 183.68637584 -147.45874023 183.67407227 C-137.75521401 183.665693 -128.05183039 183.64320548 -118.3483755 183.6047166 C-113.21226795 183.58494813 -108.07637363 183.57255393 -102.9402256 183.57755089 C-98.10646665 183.58219613 -93.27311159 183.56839854 -88.43943405 183.54053879 C-86.66696053 183.53362443 -84.89444527 183.53350309 -83.12197304 183.54073906 C-80.69804898 183.54963365 -78.27545504 183.53392506 -75.85163879 183.51225281 C-74.80453184 183.52491661 -74.80453184 183.52491661 -73.7362712 183.53783625 C-68.3669338 183.44933852 -65.33710597 181.94494244 -61 179 C-59.37223289 176.79983305 -59.37223289 176.79983305 -58.51953125 174.1328125 C-58.12330566 173.06450195 -57.72708008 171.99619141 -57.31884766 170.89550781 C-56.87571199 169.59820217 -56.43641619 168.29958149 -56 167 C-55.74136169 166.24456909 -55.48272339 165.48913818 -55.21624756 164.71081543 C-52.96879053 158.12176505 -50.82514062 151.50031667 -48.6875 144.875 C-47.97779109 142.68812419 -47.26774167 140.50135887 -46.55737305 138.31469727 C-42.08725599 124.53676434 -37.67347966 110.74094429 -33.27099609 96.94128418 C-26.94163899 77.10602053 -20.56345941 57.28679004 -14.10946655 37.49172974 C-13.16476021 34.59333157 -12.22369583 31.6937904 -11.28579712 28.79318237 C-10.18061398 25.37586063 -9.06800794 21.96104537 -7.94969559 18.54799843 C-7.33911851 16.67843498 -6.73603784 14.80642855 -6.13314819 12.93437195 C-5.76396271 11.8127919 -5.39477722 10.69121185 -5.0144043 9.53564453 C-4.53719185 8.06975388 -4.53719185 8.06975388 -4.05033875 6.57424927 C-3.00093717 4.0022969 -1.76807955 2.12826099 0 0 Z " fill="#010002" transform="translate(255,12)"/>
</svg>
