<?xml version="1.0" encoding="UTF-8"?>
<svg version="1.1" xmlns="http://www.w3.org/2000/svg" width="512" height="512">
<path d="M0 0 C0.77397629 -0.00705963 1.54795258 -0.01411926 2.34538269 -0.02139282 C50.72743197 -0.36241647 95.41097494 12.13479881 136.546875 38.203125 C137.22975586 38.62916016 137.91263672 39.05519531 138.61621094 39.49414062 C159.40334472 52.48008722 179.00069017 67.12273013 196.95703125 83.82421875 C198.34454403 85.09872144 199.73898131 86.36679462 201.1730957 87.58862305 C207.3823946 92.88314102 213.11876598 98.62345199 218.87426758 104.40014648 C220.605822 106.137061 222.34265859 107.86856389 224.08007812 109.59960938 C229.78208675 115.29789043 235.3513328 121.032362 240.546875 127.203125 C241.43515722 128.22486403 242.32442898 129.24574389 243.21484375 130.265625 C266.4433385 157.34752896 266.4433385 157.34752896 266.23046875 167.765625 C264.84451732 174.73498076 260.02384087 179.89859032 255.546875 185.203125 C255.00675781 185.84781738 254.46664063 186.49250977 253.91015625 187.15673828 C250.64644088 191.02812093 247.32114318 194.84033003 243.95361328 198.62158203 C242.21850141 200.57230309 240.50731333 202.5432634 238.796875 204.515625 C237.71442449 205.74556918 236.63095211 206.97461426 235.546875 208.203125 C234.9381958 208.89664063 234.3295166 209.59015625 233.70239258 210.3046875 C227.89416622 216.8480891 221.82236442 223.08208375 215.6262207 229.25415039 C213.97946096 230.89552296 212.33815405 232.54221319 210.69726562 234.18945312 C205.15346594 239.73706413 199.54491822 245.14326579 193.546875 250.203125 C192.53703964 251.0798997 191.52788357 251.95745761 190.51953125 252.8359375 C169.98714781 270.41937459 147.96193331 285.71115811 124.546875 299.203125 C123.90363281 299.57775879 123.26039063 299.95239258 122.59765625 300.33837891 C92.62068497 317.65967115 55.97157369 330.19249918 21.09375 330.40625 C20.31977371 330.41330963 19.54579742 330.42036926 18.74836731 330.42764282 C-45.07141687 330.87748024 -102.60083791 306.6863382 -152.453125 267.203125 C-153.13632813 266.66268555 -153.81953125 266.12224609 -154.5234375 265.56542969 C-161.88365709 259.71595628 -169.13099469 253.77240182 -176.046875 247.3984375 C-178.07983097 245.5436952 -180.13797928 243.73074495 -182.21484375 241.92578125 C-193.62089681 231.96706205 -204.37538746 221.50103704 -214.453125 210.203125 C-215.9711927 208.56427344 -217.498015 206.93385573 -219.02490234 205.30322266 C-247.24409166 175.09689143 -247.24409166 175.09689143 -246.87109375 162.89453125 C-245.39263937 153.37439045 -236.85361912 145.80597692 -230.6875 138.875 C-227.9841455 135.83254877 -225.41782997 132.70691303 -222.890625 129.515625 C-219.16444109 124.90421507 -215.13381574 120.72787137 -210.87670898 116.61254883 C-208.13127322 113.94671805 -205.56186446 111.20712318 -203.0703125 108.30078125 C-199.52088902 104.19770215 -195.69090529 100.5007099 -191.703125 96.828125 C-190.65378784 95.85431885 -190.65378784 95.85431885 -189.58325195 94.86083984 C-187.54360709 92.97084857 -185.49868115 91.08671326 -183.453125 89.203125 C-182.42039703 88.24498122 -181.38782567 87.28666857 -180.35546875 86.328125 C-174.24647904 80.70258052 -167.94044125 75.38602109 -161.453125 70.203125 C-160.42960937 69.37296875 -159.40609375 68.5428125 -158.3515625 67.6875 C-114.4950066 32.38784254 -57.83384577 0.35443817 0 0 Z M-63.453125 90.203125 C-64.13890625 90.79222656 -64.8246875 91.38132812 -65.53125 91.98828125 C-82.24562209 107.44567821 -94.18468395 132.26498131 -95.63012695 154.98535156 C-96.29587473 186.03943493 -89.48363066 211.48395575 -68.453125 235.203125 C-67.85113281 235.88890625 -67.24914062 236.5746875 -66.62890625 237.28125 C-52.44068878 252.42355585 -33.4081228 262.21679375 -13.453125 267.203125 C-12.71868164 267.38858887 -11.98423828 267.57405273 -11.22753906 267.76513672 C15.44350125 273.82968767 42.23585083 268.01681502 65.359375 254.328125 C71.48489902 250.40384257 77.09461363 246.01238948 82.546875 241.203125 C83.16949219 240.66429687 83.79210937 240.12546875 84.43359375 239.5703125 C98.53051646 226.49204854 107.97475639 207.64681201 112.546875 189.203125 C112.73233887 188.46723145 112.91780273 187.73133789 113.10888672 186.97314453 C119.17420418 160.30414384 113.35948632 133.51232698 99.671875 110.390625 C95.74759257 104.26510098 91.35613948 98.65538637 86.546875 93.203125 C86.00804687 92.58050781 85.46921875 91.95789063 84.9140625 91.31640625 C71.83767203 77.22150296 52.98975126 67.77117788 34.546875 63.203125 C33.80880615 63.01838623 33.0707373 62.83364746 32.31030273 62.64331055 C-3.17088065 54.61613726 -36.87422446 67.04976599 -63.453125 90.203125 Z " fill="#000000" transform="translate(246.453125,90.796875)"/>
<path d="M0 0 C11.21056271 6.34728829 19.53578713 14.34764697 24.44921875 26.38671875 C24.98482422 27.68996094 24.98482422 27.68996094 25.53125 29.01953125 C28.44262313 39.69869567 27.93387582 53.69973289 22.44921875 63.38671875 C16.30503665 73.52531269 8.47703982 80.88600261 -2.55078125 85.38671875 C-3.4221875 85.7425 -4.29359375 86.09828125 -5.19140625 86.46484375 C-19.01572367 90.25849365 -32.66155391 87.41835687 -44.86328125 80.51171875 C-46.19359375 79.45984375 -46.19359375 79.45984375 -47.55078125 78.38671875 C-48.48277344 77.68482422 -48.48277344 77.68482422 -49.43359375 76.96875 C-57.25547118 70.70827396 -63.94287002 61.44683592 -65.55078125 51.38671875 C-66.9031883 37.74908734 -65.23748984 26.2494146 -56.80078125 15.01171875 C-43.29557159 -0.53439013 -19.73420154 -8.82927384 0 0 Z " fill="#000000" transform="translate(275.55078125,213.61328125)"/>
</svg>
