<?xml version="1.0" encoding="UTF-8"?>
<svg version="1.1" xmlns="http://www.w3.org/2000/svg" width="512" height="512">
<path d="M0 0 C1.10734213 0.94117521 2.21353754 1.88369968 3.3192606 2.8267765 C3.93539835 3.35149689 4.55153609 3.87621728 5.18634468 4.41683829 C7.82011661 6.71588973 10.28985099 9.15787717 12.75170898 11.63818359 C13.27942398 12.16575256 13.80713898 12.69332153 14.35084534 13.23687744 C16.06831364 14.955034 17.78222753 16.67668852 19.49609375 18.3984375 C20.69656287 19.60077468 21.89725518 20.80288905 23.09815979 22.00479126 C26.23866548 25.14909163 29.37615481 28.29638479 32.51300049 31.44433594 C35.72232618 34.66394173 38.93453005 37.88067321 42.14648438 41.09765625 C48.43379102 47.39564635 54.71791106 53.69680565 61 60 C56.45227392 65.45005246 51.63266268 70.51344132 46.61218262 75.52825928 C45.78232833 76.36108468 44.95247405 77.19391009 44.09747267 78.05197263 C41.80989272 80.34669061 39.52011421 82.63918707 37.22933364 84.93070912 C34.75310302 87.40880123 32.27972179 89.88973477 29.80592346 92.37025452 C24.40592171 97.78379084 19.00218687 103.19359035 13.59762001 108.60256863 C10.22168654 111.98127049 6.84648869 115.36070655 3.47142029 118.74027252 C-5.87915931 128.10303404 -15.23067717 137.46485617 -24.58565521 146.82322311 C-25.48221269 147.72010994 -25.48221269 147.72010994 -26.39688244 148.6351157 C-26.99597553 149.23442706 -27.59506862 149.83373842 -28.21231604 150.45121074 C-29.42621354 151.6655517 -30.6401095 152.87989422 -31.85400391 154.09423828 C-32.45613183 154.69658764 -33.05825976 155.29893699 -33.67863399 155.91953936 C-43.4473676 165.69222585 -53.20932218 175.4716542 -62.9683941 185.253988 C-72.99523414 195.30453478 -83.02768388 205.34945318 -93.06580114 215.38873696 C-98.69896898 221.02282148 -104.32969527 226.65929897 -109.95423889 232.30199432 C-114.7400291 237.10317572 -119.53091524 241.89919756 -124.32853854 246.68855587 C-126.77561629 249.13172486 -129.22020392 251.57725581 -131.65830803 254.02938271 C-134.3027333 256.68645761 -136.95620281 259.33415753 -139.61218262 261.97967529 C-140.76462172 263.14419901 -140.76462172 263.14419901 -141.94034243 264.33224845 C-147.81861306 270.15637004 -152.38609509 273.42805093 -160.9375 273.4375 C-162.68353516 273.46650391 -162.68353516 273.46650391 -164.46484375 273.49609375 C-172.47276929 272.37232961 -177.55276013 266.89319357 -183.015625 261.3828125 C-183.75327087 260.6480368 -184.49091675 259.91326111 -185.25091553 259.15621948 C-186.8008484 257.60831924 -188.34703477 256.05665942 -189.88964844 254.50146484 C-192.24609062 252.12893606 -194.61813831 249.77286446 -196.9921875 247.41796875 C-198.500963 245.90721113 -200.00880779 244.39552331 -201.515625 242.8828125 C-202.57502289 241.83252365 -202.57502289 241.83252365 -203.65582275 240.76101685 C-209.29835097 235.03738258 -212.42617601 230.41174285 -212.5 222.125 C-212.5309375 220.97257813 -212.561875 219.82015625 -212.59375 218.6328125 C-211.18505706 210.01383597 -204.51979551 204.0929613 -198.54020691 198.17944336 C-197.26585571 196.90124725 -197.26585571 196.90124725 -195.96576005 195.597229 C-193.62228308 193.24968378 -191.27231029 190.90901483 -188.91927302 188.57107615 C-186.37741202 186.04222567 -183.84428324 183.50465375 -181.31005859 180.96815491 C-176.92352666 176.5800534 -172.53155545 172.19745831 -168.13579369 167.81860352 C-161.78035 161.48758818 -155.43325123 155.14826025 -149.08812884 148.80690265 C-138.79223588 138.51756816 -128.48966766 128.23494468 -118.18286133 117.95654297 C-108.17347866 107.97471652 -98.16726599 97.98972979 -88.1652832 88.00048828 C-87.54828874 87.38428198 -86.93129427 86.76807569 -86.295603 86.13319647 C-83.20020178 83.0417105 -80.10486261 79.95016242 -77.00955427 76.85858345 C-51.34931349 51.22941975 -25.67822191 25.6111475 0 0 Z " fill="#000000" transform="translate(212,233)"/>
<path d="M0 0 C1.72863281 -0.04640625 1.72863281 -0.04640625 3.4921875 -0.09375 C11.65583129 1.24052296 17.39021953 7.31584568 23.01953125 12.99609375 C23.73356613 13.70725845 24.44760101 14.41842316 25.18327332 15.15113831 C26.68014966 16.6459856 28.17329428 18.14457825 29.6628418 19.64672852 C31.93797471 21.93797808 34.22874209 24.21271451 36.52148438 26.48632812 C37.98012991 27.94695536 39.43784494 29.40851256 40.89453125 30.87109375 C41.57578568 31.54627548 42.2570401 32.22145721 42.9589386 32.917099 C48.52704304 38.56817166 51.55221785 43.20520332 51.625 51.375 C51.67140625 53.10363281 51.67140625 53.10363281 51.71875 54.8671875 C50.43102441 62.74603487 44.73929255 68.32113576 39.22338867 73.7421875 C38.21279892 74.75343437 38.21279892 74.75343437 37.18179321 75.78511047 C34.97589478 77.98893604 32.75959781 80.18197232 30.54296875 82.375 C29.00246216 83.90990532 27.46262106 85.44547883 25.92341614 86.98168945 C21.88752066 91.00617812 17.84269506 95.02157226 13.79589844 99.03509521 C9.66120082 103.1390021 5.53507424 107.2515068 1.40820312 111.36328125 C-6.67786512 119.41725885 -14.77340023 127.46164804 -22.875 135.5 C-27.30687193 131.78427112 -31.55298549 127.96606718 -35.62670898 123.86181641 C-36.15442398 123.33424744 -36.68213898 122.80667847 -37.22584534 122.26312256 C-38.94331364 120.544966 -40.65722753 118.82331148 -42.37109375 117.1015625 C-43.57156287 115.89922532 -44.77225518 114.69711095 -45.97315979 113.49520874 C-49.11366548 110.35090837 -52.25115481 107.20361521 -55.38800049 104.05566406 C-58.59732618 100.83605827 -61.80953005 97.61932679 -65.02148438 94.40234375 C-71.30879102 88.10435365 -77.59291106 81.80319435 -83.875 75.5 C-79.88226246 70.72104192 -75.72048075 66.19287183 -71.32226562 61.78613281 C-70.69704514 61.15594742 -70.07182465 60.52576202 -69.42765808 59.8764801 C-67.38159811 57.81594658 -65.33178153 55.75920815 -63.28125 53.703125 C-62.57712479 52.99617241 -61.87299957 52.28921982 -61.14753723 51.56084442 C-57.4280486 47.82643053 -53.70574387 44.09485179 -49.98095703 40.36572266 C-46.14094196 36.52020423 -42.31030616 32.66548201 -38.48175812 28.80855179 C-35.5270782 25.8352416 -32.56570526 22.86866693 -29.60246277 19.90389252 C-28.18702471 18.48543298 -26.77408195 17.06447881 -25.36372375 15.64096832 C-23.39208539 13.65224703 -21.41116798 11.67323715 -19.42773438 9.69628906 C-18.56253426 8.81726677 -18.56253426 8.81726677 -17.67985535 7.92048645 C-12.35966237 2.65450963 -7.65707509 0.06821448 0 0 Z " fill="#000000" transform="translate(305.875,148.5)"/>
<path d="M0 0 C2.5 0.25 2.5 0.25 4.5 2.25 C5.14288132 4.06032335 5.70953706 5.89809154 6.234375 7.74609375 C6.56179687 8.86306641 6.88921875 9.98003906 7.2265625 11.13085938 C7.89831816 13.4653385 8.5651503 15.80124116 9.2265625 18.13867188 C14.04986313 34.50611258 22.46837098 47.58391967 37.5 56.25 C45.52996339 60.35554519 54.17238694 62.76423696 62.82177734 65.19555664 C63.65660645 65.43395264 64.49143555 65.67234863 65.3515625 65.91796875 C66.10260254 66.12703857 66.85364258 66.3361084 67.62744141 66.55151367 C69.5 67.25 69.5 67.25 71.5 69.25 C71.9375 71.6875 71.9375 71.6875 71.5 74.25 C66.97738705 77.76969042 61.34121814 78.9544449 55.9375 80.5625 C38.65185039 85.92652545 24.89446415 92.95496296 15.5 109.25 C12.6869387 114.75201696 10.706435 120.41737293 9.03515625 126.35546875 C8.78000244 127.25410645 8.52484863 128.15274414 8.26196289 129.07861328 C7.76127045 130.87507402 7.27935883 132.67689517 6.81811523 134.48388672 C5.09897316 140.73432154 5.09897316 140.73432154 2 143.40234375 C-0.5 144.25 -0.5 144.25 -3.5 143.25 C-4.40380859 141.41503906 -4.40380859 141.41503906 -5.1484375 139.015625 C-5.42872803 138.1376123 -5.70901855 137.25959961 -5.99780273 136.35498047 C-6.28727783 135.41283691 -6.57675293 134.47069336 -6.875 133.5 C-7.49700081 131.5697648 -8.12069617 129.64007482 -8.74609375 127.7109375 C-9.04757324 126.77088867 -9.34905273 125.83083984 -9.65966797 124.86230469 C-14.96956874 108.35564047 -22.8627903 95.23767861 -38.5 86.75 C-49.02260509 81.72098454 -60.35674441 78.60085177 -71.5 75.25 C-72.1875 72.9375 -72.1875 72.9375 -72.5 70.25 C-70.43520793 67.02723769 -67.46117815 66.41429616 -63.90625 65.41796875 C-62.7925 65.09376953 -61.67875 64.76957031 -60.53125 64.43554688 C-58.20908726 63.77922765 -55.88618846 63.1255062 -53.5625 62.47460938 C-37.33227442 57.73769147 -23.94601503 49.29174326 -15.5 34.25 C-11.6680182 26.01123913 -9.14780645 17.21387978 -6.55444336 8.52172852 C-6.31604736 7.73725342 -6.07765137 6.95277832 -5.83203125 6.14453125 C-5.62296143 5.44175049 -5.4138916 4.73896973 -5.19848633 4.01489258 C-4.05827729 1.13388204 -3.07973287 0.30797329 0 0 Z " fill="#000000" transform="translate(217.5,5.75)"/>
<path d="M0 0 C1.65 0 3.3 0 5 0 C7.20296845 5.29649861 9.21595186 10.58867959 10.9375 16.0625 C14.90874585 28.17869321 21.00611278 36.43896956 32 43 C36.10607135 44.75312452 40.29050911 46.08740787 44.5625 47.375 C46.71029516 48.04737533 48.85746854 48.72174125 51.00390625 49.3984375 C51.94049072 49.68380371 52.8770752 49.96916992 53.84204102 50.26318359 C56 51 56 51 57 52 C57.04063832 53.66617115 57.042721 55.33388095 57 57 C52.57893322 58.7142912 48.16579691 60.25687924 43.62939453 61.64257812 C31.53052688 65.42708689 21.8035794 70.8937003 15 82 C11.06111033 90.28851918 8.57466526 99.21161745 6 108 C3.525 108.495 3.525 108.495 1 109 C-1.73829228 105.07401468 -3.01796103 101.07245481 -4.39648438 96.54907227 C-8.17094164 84.14647032 -8.17094164 84.14647032 -16 74 C-16.53109375 73.44699219 -17.0621875 72.89398438 -17.609375 72.32421875 C-24.99585296 65.23671728 -35.08460068 62.46581282 -44.69311523 59.69897461 C-49.79694251 58.20305749 -49.79694251 58.20305749 -52 56 C-51.625 53.375 -51.625 53.375 -51 51 C-50.3201001 50.78907715 -49.6402002 50.5781543 -48.93969727 50.36083984 C-45.80911263 49.38035425 -42.68598261 48.37786949 -39.5625 47.375 C-38.49322266 47.04371094 -37.42394531 46.71242187 -36.32226562 46.37109375 C-25.02866718 42.71017193 -15.7050202 37.20963935 -9.66796875 26.67578125 C-5.55996229 18.15981866 -2.87716635 8.98743715 0 0 Z " fill="#000000" transform="translate(455,149)"/>
<path d="M0 0 C3 1 3 1 3.88793945 2.71484375 C4.24698364 3.81505859 4.24698364 3.81505859 4.61328125 4.9375 C4.88841553 5.74614502 5.1635498 6.55479004 5.44702148 7.38793945 C5.73262939 8.24991943 6.0182373 9.11189941 6.3125 10 C10.11239374 20.80660525 13.98322927 28.83413746 24 35 C28.28702494 36.83395662 32.73302684 38.11281246 37.19335938 39.453125 C38.05638672 39.72898437 38.91941406 40.00484375 39.80859375 40.2890625 C40.59032959 40.52318848 41.37206543 40.75731445 42.17749023 40.99853516 C44 42 44 42 44.76196289 44.10693359 C44.87979126 45.04400146 44.87979126 45.04400146 45 46 C39.88325469 48.36665998 34.74289126 50.46431713 29.4375 52.375 C19.42207666 56.23875889 13.45177089 61.0875583 9 71 C7.74991195 74.50783852 6.65557711 78.05754617 5.64770508 81.64208984 C4.18481705 86.81518295 4.18481705 86.81518295 2 89 C-0.03173828 88.85742188 -0.03173828 88.85742188 -2 88 C-2.90966797 86.37695312 -2.90966797 86.37695312 -3.4921875 84.28125 C-3.71898193 83.51780273 -3.94577637 82.75435547 -4.17944336 81.96777344 C-4.40897705 81.1534082 -4.63851074 80.33904297 -4.875 79.5 C-7.01128664 72.56878575 -9.13270707 66.53438384 -14 61 C-14.48726563 60.443125 -14.97453125 59.88625 -15.4765625 59.3125 C-20.62002472 54.24504953 -27.29054067 52.27685623 -34 50 C-35.40572266 49.51660156 -35.40572266 49.51660156 -36.83984375 49.0234375 C-38.88732435 48.33124027 -40.94272261 47.66251306 -43 47 C-43 45.35 -43 43.7 -43 42 C-42.43603516 41.81937012 -41.87207031 41.63874023 -41.29101562 41.45263672 C-38.68861558 40.60914793 -36.09456251 39.74228353 -33.5 38.875 C-32.613125 38.59140625 -31.72625 38.3078125 -30.8125 38.015625 C-21.37595572 34.82385267 -14.0467856 29.73771835 -9 21 C-7.05664485 16.54675227 -5.61747838 11.96157084 -4.16015625 7.33203125 C-3.90105469 6.52121094 -3.64195312 5.71039063 -3.375 4.875 C-3.04628906 3.78832031 -3.04628906 3.78832031 -2.7109375 2.6796875 C-2 1 -2 1 0 0 Z " fill="#000000" transform="translate(376,278)"/>
</svg>
